<svg width="32" height="32" viewBox="0 0 32 32" fill="none" xmlns="http://www.w3.org/2000/svg">
<path d="M16 2.66406C23.3547 2.66423 29.3164 8.62674 29.3164 15.9814C29.3163 22.6282 24.4464 28.1378 18.0801 29.1367V29.1357H18.0811V19.8311H21.1836V19.8301L21.7744 15.9805H18.0811V13.4824C18.0811 13.117 18.1456 12.7557 18.2959 12.4385C18.3351 12.3558 18.378 12.2751 18.4297 12.1992C18.501 12.0944 18.5844 11.9966 18.6816 11.9082C19.0217 11.5994 19.5278 11.4033 20.251 11.4033H21.9297V11.4023H21.9307V8.125C21.9307 8.125 20.4063 7.86523 18.9492 7.86523C17.8437 7.86526 16.878 8.10981 16.0957 8.58008C16.0438 8.61129 15.9927 8.64355 15.9424 8.67676C15.8384 8.74541 15.7374 8.81743 15.6406 8.89453C15.5193 8.99114 15.4036 9.09437 15.2939 9.2041C15.1607 9.33749 15.0372 9.48129 14.9219 9.63379C14.8525 9.7255 14.7863 9.82041 14.7236 9.91895C14.6644 10.0122 14.6087 10.1087 14.5557 10.208C14.309 10.6692 14.1303 11.1949 14.0264 11.7832C13.9569 12.1768 13.9189 12.5985 13.9189 13.0469V15.9805H10.5381V19.8311H13.9189V29.1367C7.55263 28.1378 2.68277 22.6282 2.68262 15.9814C2.68262 8.62663 8.64519 2.66406 16 2.66406Z" fill="#A3FAEC"/>
</svg>
