<svg width="32" height="32" viewBox="0 0 32 32" fill="none" xmlns="http://www.w3.org/2000/svg">
<rect x="3.625" y="3.625" width="24.75" height="24.75" rx="12.375" stroke="#00231D" stroke-width="1.25"/>
<path d="M18 22V16.6667C18 16.4899 17.9298 16.3203 17.8047 16.1953C17.6797 16.0702 17.5101 16 17.3333 16H14.6667C14.4899 16 14.3203 16.0702 14.1953 16.1953C14.0702 16.3203 14 16.4899 14 16.6667V22" stroke="#00231D" stroke-width="1.25" stroke-linecap="round" stroke-linejoin="round"/>
<path d="M10 14.667C9.99995 14.473 10.0422 14.2814 10.1239 14.1054C10.2055 13.9295 10.3245 13.7735 10.4727 13.6483L15.1393 9.64897C15.38 9.44558 15.6849 9.33398 16 9.33398C16.3151 9.33398 16.62 9.44558 16.8607 9.64897L21.5273 13.6483C21.6755 13.7735 21.7945 13.9295 21.8761 14.1054C21.9578 14.2814 22 14.473 22 14.667V20.667C22 21.0206 21.8595 21.3597 21.6095 21.6098C21.3594 21.8598 21.0203 22.0003 20.6667 22.0003H11.3333C10.9797 22.0003 10.6406 21.8598 10.3905 21.6098C10.1405 21.3597 10 21.0206 10 20.667V14.667Z" stroke="#00231D" stroke-width="1.25" stroke-linecap="round" stroke-linejoin="round"/>
</svg>
