<svg width="32" height="32" viewBox="0 0 32 32" fill="none" xmlns="http://www.w3.org/2000/svg">
<rect x="3.625" y="3.625" width="24.75" height="16.75" rx="1.375" stroke="#00231D" stroke-width="1.25"/>
<path d="M22.0205 6.60352C22.0205 6.25834 21.7407 5.97852 21.3955 5.97852H15.7705C15.4253 5.97852 15.1455 6.25834 15.1455 6.60352C15.1455 6.94869 15.4253 7.22852 15.7705 7.22852H20.7705V12.2285C20.7705 12.5737 21.0503 12.8535 21.3955 12.8535C21.7407 12.8535 22.0205 12.5737 22.0205 12.2285V6.60352ZM9.97051 17.4035C9.97051 17.7487 10.2503 18.0285 10.5955 18.0285L16.2205 18.0285C16.5657 18.0285 16.8455 17.7487 16.8455 17.4035C16.8455 17.0583 16.5657 16.7785 16.2205 16.7785H11.2205V11.7785C11.2205 11.4333 10.9407 11.1535 10.5955 11.1535C10.2503 11.1535 9.97051 11.4333 9.97051 11.7785L9.97051 17.4035ZM21.3955 6.60352L20.9536 6.16157L10.1536 16.9616L10.5955 17.4035L11.0374 17.8455L21.8374 7.04546L21.3955 6.60352Z" fill="#00231D"/>
<path d="M11 29.0312V24.2852H12.0415V25.0674C12.1704 24.8037 12.3594 24.5898 12.6084 24.4258C12.8604 24.2588 13.1548 24.1753 13.4917 24.1753C13.8169 24.1753 14.0938 24.2588 14.3223 24.4258C14.5537 24.5898 14.7251 24.8286 14.8364 25.1421C15.0034 24.8286 15.2188 24.5898 15.4824 24.4258C15.7461 24.2588 16.0391 24.1753 16.3613 24.1753C16.8301 24.1753 17.1934 24.3423 17.4512 24.6763C17.7119 25.0103 17.8423 25.4849 17.8423 26.1001V29.0312H16.7568V26.1133C16.7568 25.8994 16.7349 25.7104 16.6909 25.5464C16.647 25.3823 16.5723 25.2534 16.4668 25.1597C16.3613 25.0659 16.2134 25.019 16.0229 25.019C15.8062 25.019 15.6187 25.0864 15.4604 25.2212C15.3022 25.353 15.1792 25.5405 15.0913 25.7837C15.0063 26.0239 14.9639 26.3081 14.9639 26.6362V29.0312H13.8784V26.1133C13.8784 25.8994 13.8564 25.7104 13.8125 25.5464C13.7686 25.3823 13.6938 25.2534 13.5884 25.1597C13.4829 25.0659 13.3379 25.019 13.1533 25.019C12.9365 25.019 12.7476 25.085 12.5864 25.2168C12.4282 25.3486 12.3052 25.5361 12.2173 25.7793C12.1294 26.0195 12.0854 26.3066 12.0854 26.6406V29.0312H11Z" fill="#00231D"/>
<path d="M18.6904 25.8672V25.3486L20.0439 24.2588C20.252 24.0889 20.4043 23.9307 20.501 23.7842C20.5977 23.6377 20.646 23.4678 20.646 23.2744C20.646 23.0547 20.5947 22.9009 20.4922 22.813C20.3896 22.7222 20.2622 22.6768 20.1099 22.6768C19.9546 22.6768 19.8345 22.709 19.7495 22.7734C19.6646 22.8379 19.603 22.9214 19.5649 23.0239C19.5298 23.1265 19.5078 23.2349 19.499 23.3491L18.6289 23.1118C18.6553 22.9185 18.7329 22.7383 18.8618 22.5713C18.9937 22.4014 19.1665 22.2637 19.3804 22.1582C19.5942 22.0527 19.8359 22 20.1055 22C20.3223 22 20.5405 22.0396 20.7603 22.1187C20.98 22.1978 21.1646 22.3237 21.314 22.4966C21.4663 22.6694 21.5425 22.8979 21.5425 23.1821C21.5425 23.478 21.4473 23.7505 21.2568 23.9995C21.0664 24.2456 20.7983 24.4829 20.4526 24.7114L19.521 25.3442L19.3716 25.186H21.5293V25.8672H18.6904Z" fill="#00231D"/>
</svg>
