<svg width="56" height="57" viewBox="0 0 56 57" fill="none" xmlns="http://www.w3.org/2000/svg">
<rect x="4" y="4.01953" width="48" height="48" rx="24" fill="#F4EBFF"/>
<rect x="4" y="4.01953" width="48" height="48" rx="24" stroke="#F9F5FF" stroke-width="8"/>
<path d="M28 18.0195C29.3132 18.0195 30.6136 18.2782 31.8268 18.7807C33.0401 19.2833 34.1425 20.0199 35.0711 20.9485C35.9997 21.8771 36.7363 22.9794 37.2388 24.1927C37.7413 25.406 38 26.7063 38 28.0195M28 18.0195V28.0195M28 18.0195C22.4772 18.0195 18 22.4967 18 28.0195C18 33.5424 22.4772 38.0195 28 38.0195C33.5228 38.0195 38 33.5424 38 28.0195M28 18.0195C33.5228 18.0195 38 22.4967 38 28.0195M38 28.0195L28 28.0195M38 28.0195C38 29.5976 37.6265 31.1533 36.9101 32.5594C36.1936 33.9655 35.1546 35.1821 33.8779 36.1097L28 28.0195" stroke="#006555" stroke-width="2" stroke-linecap="round" stroke-linejoin="round"/>
</svg>
