<svg width="56" height="57" viewBox="0 0 56 57" fill="none" xmlns="http://www.w3.org/2000/svg">
<rect x="4" y="4.01953" width="48" height="48" rx="24" fill="#F4EBFF"/>
<rect x="4" y="4.01953" width="48" height="48" rx="24" stroke="#F9F5FF" stroke-width="8"/>
<path d="M29.5295 24.3714C28.9571 24.7795 28.2566 25.0195 27.5 25.0195C25.567 25.0195 24 23.4525 24 21.5195C24 19.5865 25.567 18.0195 27.5 18.0195C28.753 18.0195 29.8522 18.6779 30.4705 19.6677M22 36.1067H24.6103C24.9506 36.1067 25.2889 36.1472 25.6188 36.2282L28.3769 36.8984C28.9753 37.0442 29.5988 37.0584 30.2035 36.9409L33.253 36.3476C34.0585 36.1907 34.7996 35.805 35.3803 35.24L37.5379 33.1412C38.154 32.5429 38.154 31.572 37.5379 30.9726C36.9832 30.433 36.1047 30.3722 35.4771 30.8298L32.9626 32.6644C32.6025 32.9276 32.1643 33.0694 31.7137 33.0694H29.2855L30.8311 33.0693C31.7022 33.0693 32.4079 32.3829 32.4079 31.5354V31.2287C32.4079 30.525 31.9156 29.9115 31.2141 29.7414L28.8286 29.1613C28.4404 29.0671 28.0428 29.0195 27.6431 29.0195C26.6783 29.0195 24.9319 29.8183 24.9319 29.8183L22 31.0444M36 22.5195C36 24.4525 34.433 26.0195 32.5 26.0195C30.567 26.0195 29 24.4525 29 22.5195C29 20.5865 30.567 19.0195 32.5 19.0195C34.433 19.0195 36 20.5865 36 22.5195ZM18 30.6195L18 36.4195C18 36.9796 18 37.2596 18.109 37.4735C18.2049 37.6617 18.3578 37.8147 18.546 37.9105C18.7599 38.0195 19.0399 38.0195 19.6 38.0195H20.4C20.9601 38.0195 21.2401 38.0195 21.454 37.9105C21.6422 37.8147 21.7951 37.6617 21.891 37.4735C22 37.2596 22 36.9796 22 36.4195V30.6195C22 30.0595 22 29.7795 21.891 29.5655C21.7951 29.3774 21.6422 29.2244 21.454 29.1285C21.2401 29.0195 20.9601 29.0195 20.4 29.0195L19.6 29.0195C19.0399 29.0195 18.7599 29.0195 18.546 29.1285C18.3578 29.2244 18.2049 29.3774 18.109 29.5655C18 29.7795 18 30.0595 18 30.6195Z" stroke="#006555" stroke-width="2" stroke-linecap="round" stroke-linejoin="round"/>
</svg>
