<svg width="88" height="88" viewBox="0 0 88 88" fill="none" xmlns="http://www.w3.org/2000/svg">
<rect x="4" y="4" width="80" height="80" rx="40" fill="#EFF1F5"/>
<rect x="4" y="4" width="80" height="80" rx="40" stroke="#F9F9FB" stroke-width="8"/>
<path d="M57.3132 50.9441L56.7052 49.1201C57.0892 48.8961 57.4732 48.6401 57.8252 48.2881C58.7532 47.3601 59.2012 46.1441 59.2012 44.9281C59.2012 43.7121 58.7532 42.4961 57.8252 41.5681L54.7212 38.4641L55.1372 38.0481C55.3292 37.8561 55.3292 37.5041 55.1372 37.3121L54.4332 36.6401C54.2412 36.4481 53.8892 36.4481 53.6972 36.6401L46.1772 44.1601C45.9852 44.3521 45.9852 44.7041 46.1772 44.8961L46.8812 45.6001C47.0732 45.7921 47.4252 45.7921 47.6172 45.6001L48.0332 45.1841L51.1372 48.2881C51.5212 48.6721 51.9372 48.9601 52.4172 49.1841L51.8412 50.9441C51.0732 51.0721 50.4652 51.7441 50.4652 52.5761C50.4652 53.5041 51.2012 54.2401 52.1292 54.2401C53.0572 54.2401 53.7932 53.5041 53.7932 52.5761C53.7932 52.1281 53.6012 51.7121 53.3132 51.4241L53.8892 49.6641C54.3372 49.7281 54.8172 49.6961 55.2652 49.6321L55.8412 51.4241C55.5532 51.7121 55.3612 52.1281 55.3612 52.5761C55.3612 53.5041 56.0972 54.2401 57.0252 54.2401C57.9532 54.2401 58.6892 53.5041 58.6892 52.5761C58.6892 51.7761 58.0812 51.1041 57.3132 50.9441ZM52.1292 53.2161C51.7772 53.2161 51.4892 52.9281 51.4892 52.5761C51.4892 52.2241 51.7772 51.9361 52.1292 51.9361C52.4812 51.9361 52.7692 52.2241 52.7692 52.5761C52.7372 52.9281 52.4492 53.2161 52.1292 53.2161ZM54.5612 47.2641C53.3132 47.2641 52.3212 46.2401 52.3212 45.0241C52.3212 43.8081 53.3132 42.7841 54.5612 42.7841C55.8092 42.7841 56.8012 43.7761 56.8012 45.0241C56.8012 46.2721 55.8092 47.2641 54.5612 47.2641ZM57.0252 53.2161C56.6732 53.2161 56.3852 52.9281 56.3852 52.5761C56.3852 52.2241 56.6732 51.9361 57.0252 51.9361C57.3772 51.9361 57.6652 52.2241 57.6652 52.5761C57.6332 52.9281 57.3452 53.2161 57.0252 53.2161Z" fill="#006555"/>
<path d="M46.7216 51.9358C46.0176 51.4238 45.0896 51.4238 44.3856 51.9358L43.2656 52.7998L42.4656 52.1918C41.8896 51.7438 41.0896 51.7438 40.5136 52.1918L38.2096 53.9518C38.1136 54.0158 38.1776 54.1438 38.2736 54.1438H49.2496C49.3776 54.1438 49.4416 53.9838 49.3136 53.9198L46.7216 51.9358Z" fill="#006555"/>
<path d="M38.6888 46.8163L41.2168 48.3523L40.5768 49.3763C40.5448 49.4403 40.5448 49.5363 40.6088 49.5683L42.3368 50.6243C43.1688 51.1363 44.2248 50.8803 44.7368 50.0483C45.2488 49.2163 44.9928 48.1603 44.1608 47.6483L42.4328 46.5923C42.3688 46.5603 42.2728 46.5603 42.2408 46.6243L41.6008 47.6483L38.9128 45.9843C38.9128 45.9843 38.9128 45.9843 38.9128 45.9523C38.9128 45.8563 38.5928 43.9683 38.4328 43.1683C38.4008 43.0723 38.4648 42.7523 38.4648 42.4963C38.5608 41.4083 38.7528 39.6163 37.1528 38.5923L35.6168 37.8883C33.8888 37.1843 32.2888 37.1523 31.5208 37.4083C31.3288 37.6003 30.7528 37.7923 28.9608 40.3203C28.6408 40.7363 28.7688 41.3443 29.1848 41.6643C29.5368 41.8883 29.9528 41.8883 30.2728 41.6643L31.6808 42.5283C31.6808 42.5603 31.6488 42.5923 31.6488 42.6563C31.0728 44.0003 31.2968 45.6003 31.4888 46.9123C31.5528 47.3603 31.6488 48.0003 31.6168 48.2243C31.0728 49.2803 29.6648 52.4483 29.6008 52.5763C29.3448 53.1523 29.6008 53.8243 30.1768 54.0803C30.3368 54.1443 30.4968 54.1763 30.6248 54.1763C31.0728 54.1763 31.4888 53.9203 31.6488 53.5043C31.6488 53.4723 33.1528 50.1123 33.6328 49.1523C33.8888 48.6083 33.8568 47.9363 33.7608 47.1363C34.3048 47.8083 34.8168 48.5763 35.0408 49.0243C35.1368 49.5043 34.9768 51.3923 34.7848 52.8963C34.7208 53.5043 35.1368 54.0803 35.7768 54.1763C35.8088 54.1763 35.8728 54.1763 35.9048 54.1763C36.4808 54.1763 36.9608 53.7603 37.0248 53.1843C37.5688 49.1203 37.2808 48.4163 37.1848 48.1603C37.0568 47.8723 36.2568 46.4323 35.2008 45.2483C35.2648 45.0883 35.2968 44.9283 35.3608 44.7683L36.9608 45.7603C37.0248 46.1123 37.0568 46.3363 37.0568 46.3363C37.1208 46.8163 37.5368 47.1363 37.9848 47.1363C38.0488 47.1363 38.0808 47.1363 38.1448 47.1363C38.3688 47.1043 38.5608 46.9763 38.6888 46.8163ZM30.8168 41.0563C31.3608 40.3203 32.0008 39.5203 32.2568 39.2963C32.4488 39.2643 32.8648 39.2323 33.3768 39.3283C32.8328 39.9363 32.3528 40.8643 31.9688 41.7923L30.8168 41.0563ZM35.6488 44.0323C35.9368 43.2643 36.2888 42.4643 36.6728 41.7923C36.6728 41.9843 36.6408 42.1763 36.6088 42.4003C36.5768 42.8483 36.5128 43.2323 36.5768 43.5843C36.6408 43.8723 36.7048 44.2883 36.7688 44.7363L35.6488 44.0323Z" fill="#006555"/>
<path d="M39.5304 36.7705C39.9877 35.6591 39.4574 34.3875 38.346 33.9302C37.2346 33.4729 35.963 34.0032 35.5057 35.1146C35.0484 36.226 35.5787 37.4976 36.6901 37.9549C37.8015 38.4122 39.0732 37.8819 39.5304 36.7705Z" fill="#006555"/>
<path d="M54.5599 46.4635C55.3729 46.4635 56.0319 45.8045 56.0319 44.9915C56.0319 44.1786 55.3729 43.5195 54.5599 43.5195C53.7469 43.5195 53.0879 44.1786 53.0879 44.9915C53.0879 45.8045 53.7469 46.4635 54.5599 46.4635Z" fill="#006555"/>
</svg>
