<svg width="33" height="32" viewBox="0 0 33 32" fill="none" xmlns="http://www.w3.org/2000/svg">
<rect x="3.79199" y="3.625" width="24.75" height="24.75" rx="12.375" stroke="#00231D" stroke-width="1.25"/>
<path d="M18.1982 16L20.3006 10.5156H21.7974L23.8921 16H22.6276L21.0433 11.3688L19.4627 16H18.1982ZM19.5731 14.4994V13.5587H22.5058V14.4994H19.5731Z" fill="#00231D"/>
<path d="M15.5041 16V13.9396L13.6074 10.5156H14.849L16.1782 13.1664H16.003L17.3322 10.5156H18.5738L16.681 13.9319V16H15.5041Z" fill="#00231D"/>
<path d="M8.70801 16V10.5156H11.1379C11.7625 10.5156 12.2335 10.6299 12.5509 10.8584C12.8683 11.0844 13.027 11.4145 13.027 11.8486C13.027 12.1279 12.9698 12.3526 12.8556 12.5228C12.7413 12.6929 12.5979 12.8211 12.4252 12.9074C12.2525 12.9912 12.0786 13.0458 11.9034 13.0712L11.9148 13.056C12.3109 13.1194 12.6245 13.2705 12.8556 13.5092C13.0892 13.7453 13.206 14.0729 13.206 14.4918C13.206 14.8701 13.1158 15.1697 12.9355 15.3906C12.7578 15.6115 12.5217 15.7689 12.2271 15.8629C11.9326 15.9543 11.6114 16 11.2636 16H8.70801ZM9.88486 15.0859H11.0579C11.3118 15.0859 11.5073 15.0504 11.6444 14.9793C11.7841 14.9057 11.8806 14.8104 11.9339 14.6937C11.9897 14.5743 12.0177 14.4448 12.0177 14.3052C12.0177 14.1427 11.9809 14.003 11.9072 13.8862C11.8361 13.7669 11.7219 13.6742 11.5645 13.6082C11.4096 13.5422 11.2039 13.5092 10.9475 13.5092H9.88486V15.0859ZM9.88486 12.6446H11.0503C11.2966 12.6446 11.4908 12.5977 11.633 12.5037C11.7752 12.4072 11.8463 12.2511 11.8463 12.0353C11.8463 11.855 11.7892 11.709 11.6749 11.5973C11.5606 11.4855 11.3588 11.4297 11.0693 11.4297H9.88486V12.6446Z" fill="#00231D"/>
<path d="M17.668 22.9995V22.3901L19.6104 20.7905C19.8439 20.595 20.0331 20.4147 20.1778 20.2497C20.3251 20.0847 20.4317 19.9184 20.4978 19.7508C20.5663 19.5807 20.6006 19.394 20.6006 19.1909C20.6006 18.9599 20.5612 18.7707 20.4825 18.6234C20.4063 18.4762 20.2984 18.3683 20.1588 18.2997C20.0191 18.2286 19.8528 18.1931 19.6599 18.1931C19.411 18.1931 19.2143 18.2451 19.0695 18.3492C18.9273 18.4533 18.8232 18.5879 18.7572 18.7529C18.6912 18.9154 18.6519 19.0906 18.6392 19.2785L17.6299 18.9929C17.6578 18.7288 17.7594 18.4774 17.9346 18.2388C18.1098 17.9976 18.3446 17.8008 18.6392 17.6484C18.9362 17.4961 19.2765 17.4199 19.6599 17.4199C19.8858 17.4199 20.1131 17.4517 20.3416 17.5151C20.5727 17.5761 20.7847 17.6738 20.9776 17.8084C21.1731 17.943 21.3306 18.1182 21.4499 18.334C21.5692 18.5498 21.6289 18.8101 21.6289 19.1147C21.6289 19.5464 21.5007 19.9374 21.2442 20.2878C20.9878 20.6382 20.626 20.981 20.1588 21.3161L18.7496 22.3673L18.4068 22.1997H21.667V22.9995H17.668Z" fill="#00231D"/>
<path d="M10.7383 22.9995V18.8862H11.6409V19.5642C11.7526 19.3356 11.9164 19.1503 12.1322 19.0081C12.3506 18.8634 12.6058 18.791 12.8978 18.791C13.1796 18.791 13.4195 18.8634 13.6176 19.0081C13.8182 19.1503 13.9667 19.3572 14.0632 19.6289C14.2079 19.3572 14.3945 19.1503 14.623 19.0081C14.8516 18.8634 15.1055 18.791 15.3848 18.791C15.791 18.791 16.1059 18.9357 16.3293 19.2252C16.5553 19.5146 16.6683 19.926 16.6683 20.4592V22.9995H15.7275V20.4706C15.7275 20.2853 15.7085 20.1215 15.6704 19.9793C15.6323 19.8371 15.5676 19.7254 15.4762 19.6441C15.3848 19.5629 15.2565 19.5223 15.0915 19.5223C14.9036 19.5223 14.7411 19.5807 14.604 19.6975C14.4669 19.8117 14.3603 19.9742 14.2841 20.185C14.2104 20.3932 14.1736 20.6395 14.1736 20.9238V22.9995H13.2329V20.4706C13.2329 20.2853 13.2139 20.1215 13.1758 19.9793C13.1377 19.8371 13.0729 19.7254 12.9815 19.6441C12.8901 19.5629 12.7645 19.5223 12.6045 19.5223C12.4166 19.5223 12.2528 19.5794 12.1132 19.6937C11.9761 19.8079 11.8694 19.9704 11.7933 20.1812C11.7171 20.3894 11.679 20.6382 11.679 20.9276V22.9995H10.7383Z" fill="#00231D"/>
</svg>
