<svg width="109" height="26" viewBox="0 0 109 26" fill="none" xmlns="http://www.w3.org/2000/svg">
<g clip-path="url(#clip0_8845_13351)">
<path d="M92.6396 13.0439C91.8641 13.0014 91.4325 13.2479 91.1371 13.4244C90.9621 13.5288 90.0608 14.0718 88.2169 16.2847C89.0607 14.7141 89.7433 13.4476 89.8197 13.3184C89.8422 13.281 89.8633 13.2471 89.8763 13.2245H87.6137C86.8737 14.5749 85.0123 17.9584 84.0654 19.6847V19.6851H86.387C86.5172 19.4414 87.0874 18.5057 87.2596 18.2706C87.6267 17.7682 88.0281 17.2681 88.465 16.7723C89.2278 15.9077 90.1898 15.129 90.1913 15.1277C90.2483 15.0863 90.3049 15.0464 90.3609 15.0086C90.3622 15.0077 90.3634 15.0068 90.3647 15.0062C90.8623 14.6504 91.2177 14.5131 91.4421 14.4718C91.6666 14.4306 91.7526 14.5852 91.637 14.905C91.5676 15.1012 91.2048 15.7275 91.0809 15.9565C90.9076 16.2702 90.7276 16.6153 90.5942 16.927C90.4358 17.2968 90.2051 17.7914 90.2051 18.416C90.2051 19.1492 90.7316 19.7466 91.6832 19.7843C92.8406 19.83 93.3443 19.2159 93.4316 19.1472L93.2396 18.6747C92.5994 19.214 92.0169 19.4498 92.1171 18.6728C92.1795 18.2934 92.36 17.7866 92.7156 17.1155C92.7288 17.0943 92.7737 17.0113 92.8369 16.8933C92.8578 16.8561 92.8784 16.8189 92.9006 16.7808C92.9023 16.7775 92.9023 16.7736 92.9035 16.7696C93.1504 16.3088 93.5486 15.5581 93.5486 15.5581C93.8404 15.0508 93.9705 14.7745 94.0017 14.3791C94.0564 13.6799 93.4914 13.0912 92.6396 13.0439Z" fill="white"/>
<path d="M37.6704 7.43622C37.6704 7.43622 33.4228 14.7224 33.0073 15.4411C32.7739 15.8444 32.4523 16.4252 32.2416 16.9163C32.083 17.286 31.8525 17.7806 31.8525 18.4056C31.8525 19.1386 32.3789 19.7339 33.3306 19.7739C34.432 19.8197 34.9977 19.2128 35.0792 19.1364L34.887 18.664C34.2469 19.2034 33.6639 19.4392 33.7642 18.6618C33.8372 18.222 34.0672 17.6112 34.5478 16.77C34.83 16.2761 39.9902 7.43359 39.9902 7.43359L37.6704 7.43622Z" fill="white"/>
<path d="M29.0927 13.0586C26.7358 13.0586 24.0391 14.7715 24.0391 17.421C24.0391 19.1868 25.4363 19.7753 26.9344 19.7753C29.4085 19.7753 31.8528 17.6681 31.8528 15.2904C31.8528 14.8586 31.6324 13.0586 29.0927 13.0586ZM26.5136 19.3219C26.0924 19.3219 25.8402 19.0032 25.8402 18.5086C25.8402 17.0089 27.7291 13.5118 29.3455 13.5118C29.7663 13.5118 30.0189 13.8312 30.0189 14.3251C30.0187 15.825 28.1292 19.3219 26.5136 19.3219Z" fill="white"/>
<path d="M99.0575 13.0586C96.9754 13.0586 93.8583 15.0614 93.9168 17.657C93.9464 18.9627 94.9876 19.7175 96.2975 19.7815C96.8653 19.8093 97.6373 19.7136 98.2357 19.4964C98.4607 19.4143 98.6461 19.3434 98.7995 19.2784L98.6535 18.8766C98.4926 18.9491 98.3034 19.0148 98.0906 19.0542C97.4825 19.1674 96.9583 19.1853 96.5365 18.8775C96.1698 18.61 96.0721 18.0506 96.0721 17.5782C96.0721 17.3535 96.0979 17.0783 96.1475 16.8533C97.3408 16.5593 100.905 15.8259 100.905 14.2003C100.906 13.4047 100.133 13.0586 99.0575 13.0586ZM96.2456 16.3211C96.3909 15.5323 97.0186 14.1027 98.2021 13.6263C98.6244 13.4562 99.3016 13.4897 99.3016 14.0626C99.3018 15.3692 97.7394 15.9817 96.2456 16.3211Z" fill="white"/>
<path d="M107.952 13.137C107.21 12.9399 106.605 13.2015 106.329 13.3611C106.147 13.4669 105.182 14.1322 103.267 16.3635C104.125 14.7667 104.824 13.4702 104.902 13.3399C104.924 13.3018 104.945 13.2683 104.967 13.2315H102.705C101.955 14.5966 100.109 17.9639 99.1621 19.6902H101.484C101.679 19.3482 101.979 18.7875 102.341 18.2914C102.709 17.7885 103.111 17.2894 103.547 16.7931C103.833 16.4682 104.124 16.1641 104.417 15.8793C104.523 15.7757 104.63 15.6741 104.737 15.5758C104.795 15.5253 104.854 15.4762 104.911 15.4283C104.923 15.4191 104.933 15.4108 104.945 15.4013C104.993 15.3617 105.041 15.3234 105.089 15.2862C105.096 15.2812 105.103 15.2759 105.11 15.2704C105.163 15.2295 105.216 15.1896 105.269 15.152C105.271 15.1507 105.272 15.1496 105.273 15.1483C105.33 15.1071 105.387 15.0673 105.443 15.0292C105.445 15.0283 105.445 15.0279 105.447 15.0268C106.041 14.6233 106.617 14.4072 107.017 14.4438C107.543 14.4915 107.82 14.9101 107.849 14.9541L108.617 13.5713C108.487 13.3736 108.314 13.2331 107.952 13.137Z" fill="white"/>
<path d="M80.8103 13.137C80.0684 12.9399 79.4635 13.2015 79.1879 13.3611C79.0051 13.4669 78.041 14.1322 76.126 16.3635C76.9837 14.7667 77.682 13.4702 77.7596 13.3399C77.7822 13.3018 77.8037 13.2683 77.8258 13.2315H75.5632C74.8141 14.5966 72.9672 17.9639 72.0205 19.6902H74.342C74.5374 19.3482 74.8373 18.7875 75.1997 18.2914C75.5671 17.7885 75.9691 17.2894 76.4052 16.7931C76.6919 16.4682 76.9818 16.1641 77.2744 15.8793C77.3812 15.7757 77.4881 15.6741 77.596 15.5758C77.6539 15.5253 77.712 15.4762 77.7694 15.4283C77.7807 15.4191 77.7918 15.4108 77.8026 15.4013C77.8514 15.3617 77.8995 15.3234 77.9473 15.2862C77.9544 15.2812 77.961 15.2759 77.968 15.2704C78.0216 15.2295 78.0744 15.1896 78.1266 15.152C78.1285 15.1507 78.1297 15.1496 78.131 15.1483C78.1885 15.1071 78.2449 15.0673 78.3006 15.0292C78.3019 15.0283 78.3036 15.0279 78.3051 15.0268C78.8989 14.6233 79.475 14.4072 79.8752 14.4438C80.4006 14.4915 80.6777 14.9101 80.7071 14.9541L81.4743 13.5713C81.3452 13.3736 81.1728 13.2331 80.8103 13.137Z" fill="white"/>
<path d="M49.6608 13.2269H47.3416L46.9989 13.8176C46.5678 13.4246 45.9657 13.0586 45.0271 13.0586C42.67 13.0586 39.9562 14.7702 39.9562 17.4201C39.9562 19.186 41.3539 19.7744 42.8516 19.7744C43.0827 19.7744 43.3843 19.7129 43.5905 19.642L42.2222 22.011C42.1424 22.1433 41.8538 22.5903 41.8538 22.5903V22.5908C40.9165 23.9774 39.9196 24.6101 38.7838 24.6101C37.6479 24.6101 36.316 24.1541 36.316 22.9662C36.316 21.7787 37.7024 21.0591 38.787 21.007C39.8217 20.9573 41.0704 21.1257 42.0092 21.5132L42.2597 21.0701C41.2832 20.6003 39.6083 20.4654 38.8991 20.4654C38.19 20.4654 37.2612 20.5996 36.7049 20.7852C33.9615 21.7017 34.3629 23.3169 35.0067 23.9718C35.8189 24.7969 37.3753 25.1695 38.8053 25.1316C39.5063 25.1132 40.1014 24.9911 40.666 24.8363C41.6657 24.5626 42.3946 24.0823 42.3946 24.0823C43.39 23.4227 44.2217 22.4541 44.8932 21.3873C45.1593 20.9394 49.6608 13.2269 49.6608 13.2269ZM42.431 19.3213C42.0098 19.3213 41.7576 19.0025 41.7576 18.5079C41.7576 17.0083 43.6637 13.5118 45.2795 13.5118C45.7007 13.5118 45.958 13.7957 45.958 14.2899C45.9576 15.7895 44.0466 19.3213 42.431 19.3213Z" fill="white"/>
<path d="M40.1972 12.4035C40.9681 12.4035 41.7464 11.7658 41.7181 11.0271C41.6998 10.5525 41.2443 10.332 40.8451 10.332C40.111 10.332 39.2959 10.8443 39.2959 11.6697C39.2957 12.2201 39.7309 12.4035 40.1972 12.4035Z" fill="white"/>
<path d="M38.9103 18.6693C38.2703 19.2085 37.6872 19.4441 37.7876 18.6671C37.8606 18.227 38.0907 17.6165 38.5712 16.7751C38.6851 16.5759 39.5913 15.0204 40.6329 13.2344H38.3175C37.6761 14.3358 37.1619 15.2187 37.0306 15.446C36.7973 15.8493 36.4759 16.4303 36.265 16.9214C36.1065 17.2913 35.876 17.7857 35.876 18.4109C35.876 19.1437 36.4021 19.7412 37.3541 19.7788C38.5114 19.8246 39.0152 19.2103 39.1029 19.1417L38.9103 18.6693Z" fill="white"/>
<path d="M70.5049 18.6616C70.5781 18.2215 70.8084 17.6109 71.2885 16.7696C71.4024 16.5704 72.3086 15.0149 73.3504 13.2289H71.0355C70.8888 13.4802 70.7492 13.7199 70.6194 13.9432C70.5334 13.7394 70.4138 13.5573 70.2561 13.4027C70.0092 13.1617 69.6517 13.0391 69.1943 13.0391C68.4453 13.0391 67.7481 13.1849 67.1209 13.4725C66.4971 13.7593 65.9512 14.1289 65.4987 14.5711C65.045 15.0149 64.6906 15.5114 64.4446 16.0469C64.1966 16.5859 64.0713 17.1643 64.0713 17.6317C64.0713 18.4129 64.2152 19.7864 65.7873 19.7864C67.252 19.7864 68.4221 18.271 68.5532 18.1175C68.5577 18.2176 68.5641 18.2885 68.5711 18.4017C68.5854 18.6342 68.6448 18.8107 68.6863 18.9085C68.8757 19.3943 69.3518 19.7431 70.072 19.7731C71.1736 19.8188 71.7395 19.212 71.8206 19.1356L71.6284 18.6631C70.9876 19.203 70.4044 19.4386 70.5049 18.6616ZM67.6864 18.3665C67.3422 18.6439 67.0741 18.7958 66.8727 18.7958C66.7014 18.7958 66.5963 18.7185 66.5482 18.5942C66.1147 17.4765 67.2661 15.53 67.4599 15.1999C67.76 14.6898 68.2608 14.0249 68.7576 13.7053C69.3413 13.33 69.9964 13.4393 69.9964 14.1438C69.9964 14.6318 69.8941 15.0639 69.6289 15.6925C69.3505 16.3539 68.5969 17.6333 67.6864 18.3665Z" fill="white"/>
<path d="M86.7511 10.0703H84.4343C83.1731 12.2351 81.553 15.0153 81.3042 15.4455C81.071 15.8487 80.7496 16.4295 80.5385 16.9206C80.3801 17.2904 80.1494 17.7849 80.1494 18.41C80.1494 19.1429 80.6764 19.7382 81.6279 19.7783C82.7291 19.824 83.2948 19.2172 83.3763 19.1407L83.1839 18.6683C82.5442 19.2077 81.9612 19.4435 82.061 18.6661C82.1342 18.2263 82.3645 17.6155 82.8447 16.7743C82.9424 16.6038 83.6206 15.4395 84.4671 13.988H86.2857L86.7288 13.2336H84.9066C85.5195 12.1828 86.179 11.0518 86.7511 10.0703Z" fill="white"/>
<path d="M75.323 6.73712C75.2568 4.59666 73.8128 3.1815 71.5602 2.09846C69.5924 1.15181 66.8818 0.97689 64.8055 1.00229C61.4866 1.04301 57.8311 2.03213 55.0275 3.75641C51.8261 5.72545 50.0631 8.57525 50.0631 11.2341C50.0631 13.8779 51.85 15.7647 54.3126 15.7968C56.831 15.829 58.5504 13.5314 58.5504 13.5314L58.1678 13.2886C58.1678 13.2886 57.0613 14.4312 56.058 14.4143C55.2014 14.3996 54.5597 14.1109 54.1072 13.5132C53.6928 12.9659 53.4736 12.1968 53.4736 11.2893C53.4736 8.96516 54.76 6.15937 56.7906 4.45589C58.9193 2.67008 61.7426 1.71774 64.7523 1.67746C66.742 1.65031 68.0479 2.05336 68.7756 2.35592C64.8355 4.39524 62.4878 8.69653 60.4853 12.5462C58.2484 16.8464 56.0363 20.4918 52.6666 20.4918C51.4586 20.4918 50.8986 20.2026 50.4049 20.0162L49.9756 20.7514C50.7337 21.0647 51.675 21.3158 52.703 21.3648C54.0104 21.427 56.672 21.0529 59.3132 19.3352C61.3347 18.0203 62.3673 16.5865 63.1648 15.3266C63.6223 14.603 65.0419 11.8671 65.5389 10.9136C66.895 8.31012 68.331 5.59388 70.3784 3.41554C71.0803 3.91316 71.6732 5.12209 71.6732 6.10814C71.6732 8.76156 69.7365 10.8974 66.4415 11.4533L66.1822 11.9851C72.5837 11.8719 75.4243 10.0327 75.323 6.73712Z" fill="white"/>
<path d="M24.6968 6.54652C24.6968 4.58229 23.8012 3.2037 21.5851 2.09877C19.6298 1.12388 16.9064 0.977195 14.8305 1.00259C11.5112 1.04331 7.85592 2.03243 5.05212 3.75671C1.85076 5.72576 0.0876842 8.57555 0.0876842 11.2344C0.0876842 13.8782 1.8748 15.765 4.33723 15.7969C6.85563 15.8293 8.57506 13.5317 8.57506 13.5317L8.19261 13.2887C8.19261 13.2887 7.08612 14.4317 6.08285 14.4146C5.22643 14.3999 4.58454 14.1114 4.13206 13.5135C3.7179 12.9662 3.49868 12.1971 3.49868 11.2896C3.49868 8.96546 4.78481 6.15967 6.81561 4.45619C8.94432 2.67039 11.7675 1.71805 14.7775 1.67777C16.767 1.65062 18.073 2.05367 18.8006 2.35623C14.8684 4.39183 12.6729 8.41508 10.5224 12.5244C8.5125 16.3642 6.23991 20.4846 2.69143 20.4923C1.48341 20.4951 0.923249 20.2031 0.4297 20.0168L0 20.7519C0.758307 21.0652 1.69965 21.3163 2.72782 21.3654C4.03331 21.4271 6.7358 21.0431 9.32784 19.3422C11.2801 18.0606 12.3921 16.587 13.1898 15.3273C13.6472 14.604 15.067 11.8678 15.5635 10.9144C16.9199 8.31087 18.3213 5.62089 20.3689 3.44255C20.9212 4.04855 21.1798 4.7975 21.1798 5.78377C21.1798 8.59854 19.3152 10.5577 16.0207 11.1138L15.761 11.6456C15.761 11.6456 16.0924 11.5758 16.5738 11.5758C18.0323 11.5758 19.6009 12.4101 19.5902 14.7522C19.5864 15.6141 19.3844 17.022 18.333 18.6218C17.6403 19.6752 16.6327 20.4649 15.2355 20.7316C13.7308 21.0188 12.5056 20.871 11.2829 20.1219C11.1884 20.0641 10.9202 19.8944 10.7155 19.7262C10.6342 19.7884 10.1606 20.1534 10.0283 20.2554C10.9319 21.0847 12.6526 21.7325 14.8224 21.7325C16.846 21.7325 18.9598 21.1977 20.6946 20.0038C22.6581 18.6526 23.5314 16.9128 23.5314 15.1066C23.5314 12.9084 22.1922 11.532 19.7247 11.1456C21.9871 10.6869 24.6968 9.38384 24.6968 6.54652Z" fill="white"/>
</g>
<defs>
<clipPath id="clip0_8845_13351">
<rect width="109" height="25" fill="white" transform="translate(0 0.5)"/>
</clipPath>
</defs>
</svg>
