<svg width="33" height="32" viewBox="0 0 33 32" fill="none" xmlns="http://www.w3.org/2000/svg">
<rect x="4.45801" y="3.625" width="24.75" height="24.75" rx="12.375" stroke="#00231D" stroke-width="1.25"/>
<path d="M18.8643 15.4844L20.9666 10H22.4634L24.5581 15.4844H23.2937L21.7093 10.8531L20.1287 15.4844H18.8643ZM20.2392 13.9838V13.0431H23.1718V13.9838H20.2392Z" fill="#00231D"/>
<path d="M16.1701 15.4844V13.4239L14.2734 10H15.515L16.8442 12.6508H16.669L17.9982 10H19.2398L17.347 13.4163V15.4844H16.1701Z" fill="#00231D"/>
<path d="M9.37402 15.4844V10H11.8039C12.4285 10 12.8995 10.1143 13.2169 10.3428C13.5343 10.5688 13.693 10.8988 13.693 11.333C13.693 11.6123 13.6358 11.837 13.5216 12.0071C13.4073 12.1772 13.2639 12.3055 13.0912 12.3918C12.9186 12.4756 12.7446 12.5302 12.5694 12.5556L12.5809 12.5403C12.977 12.6038 13.2905 12.7549 13.5216 12.9936C13.7552 13.2297 13.872 13.5572 13.872 13.9762C13.872 14.3545 13.7818 14.6541 13.6016 14.875C13.4238 15.0959 13.1877 15.2533 12.8932 15.3473C12.5986 15.4387 12.2774 15.4844 11.9296 15.4844H9.37402ZM10.5509 14.5703H11.7239C11.9778 14.5703 12.1733 14.5348 12.3104 14.4637C12.4501 14.39 12.5466 14.2948 12.5999 14.178C12.6558 14.0587 12.6837 13.9292 12.6837 13.7896C12.6837 13.6271 12.6469 13.4874 12.5732 13.3706C12.5021 13.2513 12.3879 13.1586 12.2305 13.0926C12.0756 13.0266 11.8699 12.9936 11.6135 12.9936H10.5509V14.5703ZM10.5509 12.129H11.7163C11.9626 12.129 12.1568 12.082 12.299 11.9881C12.4412 11.8916 12.5123 11.7354 12.5123 11.5196C12.5123 11.3394 12.4552 11.1934 12.3409 11.0816C12.2267 10.9699 12.0248 10.9141 11.7354 10.9141H10.5509V12.129Z" fill="#00231D"/>
<path d="M15.4474 21.3552C14.9979 21.3552 14.6514 21.2079 14.4076 20.9134C14.1639 20.6163 14.042 20.1936 14.042 19.6451C14.042 19.0967 14.1639 18.6752 14.4076 18.3807C14.6514 18.0836 14.9979 17.9351 15.4474 17.9351C15.9019 17.9351 16.2497 18.0836 16.4909 18.3807C16.7321 18.6777 16.8527 19.0992 16.8527 19.6451C16.8527 20.1936 16.7321 20.6163 16.4909 20.9134C16.2497 21.2079 15.9019 21.3552 15.4474 21.3552ZM15.4474 20.582C15.7013 20.582 15.8282 20.2697 15.8282 19.6451C15.8282 19.023 15.7013 18.712 15.4474 18.712C15.1935 18.712 15.0665 19.023 15.0665 19.6451C15.0665 20.2697 15.1935 20.582 15.4474 20.582ZM15.7978 23.6594L15.3293 23.3242L19.1988 17.8398L19.6711 18.175L15.7978 23.6594ZM19.5188 23.5489C19.0693 23.5489 18.7228 23.4017 18.479 23.1071C18.2353 22.8101 18.1134 22.3873 18.1134 21.8389C18.1134 21.2904 18.2353 20.8689 18.479 20.5744C18.7228 20.2773 19.0693 20.1288 19.5188 20.1288C19.9732 20.1288 20.3211 20.2773 20.5623 20.5744C20.8035 20.8715 20.9241 21.293 20.9241 21.8389C20.9241 22.3873 20.8035 22.8101 20.5623 23.1071C20.3211 23.4017 19.9732 23.5489 19.5188 23.5489ZM19.5188 22.7758C19.7727 22.7758 19.8996 22.4635 19.8996 21.8389C19.8996 21.2168 19.7727 20.9058 19.5188 20.9058C19.2648 20.9058 19.1379 21.2168 19.1379 21.8389C19.1379 22.4635 19.2648 22.7758 19.5188 22.7758Z" fill="#00231D"/>
</svg>
