<svg width="88" height="88" viewBox="0 0 88 88" fill="none" xmlns="http://www.w3.org/2000/svg">
<rect x="4" y="4" width="80" height="80" rx="40" fill="#EFF1F5"/>
<rect x="4" y="4" width="80" height="80" rx="40" stroke="#F9F9FB" stroke-width="8"/>
<g clip-path="url(#clip0_270_16215)">
<path d="M58.5598 28.7998H29.4398C29.0878 28.7998 28.7998 29.0878 28.7998 29.4398V58.5598C28.7998 58.9118 29.0878 59.1998 29.4398 59.1998H58.5598C58.9118 59.1998 59.1998 58.9118 59.1998 58.5598V29.4398C59.1998 29.0878 58.9118 28.7998 58.5598 28.7998ZM57.9198 57.9198H30.0798V30.0798H57.9518V57.9198H57.9198Z" fill="#404968"/>
<path d="M38.3161 43.6759L35.623 46.3682L43.6998 54.4472L46.3928 51.755L38.3161 43.6759Z" fill="#404968"/>
<path d="M53.5361 53.5679L56.8641 56.8639V51.4879L56.2241 50.8799L53.5361 53.5679Z" fill="#404968"/>
<path d="M52.6402 47.2637L44.5762 55.3597L46.0802 56.8637H48.4482L55.3282 49.9517L52.6402 47.2637Z" fill="#404968"/>
<path d="M50.2402 56.8639H55.0722L52.6402 54.4639L50.2402 56.8639Z" fill="#404968"/>
<path d="M32.3193 56.8636H37.1193L34.7193 54.4316L32.3193 56.8636Z" fill="#404968"/>
<path d="M53.5361 46.3677L56.8641 49.6957V44.3197L56.2241 43.6797L53.5361 46.3677Z" fill="#404968"/>
<path d="M35.6162 53.5357L38.9122 56.8637H44.2882L38.3042 50.8477L35.6162 53.5357Z" fill="#404968"/>
<path d="M52.6619 40.0949L44.584 48.1729L47.2766 50.8655L55.3545 42.7876L52.6619 40.0949Z" fill="#404968"/>
<path d="M38.3167 36.5066L35.624 39.1992L43.7019 47.2771L46.3946 44.5845L38.3167 36.5066Z" fill="#404968"/>
<path d="M45.4717 31.1357H41.8877L43.6797 32.9277L45.4717 31.1357Z" fill="#404968"/>
<path d="M34.7197 32.9277L31.1357 36.5117V41.8877L37.4077 35.6157L34.7197 32.9277Z" fill="#404968"/>
<path d="M34.7197 40.0957L31.1357 43.6797V49.0557L37.4077 42.7837L34.7197 40.0957Z" fill="#404968"/>
<path d="M34.7197 47.2637L31.1357 50.8477V56.2237L37.4077 49.9517L34.7197 47.2637Z" fill="#404968"/>
<path d="M31.1357 31.1357V34.7197L34.7197 31.1357H31.1357Z" fill="#404968"/>
<path d="M53.5361 39.1997L56.8641 42.5277V37.1517L56.2241 36.5117L53.5361 39.1997Z" fill="#404968"/>
<path d="M46.3682 37.4077L40.0962 31.1357H36.5122L35.6162 32.0317L43.6802 40.0957L46.3682 37.4077Z" fill="#404968"/>
<path d="M56.8641 31.1357H54.4321L53.5361 32.0317L56.8641 35.3597V31.1357Z" fill="#404968"/>
<path d="M47.2642 43.6797L55.3282 35.6157L52.6402 32.9277L44.5762 40.9917L47.2642 43.6797Z" fill="#404968"/>
<path d="M47.2642 36.5117L52.6402 31.1357H47.2642L44.5762 33.8237L47.2642 36.5117Z" fill="#404968"/>
</g>
<defs>
<clipPath id="clip0_270_16215">
<rect width="32" height="32" fill="white" transform="translate(28 28)"/>
</clipPath>
</defs>
</svg>
