<svg width="88" height="88" viewBox="0 0 88 88" fill="none" xmlns="http://www.w3.org/2000/svg">
<rect x="4" y="4" width="80" height="80" rx="40" fill="#EFF1F5"/>
<rect x="4" y="4" width="80" height="80" rx="40" stroke="#F9F9FB" stroke-width="8"/>
<path d="M57.7768 42.4116L44.5829 30.1346C44.3058 29.8747 43.9433 29.7305 43.567 29.7305C43.1908 29.7305 42.8282 29.8747 42.5511 30.1346L29.3573 42.4116C29.1326 42.6207 28.9751 42.8943 28.9054 43.1965C28.8357 43.4987 28.8571 43.8153 28.9668 44.1049C29.0765 44.3944 29.2694 44.6433 29.5202 44.8189C29.7709 44.9945 30.0678 45.0885 30.3718 45.0887H32.4777V57.3744C32.4777 57.6059 32.5677 57.828 32.7281 57.9917C32.8884 58.1554 33.1058 58.2474 33.3326 58.2474H40.5763C40.8031 58.2474 41.0205 58.1554 41.1808 57.9917C41.3412 57.828 41.4312 57.6059 41.4312 57.3744V49.9192H45.6914V57.3744C45.6914 57.6059 45.7815 57.828 45.9418 57.9917C46.1022 58.1554 46.3196 58.2474 46.5463 58.2474H53.7901C54.0168 58.2474 54.2343 58.1554 54.3946 57.9917C54.5549 57.828 54.645 57.6059 54.645 57.3744V45.0887H56.7537C57.0578 45.0885 57.3546 44.9945 57.6054 44.8189C57.8561 44.6433 58.049 44.3944 58.1587 44.1049C58.2684 43.8153 58.2899 43.4987 58.2202 43.1965C58.1505 42.8943 57.9929 42.6207 57.7682 42.4116H57.7768ZM54.4284 31.4935H48.6209L55.2919 37.6888V32.3752C55.293 32.2591 55.2715 32.144 55.2285 32.0365C55.1855 31.929 55.1219 31.8313 55.0415 31.7492C54.9611 31.6671 54.8655 31.6022 54.7602 31.5583C54.6549 31.5144 54.5421 31.4924 54.4284 31.4935Z" fill="#404968"/>
</svg>
