<svg width="158" height="49" viewBox="0 0 158 49" fill="none" xmlns="http://www.w3.org/2000/svg">
<g clip-path="url(#clip0_4200_16579)">
<path fill-rule="evenodd" clip-rule="evenodd" d="M38.1257 31.5371C38.132 31.8786 38.132 32.189 38.1195 32.4746C38.1071 32.7602 38.0511 33.0334 37.9515 33.3066C37.8831 33.4928 37.7897 33.648 37.6715 33.7723C37.5532 33.8964 37.4102 34.002 37.2422 34.0889H40.8452C41.4301 34.1013 42.0212 34.0889 42.6249 34.064C43.2285 34.0392 43.8072 33.9337 44.3735 33.7598C45.2011 33.4928 45.9042 33.0334 46.4955 32.3753C47.0866 31.7233 47.3977 30.8852 47.4226 29.8731C47.4102 29.2212 47.236 28.6624 46.9061 28.1844C46.5763 27.7063 46.1594 27.3275 45.6678 27.0357C45.1762 26.7501 44.6784 26.5576 44.1805 26.4769C44.2988 26.4335 44.5104 26.3217 44.8278 26.1416C45.1389 25.9616 45.4375 25.6946 45.7176 25.3531C45.9976 25.0055 46.147 24.5584 46.1656 24.0182C46.1594 23.1242 45.8109 22.404 45.1202 21.8576C44.4295 21.3112 43.4462 21.0318 42.1706 21.0194C42.0648 21.0194 41.7599 21.0194 41.262 21.0194C40.7642 21.0194 40.2042 21.0194 39.5881 21.0194C38.9721 21.0194 38.4307 21.0194 37.9765 21.0194C37.516 21.0194 37.2795 21.0194 37.2546 21.0194C37.404 21.0939 37.5346 21.187 37.6466 21.2926C37.7586 21.4044 37.852 21.5409 37.9205 21.7024C38.0387 21.9942 38.1071 22.2984 38.1257 22.6213C38.1383 22.9441 38.1445 23.2608 38.1383 23.565V31.5371H38.1257ZM40.1295 22.3791C40.1544 22.3729 40.3037 22.3543 40.5713 22.3232C40.8389 22.286 41.0878 22.2674 41.3118 22.2612C42.2266 22.2736 42.8987 22.4598 43.3405 22.8137C43.7761 23.1676 43.9939 23.6022 43.9939 24.1176C43.969 24.7943 43.745 25.291 43.328 25.6015C42.9111 25.9119 42.463 26.1044 41.9777 26.1851C41.4985 26.2658 41.15 26.2968 40.9385 26.2844C40.87 26.2844 40.7331 26.2844 40.534 26.2782C40.3349 26.272 40.198 26.272 40.1295 26.2658V22.3791ZM40.1295 27.5883C40.142 27.5883 40.2353 27.5821 40.4157 27.5697C40.5963 27.5573 40.7829 27.5449 40.9882 27.5324C41.1936 27.52 41.3368 27.5138 41.4301 27.5138C42.8115 27.5324 43.7823 27.7994 44.3486 28.3023C44.9148 28.8114 45.1887 29.4385 45.17 30.1835C45.1451 30.9224 44.9335 31.4688 44.529 31.8289C44.1245 32.189 43.6703 32.4312 43.1663 32.5429C42.6622 32.6547 42.2452 32.7105 41.9217 32.6981C41.6167 32.6981 41.3181 32.6795 41.0194 32.6485C40.7207 32.6174 40.4283 32.574 40.1295 32.5243V27.5883Z" fill="#2B2B2B"/>
<path d="M54.9991 32.4807V21.0131C54.663 21.0131 52.1055 21.0131 52.1055 21.0131C52.2548 21.0876 52.3856 21.1869 52.4975 21.2987C52.6095 21.4104 52.7029 21.547 52.7713 21.7022C52.8895 21.994 52.9581 22.2983 52.9767 22.6211C52.9891 22.944 52.9953 23.2606 52.9891 23.5649V31.5431C52.9953 31.8412 52.9953 32.1392 52.9829 32.4372C52.9705 32.7352 52.9145 33.0271 52.8149 33.3064C52.7465 33.4927 52.6531 33.648 52.5349 33.7721C52.4166 33.8963 52.2736 34.0019 52.1055 34.0887H60.2511L61.2965 31.4625C61.141 31.5742 60.9792 31.6798 60.8112 31.7915C60.6432 31.9033 60.4814 32.0026 60.3133 32.0896C59.9462 32.2758 59.5604 32.4248 59.1497 32.5241C58.7452 32.6235 58.3346 32.6794 57.93 32.6794C56.9468 32.6794 55.9698 32.6111 54.9991 32.4807Z" fill="#2B2B2B"/>
<path d="M67.9874 34.0639V23.5587C67.9812 23.2731 67.9874 21.3173 67.9998 21.0131C67.863 21.0131 65.0938 21.0131 65.0938 21.0131C65.2431 21.0876 65.3738 21.1869 65.4858 21.2987C65.5978 21.4104 65.6912 21.547 65.7596 21.7022C65.8778 21.994 65.9463 22.2983 65.965 22.6211C65.9774 22.944 65.9837 23.2606 65.9774 23.5649V31.5431C65.9837 31.8412 65.9837 32.1392 65.9712 32.4372C65.9588 32.7414 65.9028 33.0271 65.8032 33.3064C65.7348 33.4927 65.6414 33.648 65.5232 33.7721C65.4049 33.8963 65.2618 34.0019 65.0938 34.0887C65.1001 34.0887 67.6265 34.0639 67.9874 34.0639Z" fill="#2B2B2B"/>
<path d="M76.9313 23.8132L83.9195 32.6546C84.3053 33.145 84.7098 33.561 85.1329 33.9025C85.556 34.244 86.0663 34.5234 86.6513 34.7345V21.0131C86.0663 21.0131 84.1559 21.0131 84.1559 21.0131C84.5978 21.3049 84.884 21.6401 85.0147 22.0189C85.1515 22.3976 85.2075 22.8384 85.1951 23.3476V31.1148L77.8335 21.7643C77.7403 21.6464 77.6531 21.5284 77.566 21.4104C77.4789 21.2862 77.4104 21.1559 77.3606 21.0255H74.4297C74.8716 21.3173 75.1578 21.6526 75.2885 22.0313C75.4253 22.41 75.4813 22.8509 75.4689 23.36V31.7729C75.4813 32.282 75.4191 32.7228 75.2885 33.1015C75.1515 33.4803 74.8653 33.8156 74.4297 34.1074C74.4297 34.1074 76.5205 34.1074 76.925 34.0887V23.8132H76.9313Z" fill="#2B2B2B"/>
<path d="M96.4844 27.2841C96.8577 27.7684 97.2249 28.2588 97.5858 28.7618C97.9467 29.2647 98.3077 29.7613 98.6686 30.2643C99.2037 31.0156 99.745 31.7544 100.305 32.4808C100.442 32.6609 100.579 32.8348 100.716 33.0024C100.853 33.17 100.996 33.3314 101.151 33.4804C101.419 33.735 101.718 33.915 102.054 34.0268C102.384 34.1386 102.739 34.1883 103.099 34.1883C103.416 34.1883 103.733 34.1821 104.064 34.1696C104.387 34.1572 104.711 34.1324 105.029 34.0889C104.662 33.8467 104.3 33.5922 103.946 33.3252C103.591 33.0582 103.255 32.7726 102.937 32.4622C102.508 32.0276 102.104 31.5619 101.724 31.0652C101.344 30.5685 100.977 30.078 100.616 29.5813L99.0046 27.4268L98.6126 26.8805L103.199 21.0194H99.6143C99.77 21.1125 99.9072 21.2305 100.031 21.3671C100.156 21.5037 100.218 21.6713 100.224 21.8638C100.199 22.1308 100.075 22.4412 99.8451 22.7951C99.6143 23.149 99.4094 23.4346 99.2411 23.6519L96.4844 27.2841Z" fill="#2B2B2B"/>
<path d="M93.2539 21.0131C93.4033 21.1 93.534 21.1931 93.646 21.3049C93.758 21.4104 93.8513 21.547 93.9198 21.696C94.038 21.9878 94.1065 22.2921 94.1251 22.6149C94.1376 22.9378 94.1438 23.2544 94.1376 23.5587V31.5369C94.1438 31.835 94.1438 32.133 94.1313 32.4372C94.1189 32.7414 94.0629 33.0333 93.9633 33.3188C93.8949 33.4927 93.8016 33.6418 93.6834 33.7659C93.5651 33.89 93.422 33.9956 93.2539 34.0825C93.2539 34.0825 95.7244 34.1074 96.1476 34.0639V21.0131C95.6435 21.0131 93.2539 21.0131 93.2539 21.0131Z" fill="#2B2B2B"/>
<path d="M117.21 27.7186V31.3134C117.21 32.2075 117.093 33.6603 118.088 34.0391V34.1012H114.305V34.0391C115.3 33.6603 115.182 32.2137 115.182 31.3134V23.8008C115.182 22.9067 115.319 21.4539 114.305 21.0752V21.0131H118.088V21.0752C117.093 21.4539 117.21 22.9005 117.21 23.8194V26.2843H124.397V23.8194C124.397 22.9067 124.535 21.4539 123.52 21.0752V21.0131H127.322V21.0752C126.308 21.4539 126.427 22.9005 126.427 23.8008V31.3134C126.427 32.2075 126.308 33.6603 127.322 34.0391V34.1012H123.52V34.0391C124.535 33.6603 124.397 32.2137 124.397 31.3134V27.7186H117.21Z" fill="#2B2B2B"/>
<path d="M140.853 32.7848C139.975 33.9396 138.346 34.4115 136.951 34.4115C135.638 34.4115 134.245 33.9955 133.348 33.0207C132.291 31.8658 132.334 30.5372 132.334 29.103V23.7945C132.334 22.9004 132.471 21.4475 131.457 21.0688V21.0067H135.241V21.0688C134.245 21.4475 134.363 22.8942 134.363 23.7945V29.103C134.363 31.7479 135.477 32.9773 137.531 32.9773C138.644 32.9773 139.783 32.5178 140.436 31.5865C140.872 30.9904 140.853 30.4937 140.853 29.7797V23.8007C140.853 22.9066 140.971 21.4537 139.975 21.075V21.0129H143.759L143.778 21.075C142.763 21.4537 142.882 22.9004 142.882 23.8193V31.3133C142.882 32.2074 142.763 33.6602 143.778 34.0389V34.1011H140.847V32.7848H140.853Z" fill="#2B2B2B"/>
<path d="M156.028 23.3847C155.25 22.59 154.018 22.1305 152.898 22.1305C151.765 22.1305 150.328 22.5652 150.328 23.9373C150.328 26.6567 157.179 26.6194 157.179 30.2951C157.179 32.4185 154.951 34.4115 151.84 34.4115C150.627 34.4115 149.413 34.2314 148.275 33.8154L147.695 31.3319C148.872 32.344 150.502 32.9835 152.057 32.9835C153.19 32.9835 154.907 32.3067 154.907 30.9159C154.907 27.8178 148.057 28.3703 148.057 24.1608C148.057 21.6587 150.627 20.7025 153.053 20.7025C154.049 20.7025 155.063 20.8391 156.022 21.1371V23.3847H156.028Z" fill="#2B2B2B"/>
<path fill-rule="evenodd" clip-rule="evenodd" d="M10.6317 30.5312C11.5091 32.0958 12.1999 34.2441 14.216 35.7776C14.9814 36.3613 16.2447 36.0509 17.1657 36.3302C18.3355 36.6842 19.7543 37.2864 21.1295 36.8704C23.9236 36.026 26.282 34.3497 27.2652 32.6298C27.8502 31.6054 27.844 30.7858 27.8937 29.5689C27.9497 28.2091 28.3605 26.2658 27.844 24.7757C27.2341 23.031 24.9255 21.0194 21.951 21.9445C21.2602 22.1618 19.8103 22.286 18.9454 22.702C16.6802 23.7947 15.4046 26.123 16.4811 29.2088C16.7052 29.8421 19.1756 30.6306 20.7873 30.196C21.7332 29.9414 22.119 28.0477 21.8141 27.1909C21.7332 26.9488 21.2665 26.1789 20.8682 26.1416C20.501 26.1044 20.1837 26.1603 19.9472 26.3093C19.6797 26.4831 19.4743 26.4334 19.2876 26.7253C19.1632 26.924 18.9142 27.998 19.4494 28.3705C19.8913 28.681 18.4413 28.6624 18.2235 27.5944C17.9372 25.4648 18.8333 25.0985 20.1899 24.6205C21.6648 24.0927 23.8178 24.1113 24.4401 25.8871C25.2118 28.0912 24.1663 31.742 20.7997 32.2386C18.46 32.5802 15.3984 32.667 14.4836 30.0408C14.4836 30.0408 13.9049 28.7307 13.8178 28.1471C13.7618 27.2716 14.104 26.1354 14.1414 25.2475C14.2845 22.5405 17.4457 20.7834 20.2086 20.0073C20.7375 19.8583 23.096 19.4237 23.9672 19.4237C23.9672 19.4237 23.8862 18.6414 22.9466 17.8281C22.1065 17.2693 20.7873 15.953 18.5783 16.5677C17.8875 16.7602 17.371 16.5739 16.4189 17.1078C15.7593 17.4804 15.2366 17.9336 14.4898 18.1758C13.3573 18.5421 11.5776 19.4486 11.0051 20.7276C10.2272 22.4412 10.2272 23.3725 9.9161 24.6391C9.4805 26.4148 9.14447 27.8801 10.6317 30.5312ZM8.97646 33.2569C8.17993 31.4874 8.68398 31.773 7.72568 29.6807C5.75927 23.5712 6.8856 19.3741 13.4195 15.8413C15.0001 14.8975 16.811 14.7423 18.8894 14.4505C19.5614 14.3574 22.679 14.941 24.1538 15.9654C24.9441 16.5056 25.89 18.0205 26.2572 19.3368C26.3069 19.5044 27.5142 19.9639 27.9622 20.3612C29.4681 21.6775 29.7232 22.8323 30.302 24.2542C30.9616 25.8808 30.6379 26.5017 31.1482 28.383C31.8887 31.5184 28.3729 36.4979 25.218 37.4541C24.0916 37.7955 22.8222 38.8945 21.5714 39.0372C11.8452 40.1735 11.7394 38.0749 8.97646 33.2569Z" fill="#2B2B2B"/>
</g>
<defs>
<clipPath id="clip0_4200_16579">
<rect width="151.644" height="23.1012" fill="white" transform="translate(6.03516 15.7665)"/>
</clipPath>
</defs>
</svg>
