<svg width="88" height="88" viewBox="0 0 88 88" fill="none" xmlns="http://www.w3.org/2000/svg">
<rect x="4" y="4" width="80" height="80" rx="40" fill="#EFF1F5"/>
<rect x="4" y="4" width="80" height="80" rx="40" stroke="#F9F9FB" stroke-width="8"/>
<path d="M30.035 32C29.462 32 29 32.446 29 33V35C29 35.554 29.462 36 30.035 36H31V57H32V43.5H56V57H57V36H57.965C58.538 36 59 35.554 59 35V33C59 32.446 58.538 32 57.965 32H30.035ZM32 37H56V38H32V37ZM32 39H56V40H32V39ZM32 41H56V42H32V41ZM42.23 48.4C41.87 48.4 41.53 48.39 41.156 48.518C40.782 48.642 40.426 48.89 40.012 49.307L37.969 51.319H37.963L37.881 51.399H39.248L40.688 49.981H40.689C41.046 49.622 41.267 49.488 41.459 49.424C41.651 49.36 41.865 49.358 42.231 49.358H44.5V50.382C44.5 50.94 44.108 51.401 43.625 51.401H37.959L34.385 52.387C33.92 52.516 33.512 52.848 33.512 53.407V53.901H33.984C34.661 53.891 34.661 54.911 33.984 54.901H33.512V55.391C33.512 55.95 33.902 56.411 34.385 56.411H36.02C36.014 56.351 36 56.294 36 56.233C36 55.155 36.912 54.291 38 54.291C39.088 54.291 40 55.155 40 56.233C40 56.293 39.986 56.351 39.98 56.41H48.02C48.014 56.35 48 56.293 48 56.233C48 55.155 48.912 54.291 50 54.291C51.088 54.291 52 55.155 52 56.233C52 56.293 51.986 56.351 51.98 56.41H53.613C54.097 56.41 54.488 55.95 54.488 55.39V52.41C54.488 51.87 54.119 51.425 53.658 51.4H53.656C53.642 51.4 53.63 51.39 53.616 51.39H51.848L51.705 51.26C51.705 51.26 50.225 49.852 49.457 49.191L49.478 49.214C48.988 48.702 48.592 48.402 47.728 48.402H42.23V48.4ZM46.5 49.36H47.63C48.053 49.36 48.391 49.5 48.777 49.903L48.789 49.915L50.412 51.401H47.375C46.892 51.401 46.5 50.94 46.5 50.381V49.36ZM42.95 52.9H44C44.676 52.89 44.676 53.91 44 53.9H43C42.333 53.935 42.283 52.935 42.95 52.9ZM46.455 52.9H47.505C48.182 52.89 48.182 53.91 47.505 53.9H46.505C45.839 53.935 45.789 52.935 46.455 52.9ZM53.938 53.9H54.477V54.9H53.988C53.322 54.935 53.271 53.935 53.938 53.9ZM37.875 55.12C37.305 55.12 36.875 55.544 36.875 56.06C36.875 56.577 37.305 57 37.875 57C38.445 57 38.875 56.577 38.875 56.06C38.875 55.544 38.445 55.12 37.875 55.12ZM49.93 55.12C49.359 55.12 48.93 55.544 48.93 56.06C48.93 56.577 49.359 57 49.93 57C50.5 57 50.93 56.577 50.93 56.06C50.93 55.544 50.5 55.12 49.93 55.12Z" fill="#404968"/>
</svg>
