<svg width="60" height="60" viewBox="0 0 60 60" fill="none" xmlns="http://www.w3.org/2000/svg">
<rect width="60" height="60" rx="30" fill="#006555"/>
<path d="M24.6654 30.0002H24.6772M29.9987 30.0002H30.0105M35.332 30.0002H35.3439M29.9987 40.6668C35.8897 40.6668 40.6654 35.8912 40.6654 30.0002C40.6654 24.1091 35.8897 19.3335 29.9987 19.3335C24.1077 19.3335 19.332 24.1091 19.332 30.0002C19.332 31.419 19.6091 32.7731 20.112 34.0114C20.2082 34.2484 20.2563 34.3669 20.2778 34.4627C20.2988 34.5564 20.3065 34.6258 20.3065 34.7218C20.3065 34.8199 20.2887 34.9269 20.253 35.1407L19.5503 39.3575C19.4767 39.7991 19.4399 40.0198 19.5083 40.1795C19.5683 40.3192 19.6796 40.4306 19.8194 40.4905C19.979 40.559 20.1998 40.5222 20.6414 40.4486L24.8581 39.7458C25.072 39.7102 25.1789 39.6923 25.2771 39.6924C25.3731 39.6924 25.4424 39.7001 25.5361 39.7211C25.6319 39.7425 25.7504 39.7907 25.9874 39.8869C27.2257 40.3898 28.5799 40.6668 29.9987 40.6668ZM25.258 30.0002C25.258 30.3274 24.9926 30.5928 24.6654 30.5928C24.3381 30.5928 24.0728 30.3274 24.0728 30.0002C24.0728 29.6729 24.3381 29.4076 24.6654 29.4076C24.9926 29.4076 25.258 29.6729 25.258 30.0002ZM30.5913 30.0002C30.5913 30.3274 30.326 30.5928 29.9987 30.5928C29.6714 30.5928 29.4061 30.3274 29.4061 30.0002C29.4061 29.6729 29.6714 29.4076 29.9987 29.4076C30.326 29.4076 30.5913 29.6729 30.5913 30.0002ZM35.9246 30.0002C35.9246 30.3274 35.6593 30.5928 35.332 30.5928C35.0047 30.5928 34.7394 30.3274 34.7394 30.0002C34.7394 29.6729 35.0047 29.4076 35.332 29.4076C35.6593 29.4076 35.9246 29.6729 35.9246 30.0002Z" stroke="#F2F8FF" stroke-width="1.5" stroke-linecap="round" stroke-linejoin="round"/>
</svg>
