<svg width="24" height="24" viewBox="0 0 24 24" fill="none" xmlns="http://www.w3.org/2000/svg">
<path fill-rule="evenodd" clip-rule="evenodd" d="M12.0035 1C11.9127 0.999829 11.8212 1.01025 11.7311 1.03146H11.7303C11.5526 1.07339 11.3866 1.15624 11.2462 1.27317L10.7199 1.71203C10.6994 1.68218 10.6775 1.65287 10.6539 1.62454C10.4541 1.38453 10.167 1.23258 9.85596 1.20411C9.82297 1.20097 9.78388 1.1984 9.73934 1.19872C9.46713 1.20068 9.20348 1.29774 8.99358 1.47263L5.89697 4.05364C5.4 4.46744 5.33228 5.21744 5.74659 5.71397C5.77024 5.74233 5.7953 5.76899 5.82101 5.79453L1.81829 9.12975C1.32134 9.54355 1.25358 10.2935 1.66791 10.7901C2.0817 11.287 2.83172 11.3548 3.32824 10.9405L3.75177 10.5875V12.4964C3.06727 12.7406 2.57328 13.3948 2.57328 14.1606C2.57328 14.9264 3.06727 15.5805 3.75177 15.8247V17.2104C3.06727 17.4546 2.57328 18.1087 2.57328 18.8745C2.57328 19.6404 3.06727 20.2945 3.75177 20.5387V22.6064C3.7518 22.8234 3.92766 22.9992 4.1446 22.9993H19.8578C20.0748 22.9992 20.2506 22.8234 20.2506 22.6064V20.5387C20.9352 20.2945 21.4291 19.6404 21.4291 18.8745C21.4291 18.1087 20.9352 17.4546 20.2506 17.2104V15.8247C20.9352 15.5805 21.4291 14.9264 21.4291 14.1606C21.4291 13.3948 20.9352 12.7406 20.2506 12.4964V10.5875L20.6742 10.9405C21.1707 11.3548 21.9207 11.287 22.3345 10.7901C22.7488 10.2935 22.6811 9.54355 22.1841 9.12975L20.2506 7.51853V2.94497C20.6957 2.85249 21.0363 2.45296 21.0363 1.98285C21.0363 1.44557 20.5915 1.00077 20.0542 1.00077H16.5188C15.9815 1.00077 15.5367 1.44557 15.5367 1.98285C15.5367 2.45296 15.8773 2.85249 16.3223 2.94497V4.24469L12.7562 1.27314C12.543 1.09543 12.2758 1.00052 12.0035 1ZM12.0019 1.7849C12.0926 1.78494 12.1815 1.81667 12.2528 1.8762L21.6808 9.73281C21.8512 9.87472 21.8735 10.1165 21.7314 10.2868C21.5895 10.4572 21.3477 10.4795 21.1774 10.3374L14.217 4.53624C13.9612 4.32293 13.5727 4.5047 13.5725 4.83777V5.12549C13.5725 5.2411 13.4917 5.3219 13.3761 5.3219C13.2605 5.3219 13.1797 5.2411 13.1797 5.12549V3.85569C13.1797 3.73923 13.128 3.62878 13.0385 3.55417L12.2529 2.89971C12.1071 2.77813 11.8953 2.77813 11.7496 2.89971L10.0371 4.32678V3.67232C10.1926 3.54275 10.3479 3.41306 10.5035 3.28333C10.7256 3.09819 10.8608 2.84581 10.9064 2.579L11.7496 1.8762C11.7964 1.83719 11.8512 1.80962 11.9107 1.79564H11.9115C11.9416 1.78853 11.9717 1.7849 12.0019 1.7849ZM9.74547 1.98438C9.75262 1.98432 9.76491 1.98466 9.78384 1.98673C9.88779 1.99624 9.98333 2.0461 10.0501 2.12637L10.0509 2.12716C10.1927 2.29738 10.1704 2.53847 10.0002 2.68034C9.79783 2.84909 9.59519 3.01783 9.39257 3.18673C9.30314 3.26134 9.25144 3.37179 9.2514 3.48826V5.3219C9.2514 5.43751 9.17059 5.51832 9.05498 5.51832C8.93937 5.51832 8.85857 5.43751 8.85857 5.3219V4.47026C8.8584 4.13719 8.46987 3.95542 8.21408 4.16873C7.77696 4.53295 7.33992 4.89726 6.90286 5.26129C6.73264 5.40311 6.49155 5.38083 6.34967 5.21065C6.20757 5.04036 6.22986 4.79862 6.40031 4.6567L9.49692 2.07568C9.56743 2.01693 9.65589 1.98506 9.74547 1.98438ZM8.07291 5.30886V5.3219C8.07291 5.51078 8.13019 5.68678 8.22482 5.83749L6.24379 7.48861C6.13861 7.57652 6.08685 7.71289 6.10722 7.84845C6.1084 7.8556 6.10879 7.86405 6.10879 7.87533V9.05382C6.10879 9.16943 6.02799 9.25023 5.91238 9.25023C5.79677 9.25023 5.71596 9.16943 5.71596 9.05382V8.76687C5.7158 8.4338 5.32726 8.25202 5.07147 8.46534L2.82498 10.3374C2.65471 10.4795 2.41294 10.4572 2.27102 10.2868C2.12892 10.1165 2.15122 9.87474 2.32166 9.73283L6.63973 6.13444C6.91078 6.13758 7.18381 6.04967 7.40621 5.86437C7.62852 5.67921 7.85067 5.49405 8.07291 5.30886ZM12.0012 6.50039C13.2983 6.50039 14.3582 7.56031 14.3582 8.85738C14.3582 10.1544 13.2983 11.2144 12.0012 11.2144C10.7041 11.2144 9.64423 10.1544 9.64423 8.85738C9.64423 7.56031 10.7041 6.50039 12.0012 6.50039ZM12.0012 7.28606C11.1287 7.28606 10.4299 7.98491 10.4299 8.85738C10.4299 9.72985 11.1287 10.4287 12.0012 10.4287C12.8737 10.4287 13.5725 9.72985 13.5725 8.85738C13.5725 7.98491 12.8737 7.28606 12.0012 7.28606ZM13.9654 12.7857H17.6973C17.8129 12.7857 17.8937 12.8665 17.8937 12.9821V15.9283C17.8937 16.0439 17.8129 16.1247 17.6973 16.1247C17.5816 16.1247 17.5008 16.0439 17.5008 15.9283V13.5713C17.5008 13.3544 17.325 13.1785 17.108 13.1785H13.9654C13.8498 13.1785 13.7689 13.0977 13.7689 12.9821C13.7689 12.8665 13.8498 12.7857 13.9654 12.7857ZM4.34102 13.1785H8.85857V15.1427H4.34102C3.79015 15.1427 3.35894 14.7115 3.35894 14.1606C3.35894 13.6097 3.79015 13.1785 4.34102 13.1785ZM9.64423 13.1785H13.0032C13.0957 13.6236 13.4952 13.9642 13.9654 13.9642V22.2136H9.64423V13.1785ZM18.6793 13.1785H19.6614C20.2123 13.1785 20.6435 13.6097 20.6435 14.1606C20.6435 14.7115 20.2123 15.1427 19.6614 15.1427H18.6793V13.1785ZM14.751 13.9642H16.7152V15.1427H14.751V13.9642ZM4.34102 17.8925H8.85857V19.8566H4.34102C3.79015 19.8566 3.35894 19.4254 3.35894 18.8745C3.35894 18.3237 3.79015 17.8925 4.34102 17.8925ZM14.751 17.8925H19.6614C20.2123 17.8925 20.6435 18.3237 20.6435 18.8745C20.6435 19.4254 20.2123 19.8566 19.6614 19.8566H14.751V17.8925Z" fill="#4A5578"/>
<path fill-rule="evenodd" clip-rule="evenodd" d="M3.18385 1.38086C3.07966 1.38086 2.97975 1.42223 2.90608 1.4959C2.83241 1.56957 2.79102 1.6695 2.79102 1.77369C2.79102 1.87787 2.83241 1.97779 2.90608 2.05146C2.97975 2.12513 3.07966 2.16652 3.18385 2.16652C3.28803 2.16652 3.38796 2.12513 3.46163 2.05146C3.5353 1.97779 3.57668 1.87787 3.57668 1.77369C3.57668 1.6695 3.5353 1.56957 3.46163 1.4959C3.38796 1.42223 3.28803 1.38086 3.18385 1.38086Z" fill="#4A5578"/>
<path fill-rule="evenodd" clip-rule="evenodd" d="M12.7854 16.9102C12.6812 16.9102 12.5813 16.9515 12.5076 17.0252C12.434 17.0989 12.3926 17.1988 12.3926 17.303V18.4815C12.3926 18.5857 12.434 18.6856 12.5076 18.7592C12.5813 18.8329 12.6812 18.8743 12.7854 18.8743C12.8896 18.8743 12.9895 18.8329 13.0632 18.7592C13.1368 18.6856 13.1782 18.5857 13.1782 18.4815V17.303C13.1782 17.1988 13.1368 17.0989 13.0632 17.0252C12.9895 16.9515 12.8896 16.9102 12.7854 16.9102Z" fill="#4A5578"/>
<path fill-rule="evenodd" clip-rule="evenodd" d="M22.5979 2.66602C22.4937 2.66602 22.3938 2.70741 22.3201 2.78108C22.2465 2.85475 22.2051 2.95466 22.2051 3.05885C22.2051 3.16303 22.2465 3.26297 22.3201 3.33664C22.3938 3.41031 22.4937 3.45168 22.5979 3.45168C22.7021 3.45168 22.802 3.41031 22.8757 3.33664C22.9493 3.26297 22.9907 3.16303 22.9907 3.05885C22.9907 2.95466 22.9493 2.85475 22.8757 2.78108C22.802 2.70741 22.7021 2.66602 22.5979 2.66602Z" fill="#4A5578"/>
<path fill-rule="evenodd" clip-rule="evenodd" d="M1.40846 13.8896C1.30427 13.8896 1.20436 13.931 1.13069 14.0047C1.05702 14.0784 1.01562 14.1783 1.01562 14.2825C1.01562 14.3867 1.05702 14.4866 1.13069 14.5602C1.20436 14.6339 1.30427 14.6753 1.40846 14.6753C1.51264 14.6753 1.61256 14.6339 1.68623 14.5602C1.7599 14.4866 1.80129 14.3867 1.80129 14.2825C1.80129 14.1783 1.7599 14.0784 1.68623 14.0047C1.61256 13.931 1.51264 13.8896 1.40846 13.8896Z" fill="#4A5578"/>
<path fill-rule="evenodd" clip-rule="evenodd" d="M2.35572 4.85156C2.25154 4.85156 2.15162 4.89296 2.07795 4.96663C2.00428 5.0403 1.96289 5.14021 1.96289 5.24439C1.96289 5.34858 2.00428 5.44851 2.07795 5.52218C2.15162 5.59585 2.25154 5.63722 2.35572 5.63722C2.45991 5.63722 2.55983 5.59585 2.6335 5.52218C2.70717 5.44851 2.74855 5.34858 2.74855 5.24439C2.74855 5.14021 2.70717 5.0403 2.6335 4.96663C2.55983 4.89296 2.45991 4.85156 2.35572 4.85156Z" fill="#4A5578"/>
<path fill-rule="evenodd" clip-rule="evenodd" d="M21.596 6.72852C21.4918 6.72852 21.3919 6.76991 21.3182 6.84358C21.2445 6.91725 21.2031 7.01716 21.2031 7.12135C21.2031 7.22553 21.2445 7.32544 21.3182 7.39911C21.3919 7.47278 21.4918 7.51418 21.596 7.51418C21.7001 7.51418 21.8001 7.47278 21.8737 7.39911C21.9474 7.32544 21.9888 7.22553 21.9888 7.12135C21.9888 7.01716 21.9474 6.91725 21.8737 6.84358C21.8001 6.76991 21.7001 6.72852 21.596 6.72852Z" fill="#4A5578"/>
<path fill-rule="evenodd" clip-rule="evenodd" d="M22.2151 15.8574C22.1109 15.8574 22.011 15.8988 21.9373 15.9725C21.8636 16.0462 21.8223 16.1461 21.8223 16.2503C21.8223 16.3544 21.8636 16.4543 21.9373 16.528C22.011 16.6017 22.1109 16.6431 22.2151 16.6431C22.3193 16.6431 22.4192 16.6017 22.4929 16.528C22.5665 16.4543 22.6079 16.3544 22.6079 16.2503C22.6079 16.1461 22.5665 16.0462 22.4929 15.9725C22.4192 15.8988 22.3193 15.8574 22.2151 15.8574Z" fill="#4A5578"/>
<path fill-rule="evenodd" clip-rule="evenodd" d="M7.11939 1.26074C7.01521 1.26074 6.91528 1.30214 6.84161 1.37581C6.76794 1.44948 6.72656 1.54939 6.72656 1.65357C6.72656 1.75776 6.76794 1.85767 6.84161 1.93134C6.91528 2.00501 7.01521 2.0464 7.11939 2.0464C7.22358 2.0464 7.32349 2.00501 7.39716 1.93134C7.47083 1.85767 7.51222 1.75776 7.51222 1.65357C7.51222 1.54939 7.47083 1.44948 7.39716 1.37581C7.32349 1.30214 7.22358 1.26074 7.11939 1.26074Z" fill="#4A5578"/>
</svg>
