<svg width="287" height="163" viewBox="0 0 287 163" fill="none" xmlns="http://www.w3.org/2000/svg">
<path d="M271.316 130.566H273.575V144.8C273.575 146.081 273.315 147.174 272.795 148.079C272.275 148.984 271.549 149.67 270.616 150.136C269.693 150.611 268.626 150.848 267.416 150.848C266.914 150.848 266.322 150.768 265.641 150.606C264.969 150.454 264.305 150.19 263.651 149.813C263.006 149.446 262.463 148.949 262.024 148.321L263.328 146.843C263.938 147.578 264.574 148.088 265.238 148.375C265.91 148.662 266.573 148.805 267.228 148.805C268.017 148.805 268.698 148.657 269.272 148.362C269.845 148.066 270.289 147.627 270.603 147.044C270.926 146.471 271.087 145.763 271.087 144.921V133.765L271.316 130.566ZM261.298 137.999V137.716C261.298 136.605 261.428 135.597 261.688 134.692C261.957 133.778 262.338 132.994 262.831 132.34C263.333 131.686 263.938 131.184 264.646 130.835C265.354 130.476 266.152 130.297 267.04 130.297C267.954 130.297 268.752 130.458 269.433 130.781C270.123 131.094 270.706 131.556 271.181 132.165C271.665 132.766 272.046 133.491 272.324 134.343C272.602 135.194 272.795 136.157 272.902 137.232V138.469C272.804 139.535 272.611 140.494 272.324 141.345C272.046 142.197 271.665 142.923 271.181 143.523C270.706 144.123 270.123 144.585 269.433 144.907C268.743 145.221 267.936 145.378 267.013 145.378C266.143 145.378 265.354 145.194 264.646 144.827C263.947 144.459 263.346 143.944 262.844 143.281C262.342 142.618 261.957 141.838 261.688 140.942C261.428 140.037 261.298 139.056 261.298 137.999ZM263.785 137.716V137.999C263.785 138.724 263.857 139.405 264.001 140.042C264.153 140.678 264.382 141.238 264.686 141.722C265 142.206 265.399 142.586 265.883 142.864C266.367 143.133 266.945 143.267 267.618 143.267C268.443 143.267 269.124 143.093 269.662 142.743C270.2 142.394 270.625 141.932 270.939 141.359C271.262 140.785 271.513 140.163 271.692 139.491V136.251C271.594 135.758 271.441 135.284 271.235 134.827C271.038 134.361 270.778 133.948 270.455 133.59C270.141 133.223 269.751 132.931 269.285 132.716C268.819 132.501 268.272 132.394 267.645 132.394C266.963 132.394 266.376 132.537 265.883 132.824C265.399 133.102 265 133.487 264.686 133.98C264.382 134.464 264.153 135.028 264.001 135.673C263.857 136.31 263.785 136.991 263.785 137.716Z" fill="white"/>
<path d="M249.155 133.671V145.109H246.667V130.566H249.02L249.155 133.671ZM248.563 137.286L247.528 137.246C247.537 136.251 247.684 135.333 247.971 134.49C248.258 133.639 248.662 132.9 249.182 132.273C249.701 131.645 250.32 131.162 251.037 130.821C251.763 130.472 252.566 130.297 253.444 130.297C254.161 130.297 254.807 130.395 255.38 130.593C255.954 130.781 256.443 131.085 256.846 131.507C257.258 131.928 257.572 132.474 257.787 133.146C258.003 133.809 258.11 134.62 258.11 135.579V145.109H255.609V135.552C255.609 134.791 255.497 134.181 255.273 133.724C255.049 133.258 254.722 132.922 254.291 132.716C253.861 132.501 253.332 132.394 252.705 132.394C252.086 132.394 251.521 132.524 251.01 132.783C250.508 133.043 250.073 133.402 249.706 133.859C249.347 134.316 249.065 134.84 248.859 135.431C248.662 136.014 248.563 136.632 248.563 137.286Z" fill="white"/>
<path d="M242.674 130.522V145.066H240.173V130.522H242.674ZM239.984 126.665C239.984 126.262 240.105 125.921 240.347 125.643C240.598 125.365 240.966 125.227 241.45 125.227C241.925 125.227 242.288 125.365 242.539 125.643C242.799 125.921 242.929 126.262 242.929 126.665C242.929 127.05 242.799 127.382 242.539 127.659C242.288 127.928 241.925 128.063 241.45 128.063C240.966 128.063 240.598 127.928 240.347 127.659C240.105 127.382 239.984 127.05 239.984 126.665Z" fill="white"/>
<path d="M235.976 124.438V145.083H233.475V124.438H235.976Z" fill="white"/>
<path d="M227.237 130.566H229.496V144.8C229.496 146.081 229.236 147.174 228.716 148.079C228.196 148.984 227.47 149.67 226.537 150.136C225.614 150.611 224.547 150.848 223.337 150.848C222.835 150.848 222.243 150.768 221.562 150.606C220.89 150.454 220.226 150.19 219.572 149.813C218.926 149.446 218.384 148.949 217.945 148.321L219.249 146.843C219.859 147.578 220.495 148.088 221.159 148.375C221.831 148.662 222.494 148.805 223.149 148.805C223.938 148.805 224.619 148.657 225.193 148.362C225.766 148.066 226.21 147.627 226.524 147.044C226.847 146.471 227.008 145.763 227.008 144.921V133.765L227.237 130.566ZM217.219 137.999V137.716C217.219 136.605 217.349 135.597 217.609 134.692C217.878 133.778 218.259 132.994 218.752 132.34C219.254 131.686 219.859 131.184 220.567 130.835C221.275 130.476 222.073 130.297 222.96 130.297C223.875 130.297 224.673 130.458 225.354 130.781C226.044 131.094 226.627 131.556 227.102 132.165C227.586 132.766 227.967 133.491 228.245 134.343C228.523 135.194 228.716 136.157 228.823 137.232V138.469C228.725 139.535 228.532 140.494 228.245 141.345C227.967 142.197 227.586 142.923 227.102 143.523C226.627 144.123 226.044 144.585 225.354 144.907C224.664 145.221 223.857 145.378 222.934 145.378C222.064 145.378 221.275 145.194 220.567 144.827C219.868 144.459 219.267 143.944 218.765 143.281C218.263 142.618 217.878 141.838 217.609 140.942C217.349 140.037 217.219 139.056 217.219 137.999ZM219.706 137.716V137.999C219.706 138.724 219.778 139.405 219.922 140.042C220.074 140.678 220.303 141.238 220.607 141.722C220.921 142.206 221.32 142.586 221.804 142.864C222.288 143.133 222.866 143.267 223.539 143.267C224.363 143.267 225.045 143.093 225.583 142.743C226.12 142.394 226.546 141.932 226.86 141.359C227.183 140.785 227.434 140.163 227.613 139.491V136.251C227.514 135.758 227.362 135.284 227.156 134.827C226.959 134.361 226.699 133.948 226.376 133.59C226.062 133.223 225.672 132.931 225.206 132.716C224.74 132.501 224.193 132.394 223.566 132.394C222.884 132.394 222.297 132.537 221.804 132.824C221.32 133.102 220.921 133.487 220.607 133.98C220.303 134.464 220.074 135.028 219.922 135.673C219.778 136.31 219.706 136.991 219.706 137.716Z" fill="white"/>
<path d="M209.251 145.378C208.238 145.378 207.32 145.207 206.495 144.867C205.679 144.518 204.975 144.029 204.384 143.402C203.801 142.775 203.353 142.031 203.039 141.171C202.725 140.31 202.568 139.37 202.568 138.348V137.784C202.568 136.601 202.743 135.548 203.093 134.625C203.442 133.693 203.918 132.904 204.518 132.259C205.119 131.614 205.8 131.126 206.562 130.794C207.324 130.463 208.113 130.297 208.929 130.297C209.969 130.297 210.865 130.476 211.618 130.835C212.38 131.193 213.003 131.695 213.487 132.34C213.971 132.976 214.33 133.729 214.563 134.598C214.796 135.458 214.912 136.399 214.912 137.421V138.536H204.047V136.507H212.425V136.318C212.389 135.673 212.254 135.046 212.021 134.437C211.797 133.827 211.439 133.326 210.946 132.931C210.453 132.537 209.78 132.34 208.929 132.34C208.364 132.34 207.844 132.461 207.369 132.703C206.894 132.936 206.486 133.285 206.145 133.751C205.805 134.217 205.54 134.786 205.352 135.458C205.164 136.13 205.069 136.905 205.069 137.784V138.348C205.069 139.038 205.164 139.688 205.352 140.297C205.549 140.897 205.831 141.426 206.199 141.883C206.575 142.34 207.028 142.698 207.557 142.958C208.095 143.218 208.705 143.348 209.386 143.348C210.264 143.348 211.008 143.169 211.618 142.811C212.228 142.452 212.761 141.973 213.218 141.372L214.724 142.569C214.41 143.043 214.011 143.496 213.527 143.926C213.043 144.356 212.447 144.706 211.739 144.975C211.04 145.243 210.211 145.378 209.251 145.378Z" fill="white"/>
<path d="M181.532 133.456V145.109H179.031V130.566H181.398L181.532 133.456ZM181.021 137.286L179.865 137.246C179.874 136.251 180.004 135.333 180.255 134.49C180.506 133.639 180.878 132.9 181.371 132.273C181.864 131.645 182.478 131.162 183.213 130.821C183.948 130.472 184.8 130.297 185.768 130.297C186.449 130.297 187.077 130.395 187.651 130.593C188.224 130.781 188.722 131.081 189.143 131.493C189.564 131.905 189.892 132.434 190.125 133.079C190.358 133.724 190.474 134.504 190.474 135.418V145.109H187.987V135.539C187.987 134.777 187.857 134.168 187.597 133.711C187.346 133.254 186.987 132.922 186.521 132.716C186.055 132.501 185.508 132.394 184.881 132.394C184.145 132.394 183.531 132.524 183.038 132.783C182.545 133.043 182.151 133.402 181.855 133.859C181.559 134.316 181.344 134.84 181.21 135.431C181.084 136.014 181.021 136.632 181.021 137.286ZM190.447 135.915L188.78 136.426C188.789 135.628 188.919 134.862 189.17 134.128C189.43 133.393 189.802 132.739 190.286 132.165C190.779 131.592 191.384 131.139 192.101 130.808C192.819 130.467 193.639 130.297 194.562 130.297C195.342 130.297 196.032 130.4 196.633 130.606C197.243 130.812 197.754 131.13 198.166 131.56C198.587 131.981 198.905 132.524 199.121 133.187C199.336 133.85 199.443 134.638 199.443 135.552V145.109H196.942V135.525C196.942 134.71 196.812 134.078 196.552 133.63C196.301 133.173 195.943 132.855 195.477 132.676C195.019 132.488 194.473 132.394 193.836 132.394C193.289 132.394 192.805 132.488 192.384 132.676C191.962 132.864 191.608 133.124 191.322 133.456C191.035 133.778 190.815 134.15 190.663 134.571C190.519 134.992 190.447 135.44 190.447 135.915Z" fill="white"/>
<path d="M173.305 141.251C173.305 140.893 173.224 140.561 173.063 140.257C172.91 139.943 172.592 139.661 172.108 139.41C171.633 139.15 170.916 138.926 169.957 138.738C169.15 138.568 168.419 138.366 167.765 138.133C167.119 137.9 166.568 137.618 166.111 137.286C165.663 136.955 165.317 136.565 165.075 136.117C164.833 135.669 164.712 135.145 164.712 134.544C164.712 133.971 164.838 133.429 165.089 132.918C165.349 132.407 165.712 131.955 166.178 131.56C166.653 131.166 167.222 130.857 167.886 130.633C168.549 130.409 169.289 130.297 170.104 130.297C171.27 130.297 172.265 130.503 173.09 130.915C173.914 131.327 174.546 131.878 174.986 132.568C175.425 133.249 175.645 134.007 175.645 134.84H173.157C173.157 134.437 173.036 134.047 172.794 133.671C172.561 133.285 172.216 132.967 171.758 132.716C171.31 132.465 170.759 132.34 170.104 132.34C169.414 132.34 168.854 132.447 168.424 132.663C168.002 132.869 167.693 133.133 167.496 133.456C167.308 133.778 167.213 134.119 167.213 134.477C167.213 134.746 167.258 134.988 167.348 135.203C167.447 135.409 167.617 135.602 167.859 135.781C168.101 135.951 168.442 136.112 168.881 136.265C169.32 136.417 169.88 136.569 170.562 136.722C171.754 136.991 172.736 137.313 173.507 137.689C174.277 138.066 174.851 138.527 175.228 139.074C175.604 139.62 175.792 140.284 175.792 141.063C175.792 141.699 175.658 142.282 175.389 142.811C175.129 143.339 174.748 143.796 174.246 144.181C173.753 144.558 173.161 144.854 172.471 145.069C171.79 145.275 171.023 145.378 170.172 145.378C168.89 145.378 167.805 145.149 166.918 144.692C166.03 144.235 165.358 143.644 164.901 142.918C164.443 142.192 164.215 141.426 164.215 140.62H166.716C166.752 141.301 166.949 141.843 167.308 142.246C167.666 142.64 168.105 142.923 168.625 143.093C169.145 143.254 169.661 143.335 170.172 143.335C170.853 143.335 171.422 143.245 171.879 143.066C172.346 142.887 172.7 142.64 172.942 142.327C173.184 142.013 173.305 141.655 173.305 141.251Z" fill="white"/>
<path d="M143.154 133.456V145.109H140.653V130.566H143.02L143.154 133.456ZM142.643 137.286L141.487 137.246C141.496 136.251 141.626 135.333 141.877 134.49C142.128 133.639 142.5 132.9 142.993 132.273C143.486 131.645 144.1 131.162 144.835 130.821C145.57 130.472 146.422 130.297 147.39 130.297C148.071 130.297 148.699 130.395 149.273 130.593C149.846 130.781 150.344 131.081 150.765 131.493C151.187 131.905 151.514 132.434 151.747 133.079C151.98 133.724 152.096 134.504 152.096 135.418V145.109H149.609V135.539C149.609 134.777 149.479 134.168 149.219 133.711C148.968 133.254 148.609 132.922 148.143 132.716C147.677 132.501 147.13 132.394 146.503 132.394C145.768 132.394 145.153 132.524 144.66 132.783C144.167 133.043 143.773 133.402 143.477 133.859C143.181 134.316 142.966 134.84 142.832 135.431C142.706 136.014 142.643 136.632 142.643 137.286ZM152.07 135.915L150.402 136.426C150.411 135.628 150.541 134.862 150.792 134.128C151.052 133.393 151.424 132.739 151.908 132.165C152.401 131.592 153.006 131.139 153.723 130.808C154.441 130.467 155.261 130.297 156.184 130.297C156.964 130.297 157.654 130.4 158.255 130.606C158.865 130.812 159.376 131.13 159.788 131.56C160.209 131.981 160.528 132.524 160.743 133.187C160.958 133.85 161.065 134.638 161.065 135.552V145.109H158.564V135.525C158.564 134.71 158.434 134.078 158.174 133.63C157.923 133.173 157.565 132.855 157.099 132.676C156.641 132.488 156.095 132.394 155.458 132.394C154.911 132.394 154.427 132.488 154.006 132.676C153.585 132.864 153.23 133.124 152.944 133.456C152.657 133.778 152.437 134.15 152.285 134.571C152.141 134.992 152.07 135.44 152.07 135.915Z" fill="white"/>
<path d="M124.314 137.999V137.689C124.314 136.641 124.467 135.669 124.772 134.773C125.076 133.868 125.516 133.084 126.089 132.421C126.663 131.749 127.358 131.229 128.174 130.861C128.989 130.485 129.904 130.297 130.917 130.297C131.939 130.297 132.858 130.485 133.673 130.861C134.498 131.229 135.197 131.749 135.771 132.421C136.354 133.084 136.797 133.868 137.102 134.773C137.407 135.669 137.559 136.641 137.559 137.689V137.999C137.559 139.047 137.407 140.019 137.102 140.915C136.797 141.811 136.354 142.595 135.771 143.267C135.197 143.931 134.503 144.45 133.687 144.827C132.88 145.194 131.966 145.378 130.944 145.378C129.922 145.378 129.003 145.194 128.187 144.827C127.371 144.45 126.672 143.931 126.089 143.267C125.516 142.595 125.076 141.811 124.772 140.915C124.467 140.019 124.314 139.047 124.314 137.999ZM126.802 137.689V137.999C126.802 138.724 126.887 139.41 127.058 140.055C127.228 140.691 127.483 141.256 127.824 141.749C128.174 142.241 128.608 142.631 129.128 142.918C129.648 143.196 130.253 143.335 130.944 143.335C131.625 143.335 132.221 143.196 132.732 142.918C133.252 142.631 133.682 142.241 134.023 141.749C134.364 141.256 134.619 140.691 134.789 140.055C134.969 139.41 135.058 138.724 135.058 137.999V137.689C135.058 136.973 134.969 136.296 134.789 135.66C134.619 135.015 134.359 134.446 134.01 133.953C133.669 133.451 133.239 133.057 132.719 132.77C132.208 132.483 131.607 132.34 130.917 132.34C130.235 132.34 129.635 132.483 129.115 132.77C128.604 133.057 128.174 133.451 127.824 133.953C127.483 134.446 127.228 135.015 127.058 135.66C126.887 136.296 126.802 136.973 126.802 137.689Z" fill="white"/>
<path d="M118.6 142.26V124.438H121.101V145.083H118.815L118.6 142.26ZM108.811 137.973V137.69C108.811 136.579 108.945 135.571 109.214 134.666C109.492 133.752 109.882 132.968 110.384 132.314C110.895 131.66 111.5 131.158 112.199 130.809C112.907 130.45 113.696 130.271 114.566 130.271C115.48 130.271 116.278 130.432 116.959 130.755C117.65 131.068 118.232 131.53 118.707 132.139C119.191 132.74 119.572 133.465 119.85 134.317C120.128 135.168 120.321 136.131 120.428 137.207V138.443C120.33 139.509 120.137 140.468 119.85 141.319C119.572 142.171 119.191 142.897 118.707 143.497C118.232 144.097 117.65 144.559 116.959 144.881C116.269 145.195 115.462 145.352 114.539 145.352C113.687 145.352 112.907 145.168 112.199 144.801C111.5 144.433 110.895 143.918 110.384 143.255C109.882 142.592 109.492 141.812 109.214 140.916C108.945 140.011 108.811 139.03 108.811 137.973ZM111.312 137.69V137.973C111.312 138.698 111.383 139.379 111.527 140.016C111.679 140.652 111.912 141.212 112.226 141.696C112.54 142.18 112.939 142.561 113.423 142.838C113.907 143.107 114.485 143.242 115.157 143.242C115.982 143.242 116.659 143.067 117.188 142.717C117.726 142.368 118.156 141.906 118.479 141.333C118.801 140.759 119.052 140.137 119.232 139.465V136.225C119.124 135.732 118.967 135.258 118.761 134.801C118.564 134.335 118.304 133.922 117.981 133.564C117.667 133.197 117.277 132.905 116.811 132.69C116.354 132.475 115.812 132.368 115.184 132.368C114.503 132.368 113.916 132.511 113.423 132.798C112.939 133.076 112.54 133.461 112.226 133.954C111.912 134.438 111.679 135.002 111.527 135.647C111.383 136.284 111.312 136.965 111.312 137.69Z" fill="white"/>
<path d="M96.6986 133.671V145.109H94.2109V130.566H96.5641L96.6986 133.671ZM96.1069 137.286L95.0715 137.246C95.0805 136.251 95.2284 135.333 95.5153 134.49C95.8021 133.639 96.2055 132.9 96.7255 132.273C97.2454 131.645 97.864 131.162 98.5811 130.821C99.3072 130.472 100.11 130.297 100.988 130.297C101.705 130.297 102.351 130.395 102.924 130.593C103.498 130.781 103.987 131.085 104.39 131.507C104.802 131.928 105.116 132.474 105.331 133.146C105.546 133.809 105.654 134.62 105.654 135.579V145.109H103.153V135.552C103.153 134.791 103.041 134.181 102.817 133.724C102.593 133.258 102.266 132.922 101.835 132.716C101.405 132.501 100.876 132.394 100.248 132.394C99.63 132.394 99.0652 132.524 98.5542 132.783C98.0522 133.043 97.6174 133.402 97.2499 133.859C96.8913 134.316 96.6089 134.84 96.4027 135.431C96.2055 136.014 96.1069 136.632 96.1069 137.286Z" fill="white"/>
<path d="M85.6439 145.378C84.631 145.378 83.7121 145.207 82.8874 144.867C82.0716 144.518 81.3679 144.029 80.7762 143.402C80.1936 142.775 79.7453 142.031 79.4316 141.171C79.1178 140.31 78.9609 139.37 78.9609 138.348V137.784C78.9609 136.601 79.1357 135.548 79.4854 134.625C79.835 133.693 80.3101 132.904 80.9107 132.259C81.5113 131.614 82.1926 131.126 82.9546 130.794C83.7166 130.463 84.5055 130.297 85.3212 130.297C86.3611 130.297 87.2575 130.476 88.0106 130.835C88.7725 131.193 89.3956 131.695 89.8796 132.34C90.3637 132.976 90.7223 133.729 90.9554 134.598C91.1885 135.458 91.305 136.399 91.305 137.421V138.536H80.4401V136.507H88.8174V136.318C88.7815 135.673 88.647 135.046 88.414 134.437C88.1898 133.827 87.8313 133.326 87.3382 132.931C86.8452 132.537 86.1728 132.34 85.3212 132.34C84.7565 132.34 84.2365 132.461 83.7614 132.703C83.2863 132.936 82.8784 133.285 82.5378 133.751C82.1971 134.217 81.9327 134.786 81.7444 135.458C81.5561 136.13 81.462 136.905 81.462 137.784V138.348C81.462 139.038 81.5561 139.688 81.7444 140.297C81.9416 140.897 82.224 141.426 82.5915 141.883C82.968 142.34 83.4208 142.698 83.9497 142.958C84.4875 143.218 85.0971 143.348 85.7784 143.348C86.6569 143.348 87.401 143.169 88.0106 142.811C88.6201 142.452 89.1535 141.973 89.6107 141.372L91.1167 142.569C90.803 143.043 90.4041 143.496 89.92 143.926C89.4359 144.356 88.8398 144.706 88.1316 144.975C87.4323 145.243 86.6031 145.378 85.6439 145.378Z" fill="white"/>
<path d="M75.6122 130.522V145.066H73.1111V130.522H75.6122ZM72.9229 126.665C72.9229 126.262 73.0439 125.921 73.2859 125.643C73.5369 125.365 73.9045 125.227 74.3885 125.227C74.8637 125.227 75.2267 125.365 75.4777 125.643C75.7377 125.921 75.8677 126.262 75.8677 126.665C75.8677 127.05 75.7377 127.382 75.4777 127.659C75.2267 127.928 74.8637 128.063 74.3885 128.063C73.9045 128.063 73.5369 127.928 73.2859 127.659C73.0439 127.382 72.9229 127.05 72.9229 126.665Z" fill="white"/>
<path d="M64.35 145.378C63.337 145.378 62.4182 145.207 61.5934 144.867C60.7777 144.518 60.0739 144.029 59.4823 143.402C58.8996 142.775 58.4514 142.031 58.1376 141.171C57.8239 140.31 57.667 139.37 57.667 138.348V137.784C57.667 136.601 57.8418 135.548 58.1914 134.625C58.541 133.693 59.0161 132.904 59.6168 132.259C60.2174 131.614 60.8987 131.126 61.6607 130.794C62.4226 130.463 63.2115 130.297 64.0273 130.297C65.0672 130.297 65.9636 130.476 66.7166 130.835C67.4786 131.193 68.1016 131.695 68.5857 132.34C69.0698 132.976 69.4284 133.729 69.6614 134.598C69.8945 135.458 70.011 136.399 70.011 137.421V138.536H59.1461V136.507H67.5234V136.318C67.4876 135.673 67.3531 135.046 67.12 134.437C66.8959 133.827 66.5373 133.326 66.0443 132.931C65.5512 132.537 64.8789 132.34 64.0273 132.34C63.4625 132.34 62.9426 132.461 62.4675 132.703C61.9923 132.936 61.5845 133.285 61.2438 133.751C60.9032 134.217 60.6387 134.786 60.4505 135.458C60.2622 136.13 60.1681 136.905 60.1681 137.784V138.348C60.1681 139.038 60.2622 139.688 60.4505 140.297C60.6477 140.897 60.9301 141.426 61.2976 141.883C61.6741 142.34 62.1268 142.698 62.6557 142.958C63.1936 143.218 63.8032 143.348 64.4845 143.348C65.363 143.348 66.107 143.169 66.7166 142.811C67.3262 142.452 67.8596 141.973 68.3168 141.372L69.8228 142.569C69.509 143.043 69.1101 143.496 68.626 143.926C68.142 144.356 67.5458 144.706 66.8376 144.975C66.1384 145.243 65.3092 145.378 64.35 145.378Z" fill="white"/>
<path d="M48.6384 142.968V145.078H38.271V142.968H48.6384ZM38.7954 125.508V145.078H36.2002V125.508H38.7954ZM47.2668 133.922V136.032H38.271V133.922H47.2668ZM48.5039 125.508V127.632H38.271V125.508H48.5039Z" fill="white"/>
<path d="M31.4761 125.508V145.078H28.8809V125.508H31.4761Z" fill="white"/>
<path d="M25.4841 142.968V145.078H15.1167V142.968H25.4841ZM15.6411 125.508V145.078H13.0459V125.508H15.6411ZM24.1125 133.922V136.032H15.1167V133.922H24.1125ZM25.3496 125.508V127.632H15.1167V125.508H25.3496Z" fill="white"/>
<path d="M194.077 26.373H147.609V56.0654H179.872V68.9688H147.609V99.0723H194.076V112.406H86.5029V99.0723H133.409V68.9688H100.698V56.0654H133.409V26.373H86.5039V13.0391H194.077V26.373Z" fill="white"/>
</svg>
