<svg width="711" height="163" viewBox="0 0 711 163" fill="none" xmlns="http://www.w3.org/2000/svg">
<mask id="mask0_9040_9867" style="mask-type:luminance" maskUnits="userSpaceOnUse" x="4" y="31" width="701" height="101">
<path d="M704.478 31.9258H4.02734V131.946H704.478V31.9258Z" fill="white"/>
</mask>
<g mask="url(#mask0_9040_9867)">
<path d="M491.354 111.294H478.939C478.939 104.444 478.984 97.7778 478.918 91.1113C478.918 89.3243 478.758 87.4915 478.329 85.7504C477.743 83.2764 476.094 81.6956 473.5 81.4205C470.858 81.1229 468.535 82.0392 467.517 84.5364C466.638 86.7356 466.095 89.2097 466.028 91.5923C465.826 98.0527 465.961 104.536 465.961 111.248H453.365C453.298 110.263 453.184 109.255 453.184 108.247C453.184 102.199 453.208 96.1285 453.163 90.0804C453.163 88.6141 452.982 87.1021 452.619 85.6819C451.967 83.0013 450.161 81.5351 447.452 81.3748C444.674 81.2145 442.282 82.1995 441.424 84.9486C440.657 87.4229 440.319 90.1261 440.252 92.7378C440.092 98.8776 440.207 104.994 440.207 111.317H427.61V71.5926H440.002C440.116 72.5776 440.228 73.5856 440.431 75.3267C443.749 71.3407 447.835 70.1952 452.372 70.4471C457.089 70.6991 460.746 72.7838 463.319 77.3657C467.608 71.4552 473.273 69.7139 479.999 70.6762C486.184 71.5698 490.789 75.0747 491.197 81.306C491.828 91.203 491.354 101.191 491.354 111.294Z" fill="white"/>
<path d="M514.652 75.8304C519.686 70.607 525.013 69.6218 530.905 70.6987C536.819 71.7753 541.4 75.8533 541.672 81.8783C542.101 91.6147 541.784 101.374 541.784 111.317H529.28C529.28 104.81 529.302 98.4647 529.28 92.1186C529.28 90.3319 529.166 88.522 528.894 86.7352C528.399 83.4591 526.391 81.6951 523.186 81.3515C520.094 81.0079 517.406 82.0157 516.165 84.971C515.286 87.0557 514.857 89.4384 514.812 91.7293C514.63 98.1896 514.742 104.65 514.742 111.317H502.034V46.2773H514.652V75.8304Z" fill="white"/>
<path d="M307.204 46.2031H319.686V75.8019C324.539 70.8993 329.664 69.6164 335.465 70.6016C342.01 71.7239 346.501 75.6185 346.863 82.2394C347.359 91.8384 346.999 101.506 346.999 111.311H334.651C334.584 110.212 334.493 109.112 334.472 107.99C334.381 101.414 334.539 94.8167 334.179 88.2415C333.907 83.4077 331.425 81.1856 327.339 81.1856C323.615 81.1856 320.432 83.9804 320.16 88.2415C319.777 94.3813 319.889 100.544 319.8 106.706C319.8 108.173 319.8 109.639 319.8 111.288H307.226V46.2031H307.204Z" fill="white"/>
<path d="M692.654 91.348C692.654 85.6207 688.411 81.3367 682.724 81.3596C677.327 81.3825 673.108 85.7352 673.063 91.3252C673.039 97.0982 677.17 101.428 682.814 101.52C688.23 101.588 692.632 97.0296 692.632 91.3709M691.796 74.8533C691.911 73.5933 691.977 72.654 692.068 71.5774H704.483V111.233H692.158C692.046 110.248 691.911 109.126 691.729 107.43C687.622 112.081 682.678 113.341 677.013 112.562C671.369 111.783 667.035 109.011 663.764 104.383C657.848 95.9987 658.841 82.7799 665.884 75.5634C672.588 68.6909 682.588 68.3472 691.796 74.8533Z" fill="white"/>
<path d="M599.33 71.4477C595.109 79.5117 591.137 87.0489 587.187 94.609C581.047 106.316 574.907 117.999 568.858 129.729C568.022 131.378 567.076 132.02 565.246 131.951C561.499 131.814 557.73 131.905 553.441 131.905C554.006 130.691 554.368 129.775 554.818 128.904C558.385 122.306 561.885 115.662 565.563 109.133C566.714 107.095 566.826 105.537 565.609 103.406C560.145 93.6466 554.887 83.727 549.581 73.876C549.243 73.2345 548.971 72.5703 548.431 71.4477C553.239 71.4477 557.684 71.3331 562.109 71.5622C562.9 71.608 563.824 72.8908 564.322 73.8072C567.572 79.9699 570.686 86.1783 574.116 92.8679C577.481 86.2011 580.64 80.0616 583.62 73.8303C584.456 72.089 585.405 71.3103 587.389 71.4017C591.137 71.5851 594.906 71.4477 599.33 71.4477Z" fill="white"/>
<path d="M177.92 86.5631H160.562V111.305H146.974V51.8555H179.206V63.4704H160.652V74.6272H177.92V86.5631Z" fill="white"/>
<path d="M383.087 85.9052C382.072 81.369 379.14 79.1009 374.76 79.2155C370.56 79.33 367.673 81.7815 366.972 85.9052H383.087ZM395.188 93.7858H366.114C366.498 97.7949 367.673 100.911 371.463 102.308C375.277 103.728 379.161 102.652 382.006 99.6277C382.547 99.0549 383.54 98.551 384.286 98.6196C387.602 98.8487 390.921 99.2612 394.24 99.6277C393.63 107.806 383.676 113.717 372.254 112.755C360.087 111.747 352.186 102.377 353.135 90.1434C354.197 76.5581 363.158 69.1125 377.083 70.2123C388.71 71.1286 396.203 80.6589 395.188 93.7858Z" fill="white"/>
<path d="M240.198 85.8308C238.979 81.2258 236.113 79.0495 231.711 79.21C227.626 79.3702 224.736 81.8217 224.105 85.8308H240.198ZM252.139 100.447C250.266 103.013 248.729 105.945 246.452 108.053C238.957 114.994 223.315 114.353 216.114 107.113C210.042 100.997 208.394 90.9852 211.983 82.2568C215.234 74.399 221.802 70.2065 230.853 70.1836C244.96 70.1608 253.652 79.6681 252.048 93.7803H223.405C223.427 98.2476 225.233 101.134 228.483 102.325C232.208 103.677 236.338 102.623 238.844 99.9198C239.499 99.2325 240.672 98.6141 241.575 98.6598C244.803 98.8203 248.007 99.2785 251.236 99.5993C251.529 99.8741 251.822 100.149 252.117 100.424" fill="white"/>
<path d="M273.242 46.2031H260.691V111.265H273.242V46.2031Z" fill="white"/>
<path d="M296.207 46.2031H283.928V111.311H296.207V46.2031Z" fill="white"/>
<path d="M635.794 82.2733C634.214 82.0673 633.018 81.9068 631.596 81.7237V71.6664C632.792 71.5519 633.988 71.4373 635.682 71.2768V58.7227H648.616V71.3457H656.266V81.8611H648.819V111.254H635.794V82.2733Z" fill="white"/>
<path d="M619.657 81.8661V111.259H606.747V82.2326C605.122 82.0036 603.811 81.8202 602.458 81.6371V71.5798C603.835 71.4653 605.053 71.3967 606.611 71.259V58.7734H619.633V71.3967H627.15V81.8433H619.633L619.657 81.8661Z" fill="white"/>
<path d="M201.206 71.5273H188.837V131.733H201.206V71.5273Z" fill="white"/>
<path d="M416.629 71.5508H404.192V111.321H416.629V71.5508Z" fill="white"/>
<path d="M194.956 47.0782C199.335 47.0553 202.608 50.2856 202.563 54.5925C202.518 58.739 199.268 62.0609 195.159 62.1297C190.916 62.1983 187.575 58.8307 187.598 54.4779C187.598 50.1939 190.69 47.1012 194.956 47.0782Z" fill="white"/>
<path d="M410.482 62.1066C406.306 62.1523 403.123 59.0138 403.032 54.7527C402.944 50.2396 405.946 47.101 410.37 47.0781C414.613 47.0781 417.839 50.148 417.954 54.3175C418.066 58.5328 414.704 62.0609 410.482 62.1066Z" fill="white"/>
<path d="M73.5404 101.637L56.9775 85.0814L75.9865 66.0807L94.5624 84.6482V122.42H13.5573V106.883L39.4208 81.0315L66.7876 108.386L73.5149 101.662L73.5404 101.637ZM13.5573 41.4515H94.5624V71.1748L75.9865 52.6073L50.225 78.3572L39.4208 67.5581L13.5573 93.41V41.4515ZM4.02734 131.946H104.092V31.9258H4.02734V131.946Z" fill="white"/>
</g>
</svg>
