<svg width="88" height="88" viewBox="0 0 88 88" fill="none" xmlns="http://www.w3.org/2000/svg">
<rect x="4" y="4" width="80" height="80" rx="40" fill="#EFF1F5"/>
<rect x="4" y="4" width="80" height="80" rx="40" stroke="#F9F9FB" stroke-width="8"/>
<path d="M43.5195 47.3632L46.9595 51.8048L47.4267 51.2512C47.9419 50.64 48.6971 50.2912 49.4971 50.2912C50.1371 50.2912 50.7483 50.5184 51.2315 50.9248C51.2795 50.7936 51.3243 50.6592 51.3595 50.5184L52.5499 45.8688L50.0635 45.232L49.8203 46.1824C49.6411 46.8768 49.0171 47.3632 48.3003 47.3632C48.1691 47.3632 48.0379 47.3472 47.9099 47.3152L47.8107 47.2896C47.4043 47.184 47.0619 46.928 46.8475 46.5696C46.6331 46.208 46.5723 45.7856 46.6779 45.3792L46.9211 44.4288L44.4347 43.792L43.5195 47.3632Z" fill="#006555"/>
<path d="M47.1422 45.4943C46.9918 46.0767 47.3438 46.6719 47.9294 46.8223L48.0286 46.8479C48.1182 46.8703 48.211 46.8831 48.3006 46.8831C48.7869 46.8831 49.2317 46.5567 49.3565 46.0607L52.6461 33.2031L50.4317 32.6367L47.1422 45.4943Z" fill="#006555"/>
<path d="M49.3833 31.8759L53.9369 33.0407C54.0297 33.0631 54.1225 33.0759 54.2121 33.0759C54.7049 33.0759 55.1561 32.7431 55.2841 32.2407L55.3097 32.1383C55.4601 31.5463 55.1049 30.9415 54.5097 30.7879L49.9561 29.6231C49.8633 29.6007 49.7705 29.5879 49.6809 29.5879C49.1881 29.5879 48.7369 29.9207 48.6089 30.4231L48.5833 30.5255C48.4329 31.1175 48.7881 31.7223 49.3833 31.8759Z" fill="#006555"/>
<path d="M30.9375 58.4003L41.5743 58.3779C41.5679 58.2563 41.6031 58.1347 41.6831 58.0387L46.6431 52.1763L43.1391 47.6546C42.6239 46.989 41.8623 46.6562 41.1007 46.6562C40.3295 46.6562 39.5615 46.9987 39.0431 47.6803L30.9375 58.4003Z" fill="#006555"/>
<path d="M51.1848 51.5388C50.74 51.0236 50.1192 50.7676 49.4984 50.7676C48.868 50.7676 48.2408 51.03 47.7928 51.558L42.0488 58.3484L57.0632 58.3196L51.1848 51.5388Z" fill="#006555"/>
</svg>
