<svg width="24" height="24" viewBox="0 0 24 24" fill="none" xmlns="http://www.w3.org/2000/svg">
<path d="M1.52625 3C1.0965 3 0.75 3.3345 0.75 3.75V5.25C0.75 5.6655 1.0965 6 1.52625 6H2.25V21.75H3V11.625H21V21.75H21.75V6H22.4738C22.9035 6 23.25 5.6655 23.25 5.25V3.75C23.25 3.3345 22.9035 3 22.4738 3H1.52625ZM3 6.75H21V7.5H3V6.75ZM3 8.25H21V9H3V8.25ZM3 9.75H21V10.5H3V9.75ZM10.6725 15.3C10.4025 15.3 10.1475 15.2925 9.867 15.3885C9.5865 15.4815 9.3195 15.6675 9.009 15.9802L7.47675 17.4893H7.47225L7.41075 17.5492H8.436L9.516 16.4858H9.51675C9.7845 16.2165 9.95025 16.116 10.0942 16.068C10.2382 16.02 10.3988 16.0185 10.6733 16.0185H12.375V16.7865C12.375 17.205 12.081 17.5507 11.7188 17.5507H7.46925L4.78875 18.2902C4.44 18.387 4.134 18.636 4.134 19.0553V19.4257H4.488C4.99575 19.4182 4.99575 20.1832 4.488 20.1757H4.134V20.5433C4.134 20.9625 4.4265 21.3083 4.78875 21.3083H6.015C6.0105 21.2633 6 21.2205 6 21.1747C6 20.3662 6.684 19.7183 7.5 19.7183C8.316 19.7183 9 20.3662 9 21.1747C9 21.2197 8.9895 21.2633 8.985 21.3075H15.015C15.0105 21.2625 15 21.2197 15 21.1747C15 20.3662 15.684 19.7183 16.5 19.7183C17.316 19.7183 18 20.3662 18 21.1747C18 21.2197 17.9895 21.2633 17.985 21.3075H19.2098C19.5728 21.3075 19.866 20.9625 19.866 20.5425V18.3075C19.866 17.9025 19.5893 17.5687 19.2435 17.55H19.242C19.2315 17.55 19.2225 17.5425 19.212 17.5425H17.886L17.7787 17.445C17.7787 17.445 16.6688 16.389 16.0928 15.8932L16.1085 15.9105C15.741 15.5265 15.444 15.3015 14.796 15.3015H10.6725V15.3ZM13.875 16.02H14.7225C15.0397 16.02 15.2933 16.125 15.5828 16.4272L15.5917 16.4363L16.809 17.5507H14.5312C14.169 17.5507 13.875 17.205 13.875 16.7858V16.02ZM11.2125 18.675H12C12.507 18.6675 12.507 19.4325 12 19.425H11.25C10.7498 19.4513 10.7122 18.7013 11.2125 18.675ZM13.8412 18.675H14.6287C15.1365 18.6675 15.1365 19.4325 14.6287 19.425H13.8787C13.3792 19.4513 13.3418 18.7013 13.8412 18.675ZM19.4535 19.425H19.8577V20.175H19.491C18.9915 20.2013 18.9532 19.4513 19.4535 19.425ZM7.40625 20.34C6.97875 20.34 6.65625 20.658 6.65625 21.045C6.65625 21.4327 6.97875 21.75 7.40625 21.75C7.83375 21.75 8.15625 21.4327 8.15625 21.045C8.15625 20.658 7.83375 20.34 7.40625 20.34ZM16.4475 20.34C16.0192 20.34 15.6975 20.658 15.6975 21.045C15.6975 21.4327 16.0192 21.75 16.4475 21.75C16.875 21.75 17.1975 21.4327 17.1975 21.045C17.1975 20.658 16.875 20.34 16.4475 20.34Z" fill="#4A5578"/>
</svg>
