<svg width="111" height="32" viewBox="0 0 111 32" fill="none" xmlns="http://www.w3.org/2000/svg">
<path d="M27.2555 10.3883V11.055C27.2555 11.239 27.1062 11.3883 26.9222 11.3883H23.2555C23.0715 11.3883 22.9222 11.239 22.9222 11.055V10.3883C22.9222 10.0207 23.2212 9.72168 23.5889 9.72168H26.5889C26.9565 9.72168 27.2555 10.0207 27.2555 10.3883ZM23.4715 11.7217L26.9222 16.279V11.7217H23.4715ZM30.3332 22.3337H28.7962C28.6919 22.3337 28.5932 22.2847 28.5302 22.2013L21.5002 12.887L14.4702 22.2013C14.4072 22.2847 14.3085 22.3337 14.2042 22.3337H1.66654C1.54021 22.3337 1.42421 22.262 1.36787 22.1487C1.31154 22.0353 1.32421 21.9 1.40054 21.799L10.2342 10.1323C10.2972 10.049 10.3955 10.0003 10.4999 10.0003H21.4999C21.6115 9.99801 21.6962 10.0603 21.7655 10.1323L30.5989 21.799C30.7672 22.0067 30.5995 22.342 30.3332 22.3337ZM29.6629 21.667L21.4999 10.886L13.3369 21.667H14.0375L21.2335 12.1327C21.3595 11.9657 21.6399 11.9657 21.7659 12.1327L28.9619 21.667H29.6629ZM23.4332 19.3337C23.3379 22.4237 19.6625 22.424 19.5665 19.3337C19.5665 18.047 20.4339 17.0003 21.4999 17.0003C22.5659 17.0003 23.4332 18.047 23.4332 19.3337ZM21.8332 17.733V19.0003H22.7409C22.6455 18.3847 22.2895 17.898 21.8332 17.733ZM20.2589 19.0003H21.1665V17.733C20.7102 17.898 20.3542 18.3847 20.2589 19.0003ZM21.1665 20.9343V19.667H20.2589C20.3542 20.2827 20.7102 20.7693 21.1665 20.9343ZM22.7409 19.667H21.8332V20.9343C22.2895 20.7693 22.6455 20.2827 22.7409 19.667Z" fill="#006555"/>
<path d="M52.9432 14.0795C52.8485 13.7727 52.7178 13.4981 52.5511 13.2557C52.3883 13.0095 52.1913 12.7992 51.9602 12.625C51.733 12.4508 51.4716 12.3201 51.1761 12.233C50.8807 12.142 50.5587 12.0966 50.2102 12.0966C49.5852 12.0966 49.0284 12.2538 48.5398 12.5682C48.0511 12.8826 47.6667 13.3447 47.3864 13.9545C47.1098 14.5606 46.9716 15.2992 46.9716 16.1705C46.9716 17.0492 47.1098 17.7936 47.3864 18.4034C47.6629 19.0133 48.0473 19.4773 48.5398 19.7955C49.0322 20.1098 49.6042 20.267 50.2557 20.267C50.8466 20.267 51.358 20.1534 51.7898 19.9261C52.2254 19.6989 52.5606 19.3769 52.7955 18.9602C53.0303 18.5398 53.1477 18.0473 53.1477 17.483L53.625 17.5568H50.4659V15.9091H55.1875V17.3068C55.1875 18.303 54.9754 19.1648 54.5511 19.892C54.1269 20.6193 53.5436 21.1799 52.8011 21.5739C52.0587 21.964 51.2064 22.1591 50.2443 22.1591C49.1723 22.1591 48.2311 21.9186 47.4205 21.4375C46.6136 20.9527 45.983 20.2652 45.5284 19.375C45.0777 18.4811 44.8523 17.4205 44.8523 16.1932C44.8523 15.2538 44.9848 14.4148 45.25 13.6761C45.5189 12.9375 45.8939 12.3106 46.375 11.7955C46.8561 11.2765 47.4205 10.8826 48.0682 10.6136C48.7159 10.3409 49.4205 10.2045 50.1818 10.2045C50.8258 10.2045 51.4261 10.2992 51.983 10.4886C52.5398 10.6742 53.0341 10.9394 53.4659 11.2841C53.9015 11.6288 54.2595 12.0379 54.5398 12.5114C54.8201 12.9848 55.0038 13.5076 55.0909 14.0795H52.9432ZM60.9986 22.1705C60.1236 22.1705 59.3679 21.9886 58.7315 21.625C58.099 21.2576 57.6122 20.7386 57.2713 20.0682C56.9304 19.3939 56.7599 18.6004 56.7599 17.6875C56.7599 16.7898 56.9304 16.0019 57.2713 15.3239C57.616 14.642 58.0971 14.1117 58.7145 13.733C59.3319 13.3504 60.0573 13.1591 60.8906 13.1591C61.4285 13.1591 61.9361 13.2462 62.4134 13.4205C62.8944 13.5909 63.3187 13.8561 63.6861 14.2159C64.0573 14.5758 64.349 15.0341 64.5611 15.5909C64.7732 16.1439 64.8793 16.803 64.8793 17.5682V18.1989H57.7259V16.8125H62.9077C62.9039 16.4186 62.8187 16.0682 62.652 15.7614C62.4853 15.4508 62.2524 15.2064 61.9531 15.0284C61.6577 14.8504 61.313 14.7614 60.919 14.7614C60.4986 14.7614 60.1293 14.8636 59.8111 15.0682C59.4929 15.2689 59.2448 15.5341 59.0668 15.8636C58.8925 16.1894 58.8035 16.5473 58.7997 16.9375V18.1477C58.7997 18.6553 58.8925 19.0909 59.0781 19.4545C59.2637 19.8144 59.5232 20.0909 59.8565 20.2841C60.1899 20.4735 60.58 20.5682 61.027 20.5682C61.3262 20.5682 61.5971 20.5265 61.8395 20.4432C62.0819 20.3561 62.2921 20.2292 62.4702 20.0625C62.6482 19.8958 62.7827 19.6894 62.8736 19.4432L64.794 19.6591C64.6728 20.1667 64.4418 20.6098 64.1009 20.9886C63.7637 21.3636 63.3319 21.6553 62.8054 21.8636C62.2789 22.0682 61.6766 22.1705 60.9986 22.1705ZM68.6761 16.8864V22H66.6193V13.2727H68.5852V14.7557H68.6875C68.8883 14.267 69.2083 13.8788 69.6477 13.5909C70.0909 13.303 70.6383 13.1591 71.2898 13.1591C71.892 13.1591 72.4167 13.2879 72.8636 13.5455C73.3144 13.803 73.6629 14.1761 73.9091 14.6648C74.1591 15.1534 74.2822 15.7462 74.2784 16.4432V22H72.2216V16.7614C72.2216 16.178 72.0701 15.7216 71.767 15.392C71.4678 15.0625 71.053 14.8977 70.5227 14.8977C70.1629 14.8977 69.8428 14.9773 69.5625 15.1364C69.286 15.2917 69.0682 15.517 68.9091 15.8125C68.7538 16.108 68.6761 16.4659 68.6761 16.8864ZM80.233 22.1705C79.358 22.1705 78.6023 21.9886 77.9659 21.625C77.3333 21.2576 76.8466 20.7386 76.5057 20.0682C76.1648 19.3939 75.9943 18.6004 75.9943 17.6875C75.9943 16.7898 76.1648 16.0019 76.5057 15.3239C76.8504 14.642 77.3314 14.1117 77.9489 13.733C78.5663 13.3504 79.2917 13.1591 80.125 13.1591C80.6629 13.1591 81.1705 13.2462 81.6477 13.4205C82.1288 13.5909 82.553 13.8561 82.9205 14.2159C83.2917 14.5758 83.5833 15.0341 83.7955 15.5909C84.0076 16.1439 84.1136 16.803 84.1136 17.5682V18.1989H76.9602V16.8125H82.142C82.1383 16.4186 82.053 16.0682 81.8864 15.7614C81.7197 15.4508 81.4867 15.2064 81.1875 15.0284C80.892 14.8504 80.5473 14.7614 80.1534 14.7614C79.733 14.7614 79.3636 14.8636 79.0455 15.0682C78.7273 15.2689 78.4792 15.5341 78.3011 15.8636C78.1269 16.1894 78.0379 16.5473 78.0341 16.9375V18.1477C78.0341 18.6553 78.1269 19.0909 78.3125 19.4545C78.4981 19.8144 78.7576 20.0909 79.0909 20.2841C79.4242 20.4735 79.8144 20.5682 80.2614 20.5682C80.5606 20.5682 80.8314 20.5265 81.0739 20.4432C81.3163 20.3561 81.5265 20.2292 81.7045 20.0625C81.8826 19.8958 82.017 19.6894 82.108 19.4432L84.0284 19.6591C83.9072 20.1667 83.6761 20.6098 83.3352 20.9886C82.9981 21.3636 82.5663 21.6553 82.0398 21.8636C81.5133 22.0682 80.911 22.1705 80.233 22.1705ZM85.8537 22V13.2727H87.848V14.7273H87.9389C88.098 14.2235 88.3707 13.8352 88.7571 13.5625C89.1473 13.286 89.5923 13.1477 90.0923 13.1477C90.206 13.1477 90.3329 13.1534 90.473 13.1648C90.617 13.1723 90.7363 13.1856 90.831 13.2045V15.0966C90.7438 15.0663 90.6056 15.0398 90.4162 15.017C90.2306 14.9905 90.0507 14.9773 89.8764 14.9773C89.5014 14.9773 89.1643 15.0587 88.8651 15.2216C88.5696 15.3807 88.3366 15.6023 88.1662 15.8864C87.9957 16.1705 87.9105 16.4981 87.9105 16.8693V22H85.8537ZM95.7017 22.1705C94.8267 22.1705 94.071 21.9886 93.4347 21.625C92.8021 21.2576 92.3153 20.7386 91.9744 20.0682C91.6335 19.3939 91.4631 18.6004 91.4631 17.6875C91.4631 16.7898 91.6335 16.0019 91.9744 15.3239C92.3191 14.642 92.8002 14.1117 93.4176 13.733C94.035 13.3504 94.7604 13.1591 95.5938 13.1591C96.1316 13.1591 96.6392 13.2462 97.1165 13.4205C97.5975 13.5909 98.0218 13.8561 98.3892 14.2159C98.7604 14.5758 99.0521 15.0341 99.2642 15.5909C99.4763 16.1439 99.5824 16.803 99.5824 17.5682V18.1989H92.429V16.8125H97.6108C97.607 16.4186 97.5218 16.0682 97.3551 15.7614C97.1884 15.4508 96.9555 15.2064 96.6562 15.0284C96.3608 14.8504 96.0161 14.7614 95.6222 14.7614C95.2017 14.7614 94.8324 14.8636 94.5142 15.0682C94.196 15.2689 93.9479 15.5341 93.7699 15.8636C93.5956 16.1894 93.5066 16.5473 93.5028 16.9375V18.1477C93.5028 18.6553 93.5956 19.0909 93.7812 19.4545C93.9669 19.8144 94.2263 20.0909 94.5597 20.2841C94.893 20.4735 95.2831 20.5682 95.7301 20.5682C96.0294 20.5682 96.3002 20.5265 96.5426 20.4432C96.785 20.3561 96.9953 20.2292 97.1733 20.0625C97.3513 19.8958 97.4858 19.6894 97.5767 19.4432L99.4972 19.6591C99.3759 20.1667 99.1449 20.6098 98.804 20.9886C98.4669 21.3636 98.035 21.6553 97.5085 21.8636C96.982 22.0682 96.3797 22.1705 95.7017 22.1705ZM103.379 10.3636V22H101.322V10.3636H103.379ZM109.852 13.2727V14.8636H104.835V13.2727H109.852ZM106.074 11.1818H108.131V19.375C108.131 19.6515 108.172 19.8636 108.256 20.0114C108.343 20.1553 108.456 20.2538 108.597 20.3068C108.737 20.3598 108.892 20.3864 109.062 20.3864C109.191 20.3864 109.309 20.3769 109.415 20.358C109.525 20.339 109.608 20.322 109.665 20.3068L110.011 21.9148C109.902 21.9527 109.744 21.9943 109.54 22.0398C109.339 22.0852 109.093 22.1117 108.801 22.1193C108.286 22.1345 107.822 22.0568 107.409 21.8864C106.996 21.7121 106.669 21.4432 106.426 21.0795C106.188 20.7159 106.07 20.2614 106.074 19.7159V11.1818Z" fill="#101828"/>
</svg>
