<svg width="32" height="32" viewBox="0 0 32 32" fill="none" xmlns="http://www.w3.org/2000/svg">
<path d="M27.2546 10.3893V11.056C27.2546 11.24 27.1052 11.3893 26.9212 11.3893H23.2546C23.0706 11.3893 22.9212 11.24 22.9212 11.056V10.3893C22.9212 10.0217 23.2202 9.72266 23.5879 9.72266H26.5879C26.9556 9.72266 27.2546 10.0217 27.2546 10.3893ZM23.4706 11.7227L26.9212 16.28V11.7227H23.4706ZM30.3322 22.3347H28.7952C28.6909 22.3347 28.5922 22.2857 28.5292 22.2023L21.4992 12.888L14.4692 22.2023C14.4062 22.2857 14.3076 22.3347 14.2032 22.3347H1.66556C1.53923 22.3347 1.42323 22.263 1.3669 22.1497C1.31056 22.0363 1.32323 21.901 1.39956 21.8L10.2332 10.1333C10.2962 10.05 10.3946 10.0013 10.4989 10.0013H21.4989C21.6106 9.99899 21.6952 10.0613 21.7646 10.1333L30.5979 21.8C30.7662 22.0077 30.5986 22.343 30.3322 22.3347ZM29.6619 21.668L21.4989 10.887L13.3359 21.668H14.0366L21.2326 12.1337C21.3586 11.9667 21.6389 11.9667 21.7649 12.1337L28.9609 21.668H29.6619ZM23.4322 19.3347C23.3369 22.4247 19.6616 22.425 19.5656 19.3347C19.5656 18.048 20.4329 17.0013 21.4989 17.0013C22.5649 17.0013 23.4322 18.048 23.4322 19.3347ZM21.8322 17.734V19.0013H22.7399C22.6446 18.3857 22.2886 17.899 21.8322 17.734ZM20.2579 19.0013H21.1656V17.734C20.7092 17.899 20.3532 18.3857 20.2579 19.0013ZM21.1656 20.9353V19.668H20.2579C20.3532 20.2837 20.7092 20.7703 21.1656 20.9353ZM22.7399 19.668H21.8322V20.9353C22.2886 20.7703 22.6446 20.2837 22.7399 19.668Z" fill="#006555"/>
</svg>
