<svg width="24" height="24" viewBox="0 0 24 24" fill="none" xmlns="http://www.w3.org/2000/svg">
<path d="M21.75 20.625H21.375V1.5C21.375 1.28998 21.21 1.125 21 1.125H3C2.78998 1.125 2.625 1.28998 2.625 1.5V20.625H2.25C2.03998 20.625 1.875 20.79 1.875 21V22.5C1.875 22.71 2.03998 22.875 2.25 22.875H21.75C21.96 22.875 22.125 22.71 22.125 22.5V21C22.125 20.79 21.96 20.625 21.75 20.625ZM16.125 3C16.125 2.78998 16.29 2.625 16.5 2.625C16.71 2.625 16.875 2.78998 16.875 3V4.5C16.875 4.70998 16.71 4.875 16.5 4.875C16.29 4.875 16.125 4.70998 16.125 4.5V3ZM15.375 11.625H20.625V20.625H15.375V11.625ZM9.375 1.875H14.625V10.875H9.375V1.875ZM10.875 12.75V14.25C10.875 14.46 10.71 14.625 10.5 14.625C10.29 14.625 10.125 14.46 10.125 14.25V12.75C10.125 12.54 10.29 12.375 10.5 12.375C10.71 12.375 10.875 12.54 10.875 12.75ZM4.125 3C4.125 2.78998 4.28998 2.625 4.5 2.625C4.71002 2.625 4.875 2.78998 4.875 3V4.5C4.875 4.70998 4.71002 4.875 4.5 4.875C4.28998 4.875 4.125 4.70998 4.125 4.5V3ZM3.375 11.625H8.625V20.625H3.375V11.625ZM21.375 22.125H2.625V21.375H21.375V22.125Z" fill="#4A5578"/>
<path d="M10.5 2.625C10.2927 2.625 10.125 2.79272 10.125 3V4.5C10.125 4.70728 10.2927 4.875 10.5 4.875C10.7073 4.875 10.875 4.70728 10.875 4.5V3C10.875 2.79272 10.7073 2.625 10.5 2.625Z" fill="#4A5578"/>
<path d="M4.5 12.375C4.29272 12.375 4.125 12.5427 4.125 12.75V14.25C4.125 14.4573 4.29272 14.625 4.5 14.625C4.70728 14.625 4.875 14.4573 4.875 14.25V12.75C4.875 12.5427 4.70728 12.375 4.5 12.375Z" fill="#4A5578"/>
<path d="M16.5 12.375C16.2927 12.375 16.125 12.5427 16.125 12.75V14.25C16.125 14.4573 16.2927 14.625 16.5 14.625C16.7073 14.625 16.875 14.4573 16.875 14.25V12.75C16.875 12.5427 16.7073 12.375 16.5 12.375Z" fill="#4A5578"/>
</svg>
