<svg width="32" height="33" viewBox="0 0 32 33" fill="none" xmlns="http://www.w3.org/2000/svg">
<g clip-path="url(#clip0_246_233)">
<path d="M31 6.01953V11.0195V16.0195V21.0195V26.0195V31.0195H12C18.07 31.0195 23 26.0895 23 20.0195C23 13.9495 18.07 9.01953 12 9.01953C10.23 9.01953 8.56 9.43953 7.08 10.1795L7 10.0195V1.01953H31V6.01953Z" fill="#006555"/>
<path d="M12 9.01953C18.07 9.01953 23 13.9495 23 20.0195C23 26.0895 18.07 31.0195 12 31.0195C5.93 31.0195 1 26.0895 1 20.0195C1 15.7195 3.48 11.9895 7.08 10.1795C8.56 9.43953 10.23 9.01953 12 9.01953Z" fill="#DDCDFF"/>
<path d="M15 17.0195C15 15.3625 13.657 14.0195 12 14.0195M12 14.0195C10.343 14.0195 9 15.3625 9 17.0195C9 18.6765 10.343 20.0195 12 20.0195C13.657 20.0195 15 21.3625 15 23.0195C15 24.6765 13.657 26.0195 12 26.0195M12 14.0195V13.0195M12 26.0195C10.343 26.0195 9 24.6765 9 23.0195M12 26.0195V27.0195M22 31.0195H31V29.0195M25 26.0195H31V24.0195M26 21.0195H31V19.0195M26 16.0195H31V14.0195M23 11.0195H31V9.01953M10 6.01953H31V1.01953H7V6.01953M23 20.0195C23 13.9455 18.074 9.01953 12 9.01953C5.926 9.01953 1 13.9455 1 20.0195C1 26.0935 5.926 31.0195 12 31.0195C18.074 31.0195 23 26.0935 23 20.0195Z" stroke="#101828" stroke-linecap="round" stroke-linejoin="round"/>
</g>
<defs>
<clipPath id="clip0_246_233">
<rect width="32" height="32" fill="white" transform="translate(0 0.0195312)"/>
</clipPath>
</defs>
</svg>
