<svg width="32" height="33" viewBox="0 0 32 33" fill="none" xmlns="http://www.w3.org/2000/svg">
<g clip-path="url(#clip0_263_13498)">
<path d="M31 8.01953V11.0195H7V8.01953C7 7.46953 7.45 7.01953 8 7.01953H25H30C30.55 7.01953 31 7.46953 31 8.01953Z" fill="#DDCDFF"/>
<path d="M31 11.0195V30.0195C31 30.5695 30.55 31.0195 30 31.0195H8C7.45 31.0195 7 30.5695 7 30.0195V25.0195V11.0195H31Z" fill="#006555"/>
<path d="M25 2.01953V7.01953H8C7.45 7.01953 7 7.46953 7 8.01953V11.0195V25.0195H2C2 25.0195 1 25.0195 1 24.0195V2.01953C1 2.01953 1 1.01953 2 1.01953H24C24 1.01953 25 1.01953 25 2.01953Z" fill="#DDCDFF"/>
<path d="M7 11.0195H31M13 21.0195H25M13 17.0195H18M13 25.0195H25M3 25.0195H2C2 25.0195 1 25.0245 1 24.0245V2.02453C1 2.02453 1 1.01953 2 1.01953H24C24 1.01953 25 1.02453 25 2.02453V3.01953M31 30.0195C31 30.5725 30.552 31.0195 30 31.0195H8C7.448 31.0195 7 30.5725 7 30.0195V8.01953C7 7.46653 7.448 7.01953 8 7.01953H30C30.552 7.01953 31 7.46653 31 8.01953V30.0195Z" stroke="#101828" stroke-linecap="round" stroke-linejoin="round"/>
</g>
<defs>
<clipPath id="clip0_263_13498">
<rect width="32" height="32" fill="white" transform="translate(0 0.0195312)"/>
</clipPath>
</defs>
</svg>
