<svg width="32" height="33" viewBox="0 0 32 33" fill="none" xmlns="http://www.w3.org/2000/svg">
<g clip-path="url(#clip0_210_15708)">
<path d="M29 11.0195V30.0195C29 31.0195 28 31.0195 28 31.0195H4C3 31.0195 3 30.0195 3 30.0195V2.01953C3 1.01953 4 1.01953 4 1.01953H19V10.0195C19 10.0195 19 11.0195 20 11.0195H29Z" fill="#006555"/>
<path d="M29 11.0195H20C19 11.0195 19 10.0195 19 10.0195V1.01953C19 1.01953 20 1.01953 21 2.01953L28 9.01953C29 10.0195 29 11.0195 29 11.0195Z" fill="#DDCDFF"/>
<path d="M19 1.01953C19 1.01953 20 1.01953 21 2.01953L28 9.01953C29 10.0195 29 11.0195 29 11.0195V30.0195C29 31.0195 28 31.0195 28 31.0195H4C3 31.0195 3 30.0195 3 30.0195V2.01953C3 1.01953 4 1.01953 4 1.01953H19ZM19 1.01953V10.0195C19 10.0195 19 11.0195 20 11.0195H25M9 17.0195H15M9 21.0195H23M9 25.0195H23" stroke="#101828" stroke-linecap="round" stroke-linejoin="round"/>
</g>
<defs>
<clipPath id="clip0_210_15708">
<rect width="32" height="32" fill="white" transform="translate(0 0.0195312)"/>
</clipPath>
</defs>
</svg>
