<svg width="32" height="33" viewBox="0 0 32 33" fill="none" xmlns="http://www.w3.org/2000/svg">
<g clip-path="url(#clip0_210_15686)">
<path d="M16 1.01953C19.87 1.01953 23 4.14953 23 8.01953C23 11.8895 19.87 15.0195 16 15.0195C12.13 15.0195 9 11.8895 9 8.01953C9 4.14953 12.13 1.01953 16 1.01953Z" fill="#006555"/>
<path d="M5 31.0195H27M16 31.0195V15.0195C12.134 15.0195 9 11.8855 9 8.01953C9 4.15353 12.134 1.01953 16 1.01953C19.866 1.01953 23 4.15353 23 8.01953C23 10.7935 21.387 13.1915 19.047 14.3245M18.834 7.03123C18.536 6.17723 17.863 5.50023 17.014 5.19523" stroke="#101828" stroke-linecap="round" stroke-linejoin="round"/>
</g>
<defs>
<clipPath id="clip0_210_15686">
<rect width="32" height="32" fill="white" transform="translate(0 0.0195312)"/>
</clipPath>
</defs>
</svg>
