<svg width="32" height="33" viewBox="0 0 32 33" fill="none" xmlns="http://www.w3.org/2000/svg">
<g clip-path="url(#clip0_210_15714)">
<path d="M3 1.01953V12.0195H5H9L16 5.01953L23 12.0195H27H29V1.01953H3Z" fill="#DDCDFF"/>
<path d="M9.00033 12.0195H4.99933V31.0195H27.0003V12.0195H22.9993L15.9993 5.01953L9.00033 12.0195Z" fill="#006555"/>
<path d="M18 27.0195H22V23.0195H18V27.0195ZM18 19.0195H22V15.0195H18V19.0195ZM10 19.0195H14V15.0195H10V19.0195Z" fill="#DDCDFF"/>
<path d="M10 31.0195H14V23.0195H10V31.0195Z" fill="#DDCDFF"/>
<path d="M5 15.0195V31.0195M27 15.0195V31.0195M1 31.0195H31M3 1.01953V12.0195H9L16 5.01953L23 12.0195H29V1.01953H3ZM18 19.0195H22V15.0195H18V19.0195ZM18 27.0195H22V23.0195H18V27.0195ZM10 19.0195H14V15.0195H10V19.0195ZM10 31.0195H14V23.0195H10V31.0195Z" stroke="#101828" stroke-linecap="round" stroke-linejoin="round"/>
</g>
<defs>
<clipPath id="clip0_210_15714">
<rect width="32" height="32" fill="white" transform="translate(0 0.0195312)"/>
</clipPath>
</defs>
</svg>
