<svg width="69" height="68" viewBox="0 0 69 68" fill="none" xmlns="http://www.w3.org/2000/svg">
<rect x="4.5" y="4" width="60" height="60" rx="30" fill="#EFF1F5"/>
<rect x="4.5" y="4" width="60" height="60" rx="30" stroke="#F9F9FB" stroke-width="8"/>
<path d="M48.8601 28.0374H47.9346V24.6502C47.9346 24.3995 47.7295 24.1943 47.4787 24.1943C47.2235 24.1943 47.0228 24.3995 47.0228 24.6502V28.0374H46.0929C45.8421 28.0374 45.637 28.238 45.637 28.4933V33.4989C45.637 34.3559 46.2296 35.0717 47.0228 35.2723V45.1284C47.0228 45.3837 46.8177 45.5843 46.567 45.5843H39.0267V42.849H41.9945C42.7467 42.849 43.3622 42.2381 43.3622 41.4814V31.6252C44.1554 31.4246 44.7434 30.7089 44.7434 29.8518V24.8462C44.7434 24.591 44.5383 24.3904 44.2875 24.3904H43.3622V21.0032C43.3622 20.7524 43.157 20.5473 42.9063 20.5473C42.6509 20.5473 42.4504 20.7524 42.4504 21.0032V24.3904H41.5204C41.2697 24.3904 41.0645 24.591 41.0645 24.8462V29.8518C41.0645 30.7089 41.6571 31.4246 42.4504 31.6252V41.4814C42.4504 41.7367 42.2452 41.9373 41.9945 41.9373H39.0267V20.7798C39.0267 20.0276 38.4158 19.4121 37.6591 19.4121H21.0512C20.2945 19.4121 19.6836 20.0276 19.6836 20.7798V47.2209C19.6836 47.9777 20.2945 48.5886 21.0512 48.5886H37.6591C38.4158 48.5886 39.0267 47.9777 39.0267 47.2209V46.4961H46.567C47.3192 46.4961 47.9346 45.8852 47.9346 45.1284V35.2723C48.7278 35.0717 49.3159 34.3559 49.3159 33.4989V28.4933C49.3159 28.238 49.1108 28.0374 48.8601 28.0374ZM41.9763 26.884V25.3021H43.8317V26.884H41.9763ZM21.963 30.4217H27.1008V33.5855H21.963V30.4217ZM25.3502 37.4696C27.0142 35.8102 29.517 35.5093 31.4818 36.5761L24.4612 43.5967C23.399 41.6409 23.6863 39.1381 25.3502 37.4696ZM32.6762 44.7957C31.0078 46.4642 28.505 46.7468 26.5492 45.6846L33.5698 38.664C34.632 40.6289 34.3402 43.1317 32.6762 44.7957ZM36.7473 33.5855H31.6095V30.4217H36.7473V33.5855ZM36.7473 28.1423H21.963V21.6915H36.7473V28.1423ZM48.4042 30.5311H46.5488V28.9492H48.4042V30.5311Z" fill="#006555"/>
</svg>
