<svg width="68" height="68" viewBox="0 0 68 68" fill="none" xmlns="http://www.w3.org/2000/svg">
<rect x="4" y="4" width="60" height="60" rx="30" fill="#EFF1F5"/>
<rect x="4" y="4" width="60" height="60" rx="30" stroke="#F9F9FB" stroke-width="8"/>
<path fill-rule="evenodd" clip-rule="evenodd" d="M36.6451 47.9975H29.8134V44.5766H37.5633V47.0766C37.5621 47.5848 37.1511 47.995 36.6451 47.9975ZM21.582 24.8338L19.2114 28.2572H28.7554L26.3985 24.8423L21.582 24.8338ZM26.177 24.2301V21.4921C26.1745 21.2206 25.9568 21.0025 25.6858 21H22.281C22.0113 21.0025 21.7936 21.2219 21.7936 21.4921V24.224L26.177 24.2301ZM19 28.8696V29.8537C19.0012 30.1909 19.2747 30.4636 19.6112 30.466H28.3557C28.6922 30.4636 28.9656 30.1909 28.9669 29.8537V28.8696H19ZM38.1781 45.8495V34.1239H49V45.8644C49 46.3727 48.5892 46.7854 48.082 46.7854H39.0962C38.5889 46.7854 38.1782 46.3726 38.1782 45.8644L38.1781 45.8495ZM39.6157 29.4658C39.6157 29.1274 39.8892 28.8535 40.2269 28.8535C40.5647 28.8535 40.8381 29.1274 40.8381 29.4658V30.8528C40.8381 31.1912 40.5647 31.4651 40.2269 31.4651C39.8892 31.4651 39.6157 31.1912 39.6157 30.8528V29.4658ZM39.6157 38.1744V38.1732C39.6157 38.5115 39.8892 38.7855 40.2269 38.7855C40.5647 38.7855 40.8381 38.5115 40.8381 38.1732V36.1714C40.8381 35.833 40.5647 35.5578 40.2269 35.5578C39.8892 35.5578 39.6157 35.833 39.6157 36.1714V38.1744ZM38.1781 33.5115H49V27.4194C49 26.9112 48.5892 26.4997 48.082 26.4997H39.0962C38.5889 26.4997 38.1782 26.9113 38.1782 27.4194L38.1781 33.5115ZM40.5634 47.26L40.2801 47.8289C40.2281 47.9318 40.123 47.9975 40.0079 48H39.4512C39.3621 48.0012 39.2767 47.9616 39.2198 47.8921C39.1604 47.8264 39.1344 47.736 39.1505 47.648L39.2074 47.2637L40.5634 47.26ZM46.6135 47.26L46.8981 47.8252H46.8969C46.9463 47.9318 47.0527 47.9987 47.169 47.9975H47.727C47.8161 47.9975 47.9015 47.9578 47.9584 47.8896C48.0178 47.8227 48.0437 47.7322 48.0277 47.6455L47.9707 47.2612L46.6135 47.26ZM29.1936 47.9962L19.9183 47.9975C19.4122 47.995 19.0015 47.5847 19.0003 47.0765V37.7355C19.0015 37.2273 19.4123 36.8171 19.9183 36.8146H29.2021V47.9973L29.1936 47.9962ZM29.8048 36.8148H36.6454C37.1515 36.8173 37.5622 37.2276 37.5634 37.7357V40.2358H29.8134V36.8149L29.8048 36.8148ZM29.8048 40.8482H37.5633V43.9643H29.8133V40.8482H29.8048ZM32.7592 38.9852H34.3169C34.4542 38.948 34.5507 38.8228 34.5507 38.679C34.5507 38.5365 34.4542 38.4101 34.3169 38.3729H32.7679C32.6726 38.3469 32.5712 38.3667 32.4932 38.4274C32.4141 38.4869 32.3683 38.5799 32.3683 38.679C32.3683 38.7782 32.4141 38.8712 32.4932 38.9319C32.5712 38.9914 32.6726 39.0112 32.7679 38.9852L32.7592 38.9852ZM32.7592 42.7136H34.3169C34.4579 42.6789 34.5569 42.5512 34.5569 42.4062C34.5569 42.2612 34.4579 42.1335 34.3169 42.0988H32.7679C32.6269 42.1335 32.5279 42.2612 32.5279 42.4062C32.5279 42.5512 32.6269 42.6789 32.7679 42.7136H32.7592ZM32.7592 46.4382L34.3169 46.4394C34.4542 46.401 34.5507 46.2758 34.5507 46.1333C34.5507 45.9895 34.4542 45.8643 34.3169 45.8271H32.7679C32.6726 45.8011 32.5712 45.8209 32.4932 45.8804C32.4141 45.9412 32.3683 46.0341 32.3683 46.1333C32.3683 46.2312 32.4141 46.3254 32.4932 46.3849C32.5712 46.4444 32.6726 46.4655 32.7679 46.4395L32.7592 46.4382ZM22.2268 38.3096C22.2268 38.0902 22.0957 37.8919 21.8928 37.8089C21.6911 37.7246 21.4573 37.7705 21.3026 37.9254C21.1479 38.0816 21.1022 38.3146 21.1851 38.5179C21.2692 38.7199 21.4672 38.8526 21.6861 38.8526C21.9843 38.8501 22.2256 38.6083 22.2268 38.3096ZM25.9743 38.3096C25.9755 38.529 26.1079 38.7261 26.3108 38.8091C26.5137 38.8922 26.7451 38.8439 26.8997 38.6889C27.0544 38.534 27.1002 38.3009 27.016 38.0977C26.9319 37.8956 26.7352 37.7642 26.5162 37.7642C26.2168 37.7655 25.9743 38.0097 25.9743 38.3096ZM24.0974 38.8525H24.0987C24.3189 38.85 24.5156 38.7149 24.5985 38.5104C24.6801 38.3059 24.6319 38.0717 24.4748 37.9167C24.3176 37.763 24.0838 37.7184 23.8809 37.8039C23.678 37.8894 23.5469 38.089 23.5481 38.3096C23.5481 38.6096 23.7906 38.8525 24.09 38.8525L24.0974 38.8525ZM27.5146 39.5342H20.6977C20.1904 39.5342 19.7797 39.947 19.7797 40.4552V46.122C19.7797 46.6302 20.1904 47.0417 20.6977 47.0417H27.5171C27.7608 47.0417 27.9934 46.9451 28.1667 46.7728C28.3386 46.5992 28.4351 46.3662 28.4351 46.122V40.4612C28.4351 39.953 28.0244 39.5402 27.5171 39.5402L27.5146 39.5342ZM20.6977 40.1527C20.5232 40.1527 20.381 40.2953 20.381 40.4701V46.122C20.381 46.2063 20.4144 46.2869 20.4737 46.3464C20.5331 46.4059 20.6136 46.4393 20.6977 46.4393H27.5171C27.6012 46.4393 27.6817 46.4059 27.7411 46.3464C27.8004 46.2869 27.8338 46.2063 27.8338 46.122V40.4612C27.8338 40.3794 27.8004 40.3013 27.7411 40.2455C27.6854 40.186 27.6074 40.1525 27.5258 40.1525L20.6977 40.1527Z" fill="#006555"/>
</svg>
