<svg width="69" height="68" viewBox="0 0 69 68" fill="none" xmlns="http://www.w3.org/2000/svg">
<rect x="4.5" y="4" width="60" height="60" rx="30" fill="#EFF1F5"/>
<rect x="4.5" y="4" width="60" height="60" rx="30" stroke="#F9F9FB" stroke-width="8"/>
<path d="M36.7667 26.8008H40.0076L39.5654 25.001H36.6094L36.7667 26.8008Z" fill="#006555"/>
<path d="M42.7177 35.0191H46.8664L43.2015 25H40.252L42.7177 35.0191Z" fill="#006555"/>
<path d="M47.1097 35.6855H42.8818L44.7194 43.1531H49.8409L47.1097 35.6855Z" fill="#006555"/>
<path d="M32.0127 28.4944L32.317 25H29.3831L28.5234 28.4944H32.0127Z" fill="#006555"/>
<path d="M22.3473 34.373L19.1377 43.1527H24.2292L26.3906 34.373H22.3473Z" fill="#006555"/>
<path d="M26.5544 33.7067L28.6976 25H25.7754L22.5918 33.7067H26.5544Z" fill="#006555"/>
<path d="M40.1731 27.4658H36.8242L37.6683 37.1623C37.6748 37.1896 37.6852 37.2143 37.6852 37.2443C37.6852 37.256 37.68 37.2651 37.6787 37.2768L37.9414 40.2939H43.3295L40.1731 27.4658Z" fill="#006555"/>
<path d="M31.9482 36.9125H36.9798L35.942 25H32.9846L31.9482 36.9125Z" fill="#006555"/>
<path d="M43.4933 40.96H38L38.1899 43.1526H44.0331L43.4933 40.96Z" fill="#006555"/>
<path d="M31.9544 29.1602H28.3598L24.916 43.1521H30.7369L31.9544 29.1602Z" fill="#006555"/>
<path d="M37.0364 37.5781H31.8903L31.4053 43.152H37.5215L37.0364 37.5781Z" fill="#006555"/>
</svg>
