<svg width="68" height="68" viewBox="0 0 68 68" fill="none" xmlns="http://www.w3.org/2000/svg">
<rect x="4" y="4" width="60" height="60" rx="30" fill="#EFF1F5"/>
<rect x="4" y="4" width="60" height="60" rx="30" stroke="#F9F9FB" stroke-width="8"/>
<path d="M42.2418 29.9971L34.3721 38.4221L36.4106 40.3385L39.3823 37.1606C39.5344 37.04 39.7507 37.0641 39.8709 37.2128L44.4245 42.9621C44.7729 43.4 45.2976 43.5848 45.8462 43.5647C47.0798 43.5165 48.097 42.5161 48.057 41.2545C48.0409 40.7041 47.8167 40.1577 47.3881 39.7479L41.3727 35.5655C41.2325 35.433 41.2285 35.212 41.3567 35.0714L44.2803 31.9095L42.2418 29.9971ZM45.9424 40.3104C46.5671 40.2863 47.0878 40.7805 47.1078 41.4072C47.1278 42.034 46.6392 42.5603 46.0144 42.5804C45.3897 42.6005 44.865 42.1063 44.845 41.4795C44.825 40.8528 45.3176 40.3305 45.9424 40.3104ZM45.9624 41.0055C45.7221 41.0135 45.5338 41.2184 45.5419 41.4594C45.5499 41.7005 45.7501 41.8893 45.9904 41.8813C46.2347 41.8733 46.4229 41.6724 46.4149 41.4313C46.4069 41.1903 46.2027 40.9974 45.9624 41.0055Z" fill="#006555"/>
<path d="M36.0066 30.4186L34.4807 28.9802C34.1483 28.6709 34.6169 28.1606 34.9533 28.474L36.4832 29.9083L39.1345 27.0719L34.6129 22.8252L26.7432 31.2502L31.2607 35.4969L32.8187 33.8336L30.0793 31.2623C29.7469 30.9489 30.2235 30.4387 30.5559 30.752L33.2912 33.3233L33.8599 32.7167L32.3341 31.2783C31.9977 30.965 32.4742 30.4587 32.8107 30.7721L34.3365 32.2064L36.0066 30.4186Z" fill="#006555"/>
<path d="M33.8641 37.9435L41.7338 29.5185L39.6392 27.5498C37.016 30.3581 34.3928 33.1665 31.7695 35.9748L33.8641 37.9435Z" fill="#006555"/>
<path d="M25.9979 31.0289L32.5299 24.0342H19.9424V44.3193C19.9624 45.5005 22.0089 45.6974 22.037 44.2872L22.0089 35.8943C22.0009 32.5195 25.8817 32.7766 25.9017 35.9947L25.9298 40.1932C25.9258 41.1173 28.0564 41.1856 28.0564 40.1811C28.0564 38.6263 28.1365 36.9992 28.1846 35.4363C28.1926 35.3037 28.2126 35.1751 28.2446 35.0586C28.3327 34.693 28.541 34.3796 28.8774 34.2149L26.0139 31.5231C25.8737 31.3905 25.8657 31.1695 25.9979 31.0289Z" fill="#006555"/>
</svg>
