<svg width="72" height="72" viewBox="0 0 72 72" fill="none" xmlns="http://www.w3.org/2000/svg">
<path d="M48.6 63H20.7941C18.9767 63 18.0679 63 17.6471 62.6406C17.282 62.3288 17.0883 61.861 17.1259 61.3823C17.1694 60.8306 17.8119 60.1881 19.0971 58.9029L44.6059 33.3941C45.7939 32.2061 46.388 31.612 47.0729 31.3895C47.6755 31.1937 48.3245 31.1937 48.9271 31.3895C49.612 31.612 50.2061 32.2061 51.3941 33.3941L63 45V48.6M48.6 63C53.6405 63 56.1607 63 58.0859 62.0191C59.7794 61.1562 61.1562 59.7794 62.0191 58.0859C63 56.1607 63 53.6405 63 48.6M48.6 63H23.4C18.3595 63 15.8393 63 13.9141 62.0191C12.2206 61.1562 10.8438 59.7794 9.98094 58.0859C9 56.1607 9 53.6405 9 48.6V23.4C9 18.3595 9 15.8393 9.98094 13.9141C10.8438 12.2206 12.2206 10.8438 13.9141 9.98094C15.8393 9 18.3595 9 23.4 9H48.6C53.6405 9 56.1607 9 58.0859 9.98094C59.7794 10.8438 61.1562 12.2206 62.0191 13.9141C63 15.8393 63 18.3595 63 23.4V48.6M31.5 25.5C31.5 28.8137 28.8137 31.5 25.5 31.5C22.1863 31.5 19.5 28.8137 19.5 25.5C19.5 22.1863 22.1863 19.5 25.5 19.5C28.8137 19.5 31.5 22.1863 31.5 25.5Z" stroke="#7D89B0" stroke-width="4" stroke-linecap="round" stroke-linejoin="round"/>
</svg>
