<svg width="68" height="68" viewBox="0 0 68 68" fill="none" xmlns="http://www.w3.org/2000/svg">
<rect x="4" y="4" width="60" height="60" rx="30" fill="#EFF1F5"/>
<rect x="4" y="4" width="60" height="60" rx="30" stroke="#FBFAF9" stroke-width="8"/>
<path d="M44.9196 22.5996H23.0796C22.8156 22.5996 22.5996 22.8156 22.5996 23.0796V44.9196C22.5996 45.1836 22.8156 45.3996 23.0796 45.3996H44.9196C45.1836 45.3996 45.3996 45.1836 45.3996 44.9196V23.0796C45.3996 22.8156 45.1836 22.5996 44.9196 22.5996ZM44.4396 44.4396H23.5596V23.5596H44.4636V44.4396H44.4396Z" fill="#006555"/>
<path d="M29.7366 33.7562L27.7168 35.7754L33.7744 41.8347L35.7941 39.8155L29.7366 33.7562Z" fill="#006555"/>
<path d="M41.1523 41.1762L43.6483 43.6482V39.6162L43.1683 39.1602L41.1523 41.1762Z" fill="#006555"/>
<path d="M40.4796 36.4473L34.4316 42.5193L35.5596 43.6473H37.3356L42.4956 38.4633L40.4796 36.4473Z" fill="#006555"/>
<path d="M38.6797 43.6477H42.3037L40.4797 41.8477L38.6797 43.6477Z" fill="#006555"/>
<path d="M25.2393 43.6472H28.8393L27.0393 41.8232L25.2393 43.6472Z" fill="#006555"/>
<path d="M41.1523 35.7758L43.6483 38.2718V34.2398L43.1683 33.7598L41.1523 35.7758Z" fill="#006555"/>
<path d="M27.7119 41.1517L30.1839 43.6477H34.2159L29.7279 39.1357L27.7119 41.1517Z" fill="#006555"/>
<path d="M40.4959 31.0705L34.4375 37.1289L36.457 39.1484L42.5154 33.09L40.4959 31.0705Z" fill="#006555"/>
<path d="M29.7373 28.3799L27.7178 30.3994L33.7762 36.4578L35.7957 34.4384L29.7373 28.3799Z" fill="#006555"/>
<path d="M35.104 24.3516H32.416L33.76 25.6956L35.104 24.3516Z" fill="#006555"/>
<path d="M27.0396 25.6953L24.3516 28.3833V32.4153L29.0556 27.7113L27.0396 25.6953Z" fill="#006555"/>
<path d="M27.0396 31.0713L24.3516 33.7593V37.7913L29.0556 33.0873L27.0396 31.0713Z" fill="#006555"/>
<path d="M27.0396 36.4473L24.3516 39.1353V43.1673L29.0556 38.4633L27.0396 36.4473Z" fill="#006555"/>
<path d="M24.3516 24.3516V27.0396L27.0396 24.3516H24.3516Z" fill="#006555"/>
<path d="M41.1523 30.3998L43.6483 32.8958V28.8638L43.1683 28.3838L41.1523 30.3998Z" fill="#006555"/>
<path d="M35.7759 29.0556L31.0719 24.3516H28.3839L27.7119 25.0236L33.7599 31.0716L35.7759 29.0556Z" fill="#006555"/>
<path d="M43.6483 24.3516H41.8243L41.1523 25.0236L43.6483 27.5196V24.3516Z" fill="#006555"/>
<path d="M36.4476 33.7593L42.4956 27.7113L40.4796 25.6953L34.4316 31.7433L36.4476 33.7593Z" fill="#006555"/>
<path d="M36.4476 28.3836L40.4796 24.3516H36.4476L34.4316 26.3676L36.4476 28.3836Z" fill="#006555"/>
</svg>
