<svg width="68" height="68" viewBox="0 0 68 68" fill="none" xmlns="http://www.w3.org/2000/svg">
<rect x="4" y="4" width="60" height="60" rx="30" fill="#EFF1F5"/>
<rect x="4" y="4" width="60" height="60" rx="30" stroke="#F9F9FB" stroke-width="8"/>
<path fill-rule="evenodd" clip-rule="evenodd" d="M39.8513 43.3592V37.166C39.8513 33.9274 37.2377 31.3138 33.9991 31.3138C30.7605 31.3138 28.1469 33.9275 28.1469 37.166V43.3592H27.1242V37.166C27.1242 33.3592 30.1924 30.291 33.9992 30.291C37.8061 30.291 40.8743 33.3592 40.8743 37.166V43.3592H39.8513ZM26.4422 43.3592H22.2377H22.1808V42.166H24.5104C24.6808 42.166 24.8513 41.9956 24.8513 41.8251V39.2683C24.8513 39.0978 24.6808 38.9274 24.5104 38.9274H22.1808V37.3933H25.4195C25.6468 37.3933 25.7604 37.2228 25.7604 37.0524V34.4955C25.7604 34.2683 25.6468 34.1546 25.4195 34.1546H22.1808V32.5637H26.4421C26.6693 32.5637 26.783 32.4501 26.783 32.2228V29.6659C26.783 29.4955 26.6694 29.325 26.4421 29.325H22.1808V28.1318H22.2377H28.1466V29.1546C28.1466 29.3818 28.2602 29.4955 28.4875 29.4955H32.3511C32.5784 29.4955 32.692 29.3818 32.692 29.1546V28.1318H35.3056V29.1546C35.3056 29.3818 35.4193 29.4955 35.6466 29.4955H39.5101C39.7374 29.4955 39.851 29.3818 39.851 29.1546V28.1318H45.76H45.8168V29.325H41.5556C41.3283 29.325 41.2146 29.4955 41.2146 29.6659V32.2228C41.2146 32.45 41.3283 32.5637 41.5556 32.5637H45.8168V34.1546H42.5781C42.3508 34.1546 42.2372 34.2683 42.2372 34.4955V37.0524C42.2372 37.2228 42.3508 37.3933 42.5781 37.3933H45.8168V38.9274H43.4873C43.3168 38.9274 43.1463 39.0978 43.1463 39.2683V41.8251C43.1463 41.9956 43.3168 42.166 43.4873 42.166H45.8168V43.3592H45.76H41.5555V37.166C41.5555 33.0183 38.1463 29.6091 33.9985 29.6091C29.8507 29.6091 26.4416 33.0183 26.4416 37.166L26.4422 43.3592ZM28.8285 28.1319H32.0105V28.8137H28.8285V28.1319ZM35.9875 28.1319H39.1695V28.8137H35.9875V28.1319ZM45.817 34.8364V36.7114H42.9193V34.8364H45.817ZM45.817 30.0068V31.8818H41.8964V30.0068H45.817ZM45.817 39.6091V41.4841H43.8284V39.6091H45.817ZM22.1807 36.7114V34.8364H25.0784V36.7114H22.1807ZM22.1807 31.8817V30.0067H26.1012V31.8817H22.1807ZM22.1807 41.484V39.609H24.1693V41.484H22.1807Z" fill="#006555"/>
<path fill-rule="evenodd" clip-rule="evenodd" d="M45.7606 27.4503H22.238C21.4425 27.4503 20.7607 26.7684 20.7607 25.973V25.8594H47.2381V25.973C47.2381 26.7685 46.5561 27.4503 45.7606 27.4503Z" fill="#006555"/>
<path fill-rule="evenodd" clip-rule="evenodd" d="M46.8972 46.9955H21.1017C20.9312 46.9955 20.7607 46.8819 20.7607 46.6546V45.5183C20.7607 44.7228 21.4426 44.041 22.238 44.041H45.7606C46.5561 44.041 47.2379 44.7228 47.2379 45.5183V46.6546C47.2379 46.8819 47.0676 46.9955 46.8972 46.9955Z" fill="#006555"/>
<path fill-rule="evenodd" clip-rule="evenodd" d="M47.522 25.1775H20.4765C19.9651 25.1775 19.5674 24.7797 19.5674 24.2684V22.0525C19.5674 21.5979 19.9651 21.2002 20.4765 21.2002H47.522C48.0334 21.2002 48.4311 21.5979 48.4311 22.0525V24.2684C48.4311 24.7797 48.0334 25.1775 47.522 25.1775Z" fill="#006555"/>
<path fill-rule="evenodd" clip-rule="evenodd" d="M32.4087 43.3594V43.1321C32.4087 42.6775 32.8633 41.9389 33.4314 40.973C33.5451 40.7457 33.6587 40.5753 33.7155 40.4616C33.7723 40.4048 33.886 40.2912 33.9996 40.2912C34.1133 40.2912 34.2269 40.4048 34.2837 40.4616C34.3405 40.5753 34.4542 40.7457 34.5678 40.973C35.136 41.9389 35.5905 42.6775 35.5905 43.1321V43.3594H38.0337C38.2041 42.5071 37.6928 41.7116 37.1814 40.8025C36.386 39.3821 35.5905 38.0184 37.2382 36.598C37.3519 36.5412 37.3519 36.4276 37.3519 36.2571C37.2951 36.1435 37.2382 36.0298 37.1246 36.0298C36.7269 35.9162 36.3859 35.8594 36.1019 35.8594C34.3973 35.8594 33.7155 37.223 33.4882 38.4162C32.6928 37.6207 31.8973 37.5071 31.4996 37.5071H31.1587C31.0451 37.5639 30.9882 37.6207 30.9314 37.7344C30.8746 37.7912 30.8746 37.9617 30.9314 38.0185C31.5564 38.9844 31.1019 39.8935 30.5905 40.8594C30.1928 41.6548 29.7382 42.5071 30.0223 43.3594L32.4087 43.3594ZM33.9996 41.3139C33.7156 41.8253 33.0906 42.848 33.0906 43.1321C33.0906 43.2457 33.0906 43.3026 33.1474 43.3594H34.8519C34.9087 43.3026 34.9087 43.2457 34.9087 43.1321C34.9087 42.848 34.2837 41.8253 33.9996 41.3139Z" fill="#006555"/>
<path fill-rule="evenodd" clip-rule="evenodd" d="M48.204 46.9953H19.795C19.6246 46.9953 19.4541 46.8817 19.4541 46.6544C19.4541 46.4839 19.6246 46.3135 19.795 46.3135H48.204C48.3745 46.3135 48.545 46.4839 48.545 46.6544C48.545 46.8817 48.3745 46.9953 48.204 46.9953Z" fill="#006555"/>
</svg>
