<svg width="69" height="68" viewBox="0 0 69 68" fill="none" xmlns="http://www.w3.org/2000/svg">
<rect x="4.5" y="4" width="60" height="60" rx="30" fill="#EFF1F5"/>
<rect x="4.5" y="4" width="60" height="60" rx="30" stroke="#F9F9FB" stroke-width="8"/>
<path d="M47.7754 28.1973C47.7647 28.1626 47.7406 28.1319 47.7166 28.1052C47.6577 28.0545 47.5895 28.0198 47.5078 28.0198H46.6556V22.0664H47.5078C47.6684 22.0664 47.7995 21.9396 47.7995 21.7754V20.6168C47.7995 20.518 47.7487 20.4326 47.6724 20.3779C47.6242 20.3432 47.5667 20.3271 47.5119 20.3271C47.4878 20.3271 47.4704 20.3271 47.453 20.3338L38.1653 20.3352C38.0904 20.3352 38.0142 20.3619 37.9566 20.4166L22.2872 36.057C22.2631 36.081 22.2457 36.105 22.239 36.125C22.2283 36.1491 22.2149 36.1731 22.2122 36.1931V36.2038C22.2055 36.2211 22.2055 36.2385 22.2055 36.2545C22.2055 36.2719 22.2055 36.2892 22.2122 36.3026C22.2122 36.3266 22.2189 36.3506 22.2229 36.368C22.2336 36.4027 22.2577 36.4334 22.2885 36.4601L23.114 37.2837C23.1648 37.3344 23.2411 37.3651 23.316 37.3651C23.3909 37.3651 23.4672 37.3384 23.518 37.2837L23.795 37.0074L23.7936 43.9097H22.4919C22.3313 43.9097 22.2002 44.0365 22.2002 44.2007V47.3816C22.2002 47.5391 22.3273 47.6726 22.4919 47.6726H28.3959C28.4307 47.6726 28.4708 47.6659 28.5056 47.6486C28.5404 47.6379 28.5739 47.6139 28.6046 47.5832L47.7166 28.515C47.7434 28.4883 47.7648 28.4563 47.7755 28.4229C47.7822 28.4056 47.7862 28.3815 47.7929 28.3642C47.8036 28.3228 47.8036 28.2788 47.7862 28.2374C47.7888 28.2254 47.7821 28.208 47.7754 28.1973ZM26.9818 40.7353H25.6773C25.5194 40.7353 25.3856 40.8621 25.3856 41.0263L25.387 43.9095H24.3769L24.3755 36.4266L26.9818 33.8263L26.9818 40.7353ZM30.1646 37.557H28.8628C28.7023 37.557 28.5712 37.6905 28.5712 37.848V40.7393H27.5611V33.2481L30.1606 30.6546V37.5569L30.1646 37.557ZM33.3462 34.3828H32.0444C31.8865 34.3828 31.7527 34.5096 31.7527 34.6738V37.5584H30.7426V30.0754L33.3421 27.4819V34.3829L33.3462 34.3828ZM36.5277 31.2006H35.2326C35.0721 31.2006 34.941 31.334 34.941 31.4916V34.3828H33.9242V26.8999L36.5237 24.3063L36.525 31.2008L36.5277 31.2006ZM39.7133 28.0304H38.4115C38.2536 28.0304 38.1198 28.1572 38.1198 28.3213V31.2059H37.103V23.724L38.7647 22.0661H39.7106L39.7092 28.0301L39.7133 28.0304ZM42.8948 28.0157H41.6064C41.5796 28.0157 41.5556 28.0223 41.5315 28.0263H40.2953V22.0665H42.8948L42.8948 28.0157ZM46.0763 28.0157H43.4768V22.0664H46.0763V28.0157Z" fill="#006555"/>
</svg>
