<svg width="69" height="68" viewBox="0 0 69 68" fill="none" xmlns="http://www.w3.org/2000/svg">
<rect x="4.5" y="4" width="60" height="60" rx="30" fill="#EFF1F5"/>
<rect x="4.5" y="4" width="60" height="60" rx="30" stroke="#F9F9FB" stroke-width="8"/>
<path d="M32.5601 30.1392V36.4086C32.5601 36.7575 32.276 37.0416 31.9271 37.0416H31.6874V29.5064H31.9271C32.276 29.5064 32.5601 29.7904 32.5601 30.1392ZM45.3988 41.9973C45.3988 41.9973 42.8965 43.97 42.8965 46.2029C42.8965 47.5848 44.017 48.7052 45.3988 48.7052C46.7806 48.7052 47.9011 47.5848 47.9011 46.2029C47.9011 43.9711 45.3988 41.9973 45.3988 41.9973ZM47.8567 38.9712H42.9418C42.6577 38.9712 42.4248 39.2042 42.4248 39.4883V40.1905C42.4248 40.4746 42.6577 40.7076 42.9418 40.7076H47.8567C48.1408 40.7076 48.3738 40.4746 48.3738 40.1905V39.4883C48.3738 39.2042 48.1408 38.9712 47.8567 38.9712ZM34.7725 27.7904H36.0248V28.7313C36.3066 28.6791 36.5964 28.6518 36.8884 28.6518C37.1805 28.6518 37.4703 28.6791 37.7521 28.7313L37.7532 27.7904H39.0055C39.5225 27.7904 39.9453 27.3677 39.9453 26.8506C39.9453 26.3336 39.5226 25.9109 39.0055 25.9109H34.7725C34.2554 25.9109 33.8327 26.3336 33.8327 26.8506C33.8327 27.3677 34.2566 27.7904 34.7725 27.7904ZM42.9418 38.1052H47.8509C47.4157 34.0336 43.9635 30.8438 39.7793 30.8325C39.0759 30.0279 38.0418 29.5188 36.8896 29.5188C35.7373 29.5188 34.7032 30.0268 33.9998 30.8325L33.4271 30.8313V35.7166H33.8657C34.568 36.6143 35.6611 37.1927 36.8906 37.1927C38.1178 37.1927 39.2099 36.6166 39.9122 35.7211C41.3395 35.7893 42.5259 36.7847 42.8952 38.1063C42.91 38.1052 42.9259 38.1052 42.9418 38.1052ZM31.1373 22.2041H22.0476C21.8157 22.2041 21.626 22.3939 21.626 22.6257V23.7837C21.626 24.0155 21.8146 24.2052 22.0476 24.2052H31.1373C31.3691 24.2052 31.5589 24.0155 31.5589 23.7837V22.6257C31.5589 22.3939 31.3691 22.2041 31.1373 22.2041ZM22.3635 25.0712V41.7065H30.8202V25.0712H22.3635ZM31.1373 42.5734H22.0476C21.8157 42.5734 21.626 42.7621 21.626 42.995V44.153C21.626 44.3848 21.8146 44.5745 22.0476 44.5745H31.1373C31.3691 44.5745 31.5589 44.3848 31.5589 44.153V42.995C31.5589 42.762 31.3691 42.5734 31.1373 42.5734Z" fill="#006555"/>
</svg>
