<svg width="110" height="40" viewBox="0 0 110 40" fill="none" xmlns="http://www.w3.org/2000/svg">
<path d="M109.454 35.8244V39.3044H107.366C105.878 39.3044 104.718 38.9444 103.886 38.2244C103.054 37.4884 102.638 36.2964 102.638 34.6484V29.3204H101.006V25.9124H102.638V22.6484H106.742V25.9124H109.43V29.3204H106.742V34.6964C106.742 35.0964 106.838 35.3844 107.03 35.5604C107.222 35.7364 107.542 35.8244 107.99 35.8244H109.454Z" fill="#00231D"/>
<path d="M94.3917 25.7695C96.0557 25.7695 97.3757 26.2735 98.3517 27.2815C99.3437 28.2895 99.8397 29.6895 99.8397 31.4815V39.3055H95.7597V32.0335C95.7597 31.1695 95.5277 30.5055 95.0637 30.0415C94.6157 29.5615 93.9917 29.3215 93.1917 29.3215C92.3917 29.3215 91.7597 29.5615 91.2957 30.0415C90.8477 30.5055 90.6237 31.1695 90.6237 32.0335V39.3055H86.5437V32.0335C86.5437 31.1695 86.3117 30.5055 85.8477 30.0415C85.3997 29.5615 84.7757 29.3215 83.9757 29.3215C83.1757 29.3215 82.5437 29.5615 82.0797 30.0415C81.6317 30.5055 81.4077 31.1695 81.4077 32.0335V39.3055H77.3037V25.9135H81.4077V27.5935C81.8237 27.0335 82.3677 26.5935 83.0397 26.2735C83.7117 25.9375 84.4717 25.7695 85.3197 25.7695C86.3277 25.7695 87.2237 25.9855 88.0077 26.4175C88.8077 26.8495 89.4317 27.4655 89.8797 28.2655C90.3437 27.5295 90.9757 26.9295 91.7757 26.4655C92.5757 26.0015 93.4477 25.7695 94.3917 25.7695Z" fill="#00231D"/>
<path d="M68.8388 39.4948C67.5268 39.4948 66.3428 39.2148 65.2868 38.6548C64.2468 38.0948 63.4228 37.2948 62.8148 36.2548C62.2228 35.2148 61.9268 33.9988 61.9268 32.6068C61.9268 31.2308 62.2308 30.0228 62.8388 28.9828C63.4468 27.9268 64.2788 27.1188 65.3348 26.5588C66.3908 25.9988 67.5748 25.7188 68.8868 25.7188C70.1988 25.7188 71.3828 25.9988 72.4388 26.5588C73.4948 27.1188 74.3268 27.9268 74.9348 28.9828C75.5428 30.0228 75.8468 31.2308 75.8468 32.6068C75.8468 33.9828 75.5348 35.1988 74.9108 36.2548C74.3028 37.2948 73.4628 38.0948 72.3908 38.6548C71.3348 39.2148 70.1508 39.4948 68.8388 39.4948ZM68.8388 35.9428C69.6228 35.9428 70.2868 35.6548 70.8308 35.0788C71.3908 34.5028 71.6708 33.6788 71.6708 32.6068C71.6708 31.5348 71.3988 30.7108 70.8548 30.1348C70.3268 29.5588 69.6708 29.2708 68.8868 29.2708C68.0868 29.2708 67.4228 29.5588 66.8948 30.1348C66.3668 30.6948 66.1028 31.5188 66.1028 32.6068C66.1028 33.6788 66.3588 34.5028 66.8708 35.0788C67.3988 35.6548 68.0548 35.9428 68.8388 35.9428Z" fill="#00231D"/>
<path d="M61.4031 22.4609V25.7489H56.9391V39.3089H52.8351V25.7489H48.3711V22.4609H61.4031Z" fill="#00231D"/>
<path d="M41.392 25.9609C42.96 25.9609 44.24 26.4489 45.232 27.4249C46.224 28.3849 46.72 29.7849 46.72 31.6249V39.3049H45.064V31.8169C45.064 30.3929 44.704 29.3049 43.984 28.5529C43.28 27.8009 42.312 27.4249 41.08 27.4249C39.816 27.4249 38.808 27.8249 38.056 28.6249C37.304 29.4249 36.928 30.6009 36.928 32.1529V39.3049H35.248V26.2009H36.928V28.4329C37.344 27.6329 37.944 27.0249 38.728 26.6089C39.512 26.1769 40.4 25.9609 41.392 25.9609Z" fill="#00231D"/>
<path d="M31.3236 23.7298C30.9876 23.7298 30.6996 23.6098 30.4596 23.3698C30.2196 23.1298 30.0996 22.8338 30.0996 22.4818C30.0996 22.1298 30.2196 21.8418 30.4596 21.6178C30.6996 21.3778 30.9876 21.2578 31.3236 21.2578C31.6596 21.2578 31.9476 21.3778 32.1876 21.6178C32.4276 21.8418 32.5476 22.1298 32.5476 22.4818C32.5476 22.8338 32.4276 23.1298 32.1876 23.3698C31.9476 23.6098 31.6596 23.7298 31.3236 23.7298ZM32.1636 26.2018V39.3058H30.4836V26.2018H32.1636Z" fill="#00231D"/>
<path d="M27.392 22.7461V39.3061H25.712V26.0821L19.808 39.3061H18.584L12.68 26.1301V39.3061H11V22.7461H12.776L19.184 37.0981L25.592 22.7461H27.392Z" fill="#00231D"/>
<path d="M49.002 0.476562V3.47656H0.0351562V0.476562H49.002Z" fill="#006555"/>
<path d="M49 15.2578L49 18.2578L30 18.2578L30 15.2578L49 15.2578Z" fill="#006555"/>
<path d="M7.00488 21.3867V24.3867H0V21.3867H7.00488Z" fill="#006555"/>
<path d="M3.0064 23.5254L0.00640826 23.5205L0.0390664 3.26079L3.03906 3.26562L3.0064 23.5254Z" fill="#006555"/>
<path d="M49 17.2578H46V2.25781H49V17.2578Z" fill="#006555"/>
</svg>
