<svg width="110" height="40" viewBox="0 0 110 40" fill="none" xmlns="http://www.w3.org/2000/svg">
<path d="M109.454 35.8283V39.3083H107.366C105.878 39.3083 104.718 38.9483 103.886 38.2283C103.054 37.4923 102.638 36.3003 102.638 34.6523V29.3243H101.006V25.9163H102.638V22.6523H106.742V25.9163H109.43V29.3243H106.742V34.7003C106.742 35.1003 106.838 35.3883 107.03 35.5643C107.222 35.7403 107.542 35.8283 107.99 35.8283H109.454Z" fill="white"/>
<path d="M94.3917 25.7715C96.0557 25.7715 97.3757 26.2755 98.3517 27.2835C99.3437 28.2915 99.8397 29.6915 99.8397 31.4835V39.3075H95.7597V32.0355C95.7597 31.1715 95.5277 30.5075 95.0637 30.0435C94.6157 29.5635 93.9917 29.3235 93.1917 29.3235C92.3917 29.3235 91.7597 29.5635 91.2957 30.0435C90.8477 30.5075 90.6237 31.1715 90.6237 32.0355V39.3075H86.5437V32.0355C86.5437 31.1715 86.3117 30.5075 85.8477 30.0435C85.3997 29.5635 84.7757 29.3235 83.9757 29.3235C83.1757 29.3235 82.5437 29.5635 82.0797 30.0435C81.6317 30.5075 81.4077 31.1715 81.4077 32.0355V39.3075H77.3037V25.9155H81.4077V27.5955C81.8237 27.0355 82.3677 26.5955 83.0397 26.2755C83.7117 25.9395 84.4717 25.7715 85.3197 25.7715C86.3277 25.7715 87.2237 25.9875 88.0077 26.4195C88.8077 26.8515 89.4317 27.4675 89.8797 28.2675C90.3437 27.5315 90.9757 26.9315 91.7757 26.4675C92.5757 26.0035 93.4477 25.7715 94.3917 25.7715Z" fill="white"/>
<path d="M68.8388 39.4987C67.5268 39.4987 66.3428 39.2187 65.2868 38.6587C64.2468 38.0987 63.4228 37.2987 62.8148 36.2587C62.2228 35.2187 61.9268 34.0027 61.9268 32.6107C61.9268 31.2347 62.2308 30.0267 62.8388 28.9867C63.4468 27.9307 64.2788 27.1227 65.3348 26.5627C66.3908 26.0027 67.5748 25.7227 68.8868 25.7227C70.1988 25.7227 71.3828 26.0027 72.4388 26.5627C73.4948 27.1227 74.3268 27.9307 74.9348 28.9867C75.5428 30.0267 75.8468 31.2347 75.8468 32.6107C75.8468 33.9867 75.5348 35.2027 74.9108 36.2587C74.3028 37.2987 73.4628 38.0987 72.3908 38.6587C71.3348 39.2187 70.1508 39.4987 68.8388 39.4987ZM68.8388 35.9467C69.6228 35.9467 70.2868 35.6587 70.8308 35.0827C71.3908 34.5067 71.6708 33.6827 71.6708 32.6107C71.6708 31.5387 71.3988 30.7147 70.8548 30.1387C70.3268 29.5627 69.6708 29.2747 68.8868 29.2747C68.0868 29.2747 67.4228 29.5627 66.8948 30.1387C66.3668 30.6987 66.1028 31.5227 66.1028 32.6107C66.1028 33.6827 66.3588 34.5067 66.8708 35.0827C67.3988 35.6587 68.0548 35.9467 68.8388 35.9467Z" fill="white"/>
<path d="M61.4031 22.4609V25.7489H56.9391V39.3089H52.8351V25.7489H48.3711V22.4609H61.4031Z" fill="white"/>
<path d="M41.392 25.9648C42.96 25.9648 44.24 26.4528 45.232 27.4288C46.224 28.3888 46.72 29.7888 46.72 31.6288V39.3088H45.064V31.8208C45.064 30.3968 44.704 29.3088 43.984 28.5568C43.28 27.8048 42.312 27.4288 41.08 27.4288C39.816 27.4288 38.808 27.8288 38.056 28.6288C37.304 29.4288 36.928 30.6048 36.928 32.1568V39.3088H35.248V26.2048H36.928V28.4368C37.344 27.6368 37.944 27.0288 38.728 26.6128C39.512 26.1808 40.4 25.9648 41.392 25.9648Z" fill="white"/>
<path d="M31.3236 23.7318C30.9876 23.7318 30.6996 23.6118 30.4596 23.3718C30.2196 23.1318 30.0996 22.8358 30.0996 22.4838C30.0996 22.1318 30.2196 21.8438 30.4596 21.6198C30.6996 21.3798 30.9876 21.2598 31.3236 21.2598C31.6596 21.2598 31.9476 21.3798 32.1876 21.6198C32.4276 21.8438 32.5476 22.1318 32.5476 22.4838C32.5476 22.8358 32.4276 23.1318 32.1876 23.3718C31.9476 23.6118 31.6596 23.7318 31.3236 23.7318ZM32.1636 26.2038V39.3078H30.4836V26.2038H32.1636Z" fill="white"/>
<path d="M27.392 22.748V39.308H25.712V26.084L19.808 39.308H18.584L12.68 26.132V39.308H11V22.748H12.776L19.184 37.1L25.592 22.748H27.392Z" fill="white"/>
<path d="M49.002 0.478516V3.47852H0.0351562V0.478516H49.002Z" fill="white"/>
<path d="M49 15.2598L49 18.2598L30 18.2598L30 15.2598L49 15.2598Z" fill="white"/>
<path d="M7.00488 21.3887V24.3887H0V21.3887H7.00488Z" fill="white"/>
<path d="M3.0064 23.5254L0.00640826 23.5205L0.0390664 3.26079L3.03906 3.26562L3.0064 23.5254Z" fill="white"/>
<path d="M49 17.2598H46V2.25977H49V17.2598Z" fill="white"/>
</svg>
