<svg width="24" height="24" viewBox="0 0 24 24" fill="none" xmlns="http://www.w3.org/2000/svg">
<path d="M17.9623 12.75V11.25H21.5778V12.75H17.9623ZM19.1046 19.4807L16.2123 17.3115L17.1238 16.1155L20.0161 18.2845L19.1046 19.4807ZM17.0853 7.84621L16.1738 6.64996L19.0661 4.48071L19.9778 5.67696L17.0853 7.84621ZM5.25083 18.4807V14.577H4.23158C3.73291 14.577 3.30699 14.4003 2.95383 14.047C2.60049 13.6938 2.42383 13.2679 2.42383 12.7692V11.2307C2.42383 10.732 2.60049 10.3061 2.95383 9.95296C3.30699 9.59963 3.73291 9.42296 4.23158 9.42296H8.09708L12.5778 6.74996V17.25L8.09708 14.577H6.75083V18.4807H5.25083ZM11.0778 14.5847V9.41521L8.51233 10.923H4.23158C4.15474 10.923 4.08424 10.955 4.02008 11.0192C3.95591 11.0834 3.92383 11.1539 3.92383 11.2307V12.7692C3.92383 12.846 3.95591 12.9165 4.02008 12.9807C4.08424 13.0449 4.15474 13.077 4.23158 13.077H8.51233L11.0778 14.5847ZM13.9623 15.1192V8.88071C14.3547 9.23588 14.6707 9.6833 14.9103 10.223C15.1502 10.7628 15.2701 11.3551 15.2701 12C15.2701 12.6448 15.1502 13.2371 14.9103 13.777C14.6707 14.3166 14.3547 14.764 13.9623 15.1192Z" fill="#006555"/>
</svg>
