<svg width="175" height="23" viewBox="0 0 175 23" fill="none" xmlns="http://www.w3.org/2000/svg">
<mask id="mask0_4200_16592" style="mask-type:luminance" maskUnits="userSpaceOnUse" x="0" y="0" width="175" height="23">
<path d="M174.41 0.850769H0.472656V22.1492H174.41V0.850769Z" fill="white"/>
</mask>
<g mask="url(#mask0_4200_16592)">
<path d="M11.1039 13.801H11.0484L7.22232 1.19342H0.597656V21.4964H5.29385V8.59874H5.35248L9.55499 21.4964H12.4523L16.6301 8.56788H16.6857V21.4964H21.385V1.19342H14.8437L11.1039 13.801Z" fill="#2B2B2B"/>
<path d="M25.4648 1.19073H40.4174V5.32228H30.5652V9.19464H37.9428V13.2984H30.5652V17.3405H40.476V21.4875H25.4648V1.19073Z" fill="#2B2B2B"/>
<path d="M65.9877 5.26366H60.2363V1.19073H76.8397V5.26366H71.0883V21.4875H65.9877V5.26366Z" fill="#2B2B2B"/>
<path d="M79.2637 1.19073H94.2192V5.32228H84.3641V9.19464H91.7416V13.2984H84.3641V17.3405H94.2748V21.4875H79.2637V1.19073Z" fill="#2B2B2B"/>
<path d="M98.043 1.19073H106.929C111.542 1.19073 114.193 4.18063 114.193 7.93882C114.193 10.4073 112.995 13.1843 110.376 14.2641L115.004 21.4998H109.45L105.448 15.0078H103.14V21.4874H98.043V1.19073ZM106.272 11.2465C108.123 11.2465 109.234 9.84877 109.234 8.19492C109.234 6.45776 108.096 5.18035 106.272 5.18035H103.14V11.2465H106.272Z" fill="#2B2B2B"/>
<path d="M117.621 1.19073H122.709V9.04653H129.319V1.19073H134.434V21.4875H129.327V13.4651H122.709V21.4875H117.621V1.19073Z" fill="#2B2B2B"/>
<path d="M138.107 14.295V1.19073H143.178V13.9526C143.178 16.2296 144.375 17.6552 146.655 17.6552C148.79 17.6552 150.014 16.3747 150.014 13.9526V1.19073H154.998V14.0822C154.998 19.1517 151.24 21.83 146.482 21.83C141.326 21.8423 138.107 19.3923 138.107 14.295Z" fill="#2B2B2B"/>
<path d="M168.619 9.48104L165.715 8.70966C164.172 8.31161 162.938 7.91358 162.938 6.74416C162.938 5.34949 164.218 4.83729 165.715 4.83729C167.258 4.83729 168.896 5.40195 169.905 6.59606L173.089 3.75735C171.451 2.07882 169.208 0.850769 165.715 0.850769C161.216 0.850769 157.967 3.58456 157.967 7.37361C157.967 10.6474 160.019 12.2426 162.781 12.9831L166.285 13.9087C167.538 14.2513 168.563 14.7079 168.563 15.9607C168.563 17.3862 166.912 17.8706 165.372 17.8706C164.373 17.8722 163.388 17.6413 162.492 17.1964C161.597 16.7514 160.819 16.1044 160.216 15.3065L156.998 18.1823C159.01 20.5272 162.04 21.8571 165.6 21.8571C169.788 21.8571 173.774 19.6356 173.774 15.2201C173.774 12.042 171.525 10.2216 168.619 9.48104Z" fill="#2B2B2B"/>
<path d="M54.0365 9.48104L51.1237 8.70966C49.581 8.31161 48.3621 7.91358 48.3621 6.74416C48.3621 5.34949 49.6426 4.83729 51.1237 4.83729C52.6664 4.83729 54.308 5.40195 55.3169 6.59606L58.4982 3.75735C56.8598 2.07882 54.6196 0.850769 51.1237 0.850769C46.625 0.850769 43.3759 3.58456 43.3759 7.37361C43.3759 10.6474 45.4278 12.2426 48.1894 12.9831L51.6945 13.9087C52.9472 14.2513 53.9717 14.7079 53.9717 15.9607C53.9717 17.3862 52.3209 17.8706 50.7812 17.8706C49.7823 17.8724 48.7966 17.6417 47.9022 17.1966C47.0079 16.7516 46.2293 16.1045 45.6284 15.3065L42.4102 18.1823C44.4188 20.5272 47.4488 21.8571 51.0095 21.8571C55.1967 21.8571 59.1863 19.6356 59.1863 15.2201C59.1955 12.042 56.9431 10.2216 54.0365 9.48104Z" fill="#2B2B2B"/>
</g>
</svg>
