<svg width="20" height="19" viewBox="0 0 20 19" fill="none" xmlns="http://www.w3.org/2000/svg">
<path d="M17.916 14.2493L12.3803 9.49935M7.6184 9.49935L2.08271 14.2493M1.66602 5.54102L8.47011 10.0657C9.02109 10.4321 9.29658 10.6153 9.59624 10.6863C9.86093 10.749 10.1378 10.749 10.4025 10.6863C10.7021 10.6153 10.9776 10.4321 11.5286 10.0657L18.3327 5.54102M5.66602 15.8327H14.3327C15.7328 15.8327 16.4329 15.8327 16.9677 15.5738C17.4381 15.3461 17.8205 14.9828 18.0602 14.5359C18.3327 14.0279 18.3327 13.3628 18.3327 12.0327V6.96602C18.3327 5.63589 18.3327 4.97083 18.0602 4.46279C17.8205 4.0159 17.4381 3.65257 16.9677 3.42488C16.4329 3.16602 15.7328 3.16602 14.3327 3.16602H5.66602C4.26588 3.16602 3.56582 3.16602 3.03104 3.42488C2.56063 3.65257 2.17818 4.0159 1.9385 4.46279C1.66602 4.97083 1.66602 5.63589 1.66602 6.96602V12.0327C1.66602 13.3628 1.66602 14.0279 1.9385 14.5359C2.17818 14.9828 2.56063 15.3461 3.03104 15.5738C3.56582 15.8327 4.26588 15.8327 5.66602 15.8327Z" stroke="#006555" stroke-width="1.5" stroke-linecap="round" stroke-linejoin="round"/>
</svg>
