<svg width="51" height="51" viewBox="0 0 51 51" fill="none" xmlns="http://www.w3.org/2000/svg">
<g clip-path="url(#clip0_4200_16630)">
<path fill-rule="evenodd" clip-rule="evenodd" d="M50.9995 30.4644V20.4595H47.6515V13.5398C47.6515 12.2835 47.7301 11.9049 46.6657 11.2775L26.7164 0.514067C26.1839 0.200335 25.8619 0.0434683 25.5397 0.0436403C25.2176 0.0434683 24.8954 0.200335 24.3629 0.514067L4.4136 11.2775C3.34934 11.9049 3.42777 12.2835 3.42777 13.5398V20.4595H0V30.4644H3.42777V37.3888C3.42777 38.6451 3.34934 39.0237 4.4136 39.6512L24.3629 50.4139C24.8952 50.7278 25.2172 50.8849 25.5392 50.8849H25.5401C25.862 50.8849 26.184 50.7278 26.7164 50.4139L46.6657 39.6512C47.7301 39.0237 47.6515 38.6451 47.6515 37.3888V30.4644H50.9995Z" fill="white"/>
<path fill-rule="evenodd" clip-rule="evenodd" d="M1.03906 29.4219V21.5485H2.65086L3.73684 24.3756C3.93108 24.8778 4.297 25.8708 4.49141 26.4781H4.51413C4.46852 25.8357 4.34262 24.3056 4.34262 22.822V21.5485H5.88591V29.4219H4.27411L3.23391 26.7702C2.99373 26.1627 2.63942 25.1233 2.50224 24.5391H2.47935C2.51385 25.2167 2.58219 26.5249 2.58219 28.0671V29.4219H1.03906Z" fill="#2B2B2B"/>
<path fill-rule="evenodd" clip-rule="evenodd" d="M8.97467 29.515C7.03128 29.515 6.41406 27.4123 6.41406 25.4616C6.41406 23.5107 7.21424 21.4548 9.07751 21.4548C11.1695 21.4548 11.5811 23.8145 11.5811 25.3097C11.5811 28.2886 10.5292 29.515 8.98611 29.515H8.97467ZM9.02045 27.9498C9.50049 27.9498 9.72906 27.0153 9.72906 25.4033C9.72906 24.0481 9.54627 23.02 9.009 23.02C8.49446 23.02 8.23172 24.0481 8.24316 25.4382C8.22027 27.0153 8.49446 27.9498 9.009 27.9498H9.02045Z" fill="#2B2B2B"/>
<path fill-rule="evenodd" clip-rule="evenodd" d="M12.1406 21.6652C12.655 21.5718 13.3066 21.5134 13.9352 21.5134C14.7812 21.5134 15.5928 21.6186 16.1302 22.1092C16.633 22.5646 16.7702 23.0905 16.7702 23.7912C16.7702 24.5623 16.393 25.3568 15.6042 25.7304V25.7539C16.1072 25.9875 16.3588 26.4547 16.4958 27.2257C16.633 28.0084 16.8617 29.1183 17.0104 29.4219H15.1584C15.067 29.2115 14.884 28.3938 14.7812 27.5644C14.6669 26.6299 14.461 26.408 14.0724 26.408H13.9011V29.4219H12.1406V21.6652ZM13.9011 25.0179H14.1296C14.7012 25.0179 14.9869 24.5157 14.9869 23.9432C14.9869 23.3707 14.7697 22.9386 14.221 22.9152C14.1067 22.9152 13.9697 22.9269 13.9011 22.9618V25.0179Z" fill="#2B2B2B"/>
<path fill-rule="evenodd" clip-rule="evenodd" d="M17.8086 21.6652C18.1972 21.5835 18.8146 21.5134 19.4775 21.5134C20.5177 21.5134 21.2379 21.7586 21.7639 22.2611C22.4496 22.9035 22.7468 23.9548 22.7468 25.4268C22.7468 26.9335 22.3582 28.1251 21.6152 28.7676C21.078 29.2466 20.312 29.4919 19.1575 29.4919C18.6317 29.4919 18.1173 29.4336 17.8086 29.3985V21.6652ZM19.569 27.9967C19.6262 28.0199 19.7291 28.0199 19.809 28.0199C20.4264 28.0199 20.9179 27.2957 20.9179 25.3451C20.9179 23.8848 20.5863 22.9501 19.8205 22.9501C19.7291 22.9501 19.649 22.9501 19.569 22.9852V27.9967Z" fill="#2B2B2B"/>
<path fill-rule="evenodd" clip-rule="evenodd" d="M23.5547 21.6652C24.0463 21.5603 24.7208 21.5134 25.4408 21.5134C26.1611 21.5134 26.9155 21.5835 27.4985 22.0741C27.9444 22.448 28.1157 22.9969 28.1157 23.5459C28.1157 24.2 27.7956 24.8893 27.0299 25.2515V25.2981C27.9215 25.567 28.3672 26.3262 28.3672 27.1205C28.3672 27.7746 28.1615 28.2772 27.7956 28.6625C27.327 29.1766 26.5154 29.4919 25.0522 29.4919C24.4806 29.4919 23.9433 29.4568 23.5547 29.3985V21.6652ZM25.3151 24.7376H25.6009C26.0697 24.7376 26.3896 24.317 26.3896 23.7563C26.3896 23.2423 26.1496 22.8452 25.6809 22.8452C25.5322 22.8452 25.4065 22.8569 25.3151 22.8918V24.7376ZM25.3151 28.0902C25.4065 28.1136 25.4981 28.1136 25.6009 28.1136C26.0811 28.1136 26.5383 27.798 26.5383 27.0973C26.5383 26.4314 26.1038 26.0692 25.6124 26.0692H25.3151V28.0902Z" fill="#2B2B2B"/>
<path fill-rule="evenodd" clip-rule="evenodd" d="M31.369 29.515C29.4258 29.515 28.8086 27.4123 28.8086 25.4616C28.8086 23.5107 29.6088 21.4548 31.472 21.4548C33.5639 21.4548 33.9754 23.8145 33.9754 25.3097C33.9754 28.2886 32.9238 29.515 31.3805 29.515H31.369ZM31.4146 27.9498C31.895 27.9498 32.1236 27.0153 32.1236 25.4033C32.1236 24.0481 31.9406 23.02 31.4034 23.02C30.889 23.02 30.6259 24.0481 30.6375 25.4382C30.6145 27.0153 30.889 27.9498 31.4034 27.9498H31.4146Z" fill="#2B2B2B"/>
<path fill-rule="evenodd" clip-rule="evenodd" d="M36.5492 21.5485V24.6091H37.8523V21.5485H39.6242V29.4219H37.8523V26.2913H36.5492V29.4219H34.7773V21.5485H36.5492Z" fill="#2B2B2B"/>
<path fill-rule="evenodd" clip-rule="evenodd" d="M42.3381 21.5485V26.5953C42.3381 27.6347 42.6126 27.9384 42.9326 27.9384C43.2642 27.9384 43.5271 27.7048 43.5271 26.5953V21.5485H45.299V26.2679C45.299 28.289 44.6696 29.5153 43.0349 29.5153C41.0141 29.5153 40.5664 28.2188 40.5664 26.2447V21.5485H42.3381Z" fill="#2B2B2B"/>
<path fill-rule="evenodd" clip-rule="evenodd" d="M46.1085 27.6227C46.4401 27.8096 47.0001 27.9266 47.4461 27.9266C48.1091 27.9266 48.4062 27.6227 48.4062 27.2257C48.4062 26.735 48.0863 26.5131 47.4116 26.1041C46.1656 25.345 45.9599 24.4803 45.9599 23.8964C45.9599 22.5995 46.783 21.4782 48.5663 21.4782C49.0923 21.4782 49.595 21.6186 49.8351 21.7586L49.5836 23.3123C49.355 23.1721 49.0234 23.0438 48.5777 23.0438C47.9832 23.0438 47.6976 23.3591 47.6976 23.7211C47.6976 24.0598 47.8577 24.282 48.7264 24.7841C49.7895 25.3916 50.1438 26.221 50.1438 27.0272C50.1438 28.5107 48.8758 29.4918 47.2529 29.4918C46.5897 29.4918 46.0633 29.3401 45.7891 29.1881L46.1085 27.6227Z" fill="#2B2B2B"/>
<path fill-rule="evenodd" clip-rule="evenodd" d="M10.2732 17.2326C10.2732 16.3653 10.219 16.1039 10.9539 15.6708L24.7251 8.24061C25.0927 8.02406 25.315 7.9157 25.5374 7.91587C25.7599 7.9157 25.9821 8.02406 26.3498 8.24061L40.121 15.6708C40.8559 16.1039 40.8017 16.3653 40.8017 17.2326V20.4593H46.7377V14.0314C46.7377 12.8267 46.8129 12.4638 45.7924 11.8623L26.6658 1.54265C26.1551 1.24182 25.8462 1.09132 25.5374 1.09149C25.2285 1.09132 24.9198 1.24182 24.4091 1.54265L5.28245 11.8623C4.26194 12.4638 4.33718 12.8267 4.33718 14.0314V20.4593H10.2732V17.2326Z" fill="#2B2B2B"/>
<path fill-rule="evenodd" clip-rule="evenodd" d="M40.8017 30.4645V33.6961C40.8017 34.5634 40.8559 34.8248 40.121 35.2579L26.3498 42.6876C25.9824 42.9043 25.76 43.0126 25.5379 43.0126H25.5372C25.3148 43.0126 25.0927 42.9043 24.7251 42.6876L10.9539 35.2579C10.219 34.8248 10.2732 34.5634 10.2732 33.6961V30.4645H4.33718V36.8973C4.33718 38.102 4.26194 38.4649 5.28245 39.0666L24.4091 49.3855C24.9196 49.6865 25.2283 49.837 25.537 49.837H25.5379C25.8466 49.837 26.1554 49.6865 26.6658 49.3855L45.7924 39.0666C46.8129 38.4649 46.7377 38.102 46.7377 36.8973V30.4645H40.8017Z" fill="#2B2B2B"/>
<path fill-rule="evenodd" clip-rule="evenodd" d="M38.3684 16.846L26.2497 10.3075C25.926 10.117 25.7305 10.0217 25.5347 10.0217C25.3391 10.0217 25.1435 10.117 24.8199 10.3075L12.7012 16.846C12.0546 17.2272 12.1024 17.4572 12.1024 18.2203V20.4595H38.9672V18.2203C38.9672 17.4572 39.015 17.2272 38.3684 16.846Z" fill="#2B2B2B"/>
<path fill-rule="evenodd" clip-rule="evenodd" d="M12.1023 32.7083C12.1023 33.4715 12.0547 33.7015 12.7012 34.0826L24.82 40.6208C25.1434 40.8115 25.339 40.907 25.5345 40.907H25.5352C25.7308 40.907 25.9264 40.8115 26.2497 40.6208L38.3684 34.0826C39.015 33.7015 38.9674 33.4715 38.9674 32.7083V30.4645H12.1023V32.7083Z" fill="#2B2B2B"/>
</g>
<defs>
<clipPath id="clip0_4200_16630">
<rect width="51" height="51" fill="white"/>
</clipPath>
</defs>
</svg>
