<svg width="24" height="24" viewBox="0 0 24 24" fill="none" xmlns="http://www.w3.org/2000/svg">
<path fill-rule="evenodd" clip-rule="evenodd" d="M14.9777 5.53991V20.995C14.9777 21.2095 14.8051 21.3814 14.592 21.3814H12.6634V17.1331C12.6634 16.9187 12.4908 16.7429 12.2777 16.7429H9.19195C8.97884 16.7429 8.80623 16.9187 8.80623 17.1331V21.3814H6.87765C6.66455 21.3814 6.49194 21.2095 6.49194 20.995V5.53991H14.9777ZM9.19182 13.6537H12.2775C12.4907 13.6537 12.6633 13.4818 12.6633 13.2673C12.6633 13.0529 12.4907 12.881 12.2775 12.881H9.19182C8.97872 12.881 8.80611 13.0529 8.80611 13.2673C8.80611 13.4818 8.97872 13.6537 9.19182 13.6537ZM9.19182 12.1082H12.2775C12.4907 12.1082 12.6633 11.9363 12.6633 11.7218C12.6633 11.5084 12.4907 11.3364 12.2775 11.3364H9.19182C8.97872 11.3364 8.80611 11.5084 8.80611 11.7218C8.80611 11.9363 8.97872 12.1082 9.19182 12.1082ZM9.19182 7.47069H12.2775C12.4907 7.47069 12.6633 7.29875 12.6633 7.08431C12.6633 6.87373 12.4907 6.69793 12.2775 6.69793H9.19182C8.97872 6.69793 8.80611 6.87373 8.80611 7.08431C8.80611 7.29875 8.97872 7.47069 9.19182 7.47069ZM9.19182 9.01909H12.2775C12.4907 9.01909 12.6633 8.84329 12.6633 8.62885C12.6633 8.41828 12.4907 8.24344 12.2775 8.24344H9.19182C8.97872 8.24344 8.80611 8.41828 8.80611 8.62885C8.80611 8.8433 8.97872 9.01909 9.19182 9.01909ZM9.19182 10.5636H12.2775C12.4907 10.5636 12.6633 10.3888 12.6633 10.1773C12.6633 9.96282 12.4907 9.79088 12.2775 9.79088H9.19182C8.97872 9.79088 8.80611 9.96282 8.80611 10.1773C8.80611 10.3888 8.97872 10.5636 9.19182 10.5636ZM9.19182 15.1982H12.2775C12.4907 15.1982 12.6633 15.0262 12.6633 14.8118C12.6633 14.6012 12.4907 14.4254 12.2775 14.4254H9.19182C8.97872 14.4254 8.80611 14.6012 8.80611 14.8118C8.80611 15.0262 8.97872 15.1982 9.19182 15.1982ZM11.892 21.3812H9.57766V17.5184H11.892V21.3812ZM15.3633 8.32079L22.3447 9.01916C22.5423 9.03848 22.6918 9.20366 22.6918 9.40458V20.9949C22.6918 21.2094 22.5192 21.3813 22.3061 21.3813H20.3775V17.133C20.3775 16.9186 20.2049 16.7428 19.9918 16.7428H16.9061C16.693 16.7428 16.5203 16.9186 16.5203 17.133V21.3813H15.26C15.3265 21.2673 15.3632 21.134 15.3632 20.9949L15.3633 8.32079ZM16.9061 15.1982H19.9919C20.205 15.1982 20.3776 15.0262 20.3776 14.8118C20.3776 14.6012 20.205 14.4254 19.9919 14.4254H16.9061C16.693 14.4254 16.5204 14.6012 16.5204 14.8118C16.5204 15.0262 16.693 15.1982 16.9061 15.1982ZM16.9061 13.6536H19.9919C20.205 13.6536 20.3776 13.4817 20.3776 13.2673C20.3776 13.0528 20.205 12.8809 19.9919 12.8809H16.9061C16.693 12.8809 16.5204 13.0528 16.5204 13.2673C16.5204 13.4817 16.693 13.6536 16.9061 13.6536ZM16.9061 12.1081H19.9919C20.205 12.1081 20.3776 11.9362 20.3776 11.7218C20.3776 11.5083 20.205 11.3363 19.9919 11.3363H16.9061C16.693 11.3363 16.5204 11.5083 16.5204 11.7218C16.5204 11.9362 16.693 12.1081 16.9061 12.1081ZM19.6063 21.3812H17.292V17.5184H19.6063V21.3812ZM6.20929 21.3812H5.72038V17.1329C5.72038 16.9185 5.54778 16.7427 5.33467 16.7427H3.02038C2.80727 16.7427 2.63466 16.9185 2.63466 17.1329V21.3812H1.47751C1.2644 21.3812 1.0918 21.2093 1.0918 20.9948V11.7218C1.0918 11.5305 1.23258 11.3653 1.42352 11.3392L6.10617 10.6708V20.9948C6.10617 21.1339 6.14275 21.2672 6.20929 21.3812ZM4.17752 12.8809C3.32606 12.8809 2.63466 13.5725 2.63466 14.4254C2.63466 15.2793 3.32606 15.9709 4.17752 15.9709C5.02898 15.9709 5.72038 15.2793 5.72038 14.4254C5.72038 13.5725 5.02898 12.8809 4.17752 12.8809ZM4.17752 13.6536C4.60375 13.6536 4.94895 14.0004 4.94895 14.4254C4.94895 14.8543 4.60375 15.1982 4.17752 15.1982C3.7513 15.1982 3.40609 14.8543 3.40609 14.4254C3.40609 14.0004 3.7513 13.6536 4.17752 13.6536ZM4.94895 21.3812H3.40609V17.5184H4.94895V21.3812ZM16.1346 3.22231V4.76686C16.1346 4.9813 15.962 5.15324 15.7489 5.15324H5.72026C5.50715 5.15324 5.33455 4.9813 5.33455 4.76686V3.22231C5.33455 3.00787 5.50715 2.83594 5.72026 2.83594H15.7489C15.962 2.83594 16.1346 3.00787 16.1346 3.22231Z" fill="#4A5578"/>
</svg>
