<svg width="68" height="68" viewBox="0 0 68 68" fill="none" xmlns="http://www.w3.org/2000/svg">
<rect x="4" y="4" width="60" height="60" rx="30" fill="#EFF1F5"/>
<rect x="4" y="4" width="60" height="60" rx="30" stroke="#F9F9FB" stroke-width="8"/>
<path d="M21.5334 33.817C20.6673 34.6831 20.6673 36.0374 21.5334 36.9035L22.2112 37.5813L22.4744 37.3181C23.3405 36.452 23.3405 35.0978 22.4744 34.2317L21.8348 33.5156L21.5334 33.817Z" fill="#006555"/>
<path d="M29.7021 39.0488H30.605V39.8399H29.7021V39.0488Z" fill="#006555"/>
<path d="M29.7021 35.7744H30.605V36.5655H29.7021V35.7744Z" fill="#006555"/>
<path d="M40.3164 39.0488H41.2192V39.8399H40.3164V39.0488Z" fill="#006555"/>
<path d="M40.3164 35.7744H41.2192V36.5655H40.3164V35.7744Z" fill="#006555"/>
<path d="M43.3279 38.2958V37.2798C43.3279 37.0533 43.178 36.9033 42.9515 36.9033H27.9692C27.7428 36.9033 27.5928 37.0533 27.5928 37.2798V38.2591C27.5928 38.4855 27.7428 38.6355 27.9692 38.6355H42.9515C43.1397 38.6723 43.3279 38.5223 43.3279 38.2958Z" fill="#006555"/>
<path d="M43.3279 35.0218V34.0424C43.3279 33.816 43.178 33.666 42.9515 33.666H27.9692C27.7428 33.666 27.5928 33.816 27.5928 34.0424V35.0218C27.5928 35.2482 27.7428 35.3982 27.9692 35.3982H42.9515C43.1397 35.3982 43.3279 35.2482 43.3279 35.0218Z" fill="#006555"/>
<path d="M47.5074 27.9076C47.997 27.9076 48.4485 27.6061 48.6749 27.1547C49.0131 26.3636 49.0896 25.2343 49.0896 24.6329C49.0896 24.2565 48.9396 23.8801 48.6749 23.6536L47.5839 22.6743C47.0942 22.2596 46.3796 22.2596 45.9282 22.6743L44.8371 23.6536C44.5357 23.9168 44.3857 24.2565 44.4225 24.6329C44.4225 25.2358 44.5357 26.3651 44.8371 27.1547C45.0253 27.6061 45.4768 27.9076 46.0047 27.9076H46.2311V44.2823H41.4094V41.9855H44.3459C44.5341 41.9855 44.7223 41.8355 44.7223 41.609V40.593C44.7223 40.4048 44.5723 40.2166 44.3459 40.2166H26.5772C26.389 40.2166 26.2008 40.3665 26.2008 40.593V41.609C26.2008 41.7973 26.3508 41.9855 26.5772 41.9855H29.5137V44.2823H24.0938C24.357 43.9441 24.5452 43.5294 24.5452 43.078V42.137C24.5452 42.062 24.4703 41.987 24.3953 41.987H22.5514V40.1048C23.8306 40.1048 24.8849 39.0505 24.8849 37.7712V36.8302C24.8849 36.7552 24.8099 36.6802 24.7349 36.6802H24.3585C23.3424 36.6802 22.5146 37.3198 22.1749 38.2242C21.8367 37.3213 21.0074 36.6802 19.9913 36.6802H19.6149C19.5399 36.6802 19.4649 36.7552 19.4649 36.8302V37.7712C19.4649 39.0505 20.5192 40.1048 21.7985 40.1048V41.987H19.9546C19.8796 41.987 19.8046 42.062 19.8046 42.137V43.078C19.8046 43.5294 19.9546 43.9441 20.256 44.2823H19.5031C19.2017 44.2823 18.9385 44.5455 18.9385 44.847C18.9385 45.1484 19.2017 45.4116 19.5031 45.4116H48.1502C48.4517 45.4116 48.7149 45.1484 48.7149 44.847C48.7149 44.5455 48.4517 44.2823 48.1502 44.2823H47.2474L47.2445 27.9076H47.5074ZM40.1286 44.2823H30.7927V41.9855H40.1286V44.2823Z" fill="#006555"/>
</svg>
