<svg width="69" height="68" viewBox="0 0 69 68" fill="none" xmlns="http://www.w3.org/2000/svg">
<rect x="4.5" y="4" width="60" height="60" rx="30" fill="#EFF1F5"/>
<rect x="4.5" y="4" width="60" height="60" rx="30" stroke="#F9F9FB" stroke-width="8"/>
<path d="M21.035 22C20.462 22 20 22.446 20 23V25C20 25.554 20.462 26 21.035 26H22V47H23V33.5H47V47H48V26H48.965C49.538 26 50 25.554 50 25V23C50 22.446 49.538 22 48.965 22H21.035ZM23 27H47V28H23V27ZM23 29H47V30H23V29ZM23 31H47V32H23V31ZM33.23 38.4C32.87 38.4 32.53 38.39 32.156 38.518C31.782 38.642 31.426 38.89 31.012 39.307L28.969 41.319H28.963L28.881 41.399H30.248L31.688 39.981H31.689C32.046 39.622 32.267 39.488 32.459 39.424C32.651 39.36 32.865 39.358 33.231 39.358H35.5V40.382C35.5 40.94 35.108 41.401 34.625 41.401H28.959L25.385 42.387C24.92 42.516 24.512 42.848 24.512 43.407V43.901H24.984C25.661 43.891 25.661 44.911 24.984 44.901H24.512V45.391C24.512 45.95 24.902 46.411 25.385 46.411H27.02C27.014 46.351 27 46.294 27 46.233C27 45.155 27.912 44.291 29 44.291C30.088 44.291 31 45.155 31 46.233C31 46.293 30.986 46.351 30.98 46.41H39.02C39.014 46.35 39 46.293 39 46.233C39 45.155 39.912 44.291 41 44.291C42.088 44.291 43 45.155 43 46.233C43 46.293 42.986 46.351 42.98 46.41H44.613C45.097 46.41 45.488 45.95 45.488 45.39V42.41C45.488 41.87 45.119 41.425 44.658 41.4H44.656C44.642 41.4 44.63 41.39 44.616 41.39H42.848L42.705 41.26C42.705 41.26 41.225 39.852 40.457 39.191L40.478 39.214C39.988 38.702 39.592 38.402 38.728 38.402H33.23V38.4ZM37.5 39.36H38.63C39.053 39.36 39.391 39.5 39.777 39.903L39.789 39.915L41.412 41.401H38.375C37.892 41.401 37.5 40.94 37.5 40.381V39.36ZM33.95 42.9H35C35.676 42.89 35.676 43.91 35 43.9H34C33.333 43.935 33.283 42.935 33.95 42.9ZM37.455 42.9H38.505C39.182 42.89 39.182 43.91 38.505 43.9H37.505C36.839 43.935 36.789 42.935 37.455 42.9ZM44.938 43.9H45.477V44.9H44.988C44.322 44.935 44.271 43.935 44.938 43.9ZM28.875 45.12C28.305 45.12 27.875 45.544 27.875 46.06C27.875 46.577 28.305 47 28.875 47C29.445 47 29.875 46.577 29.875 46.06C29.875 45.544 29.445 45.12 28.875 45.12ZM40.93 45.12C40.359 45.12 39.93 45.544 39.93 46.06C39.93 46.577 40.359 47 40.93 47C41.5 47 41.93 46.577 41.93 46.06C41.93 45.544 41.5 45.12 40.93 45.12Z" fill="#006555"/>
</svg>
