<svg width="69" height="68" viewBox="0 0 69 68" fill="none" xmlns="http://www.w3.org/2000/svg">
<rect x="4.5" y="4" width="60" height="60" rx="30" fill="#EFF1F5"/>
<rect x="4.5" y="4" width="60" height="60" rx="30" stroke="#F9F9FB" stroke-width="8"/>
<path fill-rule="evenodd" clip-rule="evenodd" d="M37.2829 44.4353C37.2916 44.4313 37.3004 44.4279 37.3095 44.425L38.5924 43.9332V42.8545L36.8324 43.0942C36.8051 43.0982 36.7774 43.0982 36.7501 43.0942L34.9834 42.8535V43.9322L36.2663 44.4241C36.2752 44.427 36.2839 44.4305 36.2925 44.434L36.7882 44.6241L37.2829 44.4353Z" fill="#006555"/>
<path fill-rule="evenodd" clip-rule="evenodd" d="M37.1116 45.1152L36.8876 45.2007C36.8219 45.2258 36.7492 45.2258 36.6834 45.2007L36.4594 45.1152V47.169C36.4595 47.2072 36.4519 47.2451 36.4371 47.2803C36.4222 47.3156 36.4005 47.3475 36.373 47.3741C36.2894 47.4556 36.2317 47.56 36.2073 47.6742C36.183 47.7884 36.193 47.9073 36.2362 48.0158C36.2794 48.1243 36.3537 48.2176 36.4499 48.2839C36.546 48.3501 36.6597 48.3864 36.7765 48.3881C36.8932 48.3898 37.0079 48.3568 37.1059 48.2934C37.204 48.23 37.281 48.1389 37.3273 48.0317C37.3737 47.9245 37.3871 47.8059 37.3661 47.6911C37.3451 47.5762 37.2905 47.4701 37.2092 47.3863C37.1778 47.3594 37.1527 47.3261 37.1354 47.2886C37.1182 47.2511 37.1093 47.2103 37.1094 47.169L37.1116 45.1152Z" fill="#006555"/>
<path fill-rule="evenodd" clip-rule="evenodd" d="M40.0392 30.8857C40.0375 31.1324 40.0342 31.3808 40.0293 31.631L42.3221 31.5587C42.3272 31.3373 42.3307 31.1133 42.3327 30.8867L40.0392 30.8857Z" fill="#006555"/>
<path fill-rule="evenodd" clip-rule="evenodd" d="M33.5439 31.5964C33.5395 31.3575 33.5364 31.1203 33.5347 30.8848H31.2412C31.2431 31.1139 31.2468 31.3397 31.2521 31.5622L33.5439 31.5964Z" fill="#006555"/>
<path fill-rule="evenodd" clip-rule="evenodd" d="M35.1601 42.3015C34.5982 40.8214 34.2147 39.2797 34.0177 37.7088C33.7593 35.8725 33.6058 34.0229 33.5579 32.169L31.2695 32.1348C31.3067 34.1708 31.6098 36.1933 32.1713 38.1508C32.7659 40.0469 33.6435 41.4147 34.8043 42.2541L35.1601 42.3015Z" fill="#006555"/>
<path fill-rule="evenodd" clip-rule="evenodd" d="M34.1055 30.8848C34.107 31.1228 34.1102 31.363 34.1151 31.6051L38.6632 31.6732L39.4568 31.6483C39.4622 31.3923 39.4658 31.1378 39.4677 30.8848H34.1055Z" fill="#006555"/>
<path fill-rule="evenodd" clip-rule="evenodd" d="M26.6317 37.375H25.8477V48.4006H26.6317C26.8393 48.3999 27.0383 48.3172 27.1852 48.1703C27.332 48.0235 27.4149 47.8246 27.4157 47.6169V38.1584C27.4149 37.9508 27.3321 37.7519 27.1853 37.6052C27.0385 37.4584 26.8392 37.3757 26.6317 37.375Z" fill="#006555"/>
<path fill-rule="evenodd" clip-rule="evenodd" d="M27.9896 47.2834C28.1936 47.1696 28.3811 47.0286 28.547 46.8642C28.7176 46.7144 28.9083 46.5467 29.155 46.3663L29.1646 46.3595C30.5115 45.3711 31.5582 45.572 33.1125 45.8709C33.9881 46.0555 34.8756 46.1783 35.7685 46.2383C35.8099 46.2402 35.8504 46.2511 35.8872 46.2703V45.5983C33.1169 45.2754 31.355 44.4552 30.2443 43.3368C29.1112 42.1957 28.6657 40.7595 28.5275 39.229C28.5262 39.2196 28.5253 39.2103 28.5249 39.2008C28.5249 39.1807 28.5227 39.1583 28.5201 39.1346C28.5041 38.9345 28.4125 38.7481 28.2641 38.613C28.1847 38.5435 28.0908 38.4925 27.9893 38.4639L27.9896 47.2834Z" fill="#006555"/>
<path fill-rule="evenodd" clip-rule="evenodd" d="M37.4296 23.7676H35.8805C35.7997 23.7702 35.723 23.8041 35.6668 23.8622C35.6106 23.9202 35.5791 23.9979 35.5791 24.0788C35.5791 24.1596 35.6106 24.2373 35.6668 24.2954C35.723 24.3535 35.7997 24.3874 35.8805 24.39H37.4296C37.5104 24.3874 37.587 24.3535 37.6433 24.2954C37.6995 24.2373 37.731 24.1596 37.731 24.0788C37.731 23.9979 37.6995 23.9202 37.6433 23.8622C37.587 23.8041 37.5104 23.7702 37.4296 23.7676Z" fill="#006555"/>
<path fill-rule="evenodd" clip-rule="evenodd" d="M37.0948 23.1933V21.2413C37.0945 21.2007 37.103 21.1604 37.1195 21.1233C37.1361 21.0861 37.1604 21.053 37.1908 21.026C37.3152 20.917 37.4035 20.7728 37.4441 20.6125C37.4846 20.4522 37.4754 20.2833 37.4177 20.1283C37.36 19.9733 37.2565 19.8396 37.121 19.7448C36.9855 19.65 36.8243 19.5987 36.659 19.5977C36.4936 19.5966 36.3318 19.6459 36.1951 19.739C36.0584 19.8321 35.9533 19.9646 35.8937 20.1188C35.8341 20.2731 35.8228 20.4418 35.8613 20.6027C35.8999 20.7635 35.9864 20.9088 36.1095 21.0192C36.1423 21.0462 36.1687 21.0801 36.1868 21.1185C36.205 21.1569 36.2144 21.1988 36.2144 21.2413V23.1933H37.0948Z" fill="#006555"/>
<path fill-rule="evenodd" clip-rule="evenodd" d="M46.6001 23.7534C46.3027 23.4563 46.0629 23.1069 45.8925 22.7227C45.549 23.4977 44.9294 24.1172 44.1543 24.4606C44.9293 24.8042 45.5489 25.4238 45.8925 26.1988C46.2365 25.424 46.8559 24.8045 47.6308 24.4606C47.2465 24.2904 46.8971 24.0507 46.6001 23.7534Z" fill="#006555"/>
<path fill-rule="evenodd" clip-rule="evenodd" d="M24.8156 29.892C24.5183 29.595 24.2785 29.2456 24.1084 28.8613C23.7644 29.6362 23.145 30.2557 22.3701 30.5996C23.145 30.943 23.7645 31.5622 24.1084 32.3368C24.4518 31.5616 25.0714 30.942 25.8466 30.5986C25.4623 30.4287 25.1127 30.1891 24.8156 29.892Z" fill="#006555"/>
<path fill-rule="evenodd" clip-rule="evenodd" d="M45.9913 41.8201C45.6941 41.5229 45.4544 41.1734 45.2841 40.7891C44.9405 41.5641 44.3209 42.1836 43.5459 42.5273C44.3207 42.8712 44.9402 43.4907 45.2841 44.2655C45.6278 43.4905 46.2474 42.871 47.0224 42.5273C46.6381 42.3571 46.2885 42.1173 45.9913 41.8201Z" fill="#006555"/>
<path d="M43.3113 29.2891H29.999V30.3124H43.3113V29.2891Z" fill="#006555"/>
<path fill-rule="evenodd" clip-rule="evenodd" d="M31 28.7148H42.3101C42.1189 28.5081 41.9758 28.2615 41.8912 27.9929C41.8649 27.9044 41.812 27.8262 41.7395 27.7689C41.6721 27.7182 41.5899 27.6911 41.5056 27.6918H41.2144C40.8979 27.6936 40.5879 27.6022 40.3229 27.4291C40.0562 27.251 39.8444 27.0021 39.7114 26.7104C39.5056 26.2738 39.2166 25.8816 38.8605 25.5558C38.5479 25.2681 38.1843 25.0413 37.7885 24.887C37.6755 24.9375 37.5532 24.9635 37.4294 24.9635H35.8803C35.7548 24.9636 35.6307 24.9368 35.5165 24.8848C35.1223 25.0386 34.7605 25.2649 34.4496 25.552C34.0935 25.8788 33.8044 26.272 33.5987 26.7094C33.4654 27.0011 33.2536 27.25 32.9869 27.4281C32.7219 27.6012 32.4119 27.6926 32.0954 27.6908H31.8042C31.7199 27.6901 31.6378 27.7172 31.5706 27.768C31.498 27.8252 31.4449 27.9034 31.4186 27.992C31.3342 28.2609 31.1912 28.5078 31 28.7148Z" fill="#006555"/>
<path fill-rule="evenodd" clip-rule="evenodd" d="M38.7541 35.7402C38.564 35.5504 38.4045 35.3323 38.2811 35.0938C38.0325 35.5739 37.6413 35.9652 37.1611 36.2138C37.6414 36.4622 38.0327 36.8535 38.2811 37.3338C38.5296 36.8535 38.9209 36.4622 39.4011 36.2138C39.1623 36.0903 38.944 35.9305 38.7541 35.7402Z" fill="#006555"/>
<path fill-rule="evenodd" clip-rule="evenodd" d="M39.7913 35.7641C40.0408 35.8716 40.3095 35.9269 40.5811 35.9267C40.6209 35.9232 40.661 35.928 40.6989 35.9408C40.7367 35.9536 40.7715 35.9742 40.8009 36.0012C40.8304 36.0281 40.854 36.061 40.8701 36.0975C40.8862 36.1341 40.8945 36.1736 40.8945 36.2136C40.8945 36.2535 40.8862 36.2931 40.8701 36.3296C40.854 36.3662 40.8304 36.399 40.8009 36.426C40.7715 36.453 40.7367 36.4735 40.6989 36.4864C40.661 36.4992 40.6209 36.504 40.5811 36.5005C40.2713 36.5003 39.9658 36.5723 39.6886 36.7107C39.5592 37.8399 39.3669 38.961 39.1126 40.0688C38.94 40.8305 38.7064 41.5771 38.4141 42.3014L38.7689 42.2531C39.9295 41.4134 40.8071 40.0456 41.4019 38.1497C41.9636 36.1913 42.2668 34.1679 42.304 32.1309L40.0147 32.2032C40.0032 32.5789 39.988 32.9559 39.9693 33.3344C39.9277 34.1472 39.8701 34.9635 39.7913 35.7641Z" fill="#006555"/>
<path fill-rule="evenodd" clip-rule="evenodd" d="M38.5683 33.9134C38.5685 34.1777 38.6208 34.4393 38.7224 34.6833C38.8239 34.9273 38.9726 35.1488 39.16 35.3352C39.1891 35.364 39.2188 35.3921 39.2496 35.4197C39.3136 34.7205 39.3632 34.0117 39.3984 33.3077C39.4167 32.9435 39.4314 32.5815 39.4425 32.2216L38.6774 32.2456H38.6556L34.1299 32.1777C34.1781 34.0009 34.3297 35.8198 34.584 37.6257C34.8608 39.5112 35.2662 41.2001 35.8233 42.3918L36.7862 42.523L37.7494 42.3918C38.0988 41.6029 38.3686 40.7811 38.5548 39.9387C38.7532 39.0993 38.9164 38.1787 39.0467 37.2142C38.7373 37.5764 38.5671 38.0371 38.5667 38.5134C38.5705 38.5533 38.5659 38.5936 38.5532 38.6317C38.5405 38.6697 38.52 38.7047 38.493 38.7344C38.466 38.764 38.4331 38.7877 38.3964 38.8039C38.3597 38.8202 38.3201 38.8285 38.28 38.8285C38.2399 38.8285 38.2002 38.8202 38.1635 38.8039C38.1268 38.7877 38.0939 38.764 38.0669 38.7344C38.04 38.7047 38.0195 38.6697 38.0068 38.6317C37.9941 38.5936 37.9895 38.5533 37.9932 38.5134C37.9914 37.98 37.7787 37.469 37.4015 37.0919C37.0243 36.7147 36.5132 36.5021 35.9798 36.5003C35.9081 36.494 35.8414 36.461 35.7927 36.4079C35.7441 36.3548 35.7172 36.2854 35.7172 36.2134C35.7172 36.1414 35.7441 36.072 35.7927 36.0189C35.8414 35.9658 35.9081 35.9329 35.9798 35.9265C36.5133 35.9249 37.0244 35.7123 37.4016 35.3352C37.7789 34.958 37.9916 34.4469 37.9932 33.9134C37.9895 33.8735 37.9941 33.8332 38.0068 33.7952C38.0195 33.7571 38.04 33.7221 38.0669 33.6925C38.0939 33.6628 38.1268 33.6391 38.1635 33.6229C38.2002 33.6067 38.2399 33.5983 38.28 33.5983C38.3201 33.5983 38.3597 33.6067 38.3964 33.6229C38.4331 33.6391 38.466 33.6628 38.493 33.6925C38.52 33.7221 38.5405 33.7571 38.5532 33.7952C38.5659 33.8332 38.5705 33.8735 38.5667 33.9134H38.5683Z" fill="#006555"/>
</svg>
