<svg width="68" height="68" viewBox="0 0 68 68" fill="none" xmlns="http://www.w3.org/2000/svg">
<rect x="4" y="4" width="60" height="60" rx="30" fill="#EFF1F5"/>
<rect x="4" y="4" width="60" height="60" rx="30" stroke="#F9F9FB" stroke-width="8"/>
<path fill-rule="evenodd" clip-rule="evenodd" d="M31.4826 36.5775C31.4826 36.4316 31.6061 36.3135 31.7586 36.3135C31.9111 36.3135 32.0357 36.4316 32.0357 36.5775V37.9469C32.0357 38.0927 31.9111 38.2109 31.7586 38.2109C31.6061 38.2109 31.4826 38.0927 31.4826 37.9469V36.5775ZM34.755 25.8135C34.3942 25.4684 33.8292 25.415 33.405 25.6861C32.9807 25.9563 32.8154 26.4761 33.0108 26.9271C33.2063 27.3781 33.7068 27.6339 34.2073 27.5394C34.7067 27.4438 35.0676 27.0237 35.0676 26.5357C35.0676 26.2645 34.9559 26.0046 34.755 25.8135ZM34 24.9855C34.7744 24.9855 35.4403 25.5084 35.5917 26.2337C35.7432 26.96 35.3372 27.6873 34.6219 27.9708C33.9066 28.2544 33.0817 28.015 32.6521 27.3997C32.2214 26.7833 32.3063 25.9635 32.854 25.4396C33.158 25.1489 33.5704 24.9855 34 24.9855ZM39.2606 26.358L43.75 28.7968H24.25L34 23.5L39.2606 26.358ZM33.4792 29.3247V32.9881C33.5362 33.0385 33.5684 33.1083 33.5684 33.1823V33.9353V33.9343C33.5963 33.9671 33.6318 33.9949 33.6704 34.0164C33.7273 34.0473 33.7918 34.0637 33.8573 34.0637C34.0657 34.0627 34.2343 33.9014 34.2354 33.7021V31.4914C34.2354 30.9993 34.6521 30.6007 35.1655 30.6007C35.6799 30.6007 36.0966 30.9993 36.0966 31.4914V32.1797C36.0966 32.379 36.2653 32.5413 36.4747 32.5413C36.683 32.5413 36.8527 32.379 36.8527 32.1797V30.6562C36.8527 30.1652 37.2695 29.7666 37.7828 29.7666C38.2962 29.7666 38.7129 30.1652 38.7129 30.6562V33.3578C38.7129 33.5571 38.8826 33.7195 39.091 33.7195C39.3004 33.7195 39.4691 33.5571 39.4691 33.3578V29.3247L33.4792 29.3247ZM27.6946 41.077V33.1822C27.6946 33.0363 27.8181 32.9192 27.9695 32.9192H32.9282V29.3247H25.8343V41.077H27.6946ZM33.0154 41.077V33.4462H28.2467V41.077H33.0154ZM42.1671 38.7369L40.3735 39.7272V41.077H42.1682V38.7369H42.1671ZM39.3618 41.7315V44.2144C39.3629 44.3716 39.4961 44.499 39.6604 44.5C39.8247 44.499 39.9579 44.3716 39.9589 44.2144V41.7315H39.3618ZM41.0974 35.1876L36.3567 35.1887C36.2117 35.1897 36.0936 35.3017 36.0925 35.4414V36.1379C36.0936 36.2765 36.2117 36.3895 36.3567 36.3906H41.0974C41.2435 36.3895 41.3606 36.2765 41.3616 36.1379V35.4403C41.3606 35.3006 41.2435 35.1876 41.0974 35.1876ZM41.9137 35.9427V35.6345H42.4915C42.7278 35.6345 42.9201 35.8184 42.9201 36.0444V37.4744C42.9211 37.5473 42.9029 37.6182 42.8653 37.6808C42.8298 37.7394 42.7794 37.7887 42.7181 37.8226L42.7053 37.8288L42.3229 38.0394V38.0404C42.3111 38.0455 42.3004 38.0517 42.2896 38.0589L40.0771 39.2824C40.0062 39.3214 39.9472 39.3748 39.9031 39.4406C39.8978 39.4478 39.8935 39.4539 39.8892 39.4611C39.8441 39.5351 39.8204 39.6203 39.8204 39.7056V41.2024L39.4993 41.2034V39.4817C39.4939 39.3337 39.5777 39.1961 39.7141 39.1252L42.3433 37.6736H42.3422C42.4206 37.6315 42.4851 37.5709 42.5302 37.4969C42.5753 37.423 42.5989 37.3387 42.5978 37.2524V36.4306C42.5978 36.1615 42.3691 35.9426 42.0866 35.9426L41.9137 35.9427ZM40.0213 29.3249H42.1672V35.1053H41.8364C41.7956 35.0252 41.7419 34.9512 41.6753 34.8886C41.5228 34.7417 41.3144 34.6585 41.0985 34.6595H36.3567C36.013 34.6595 35.7059 34.866 35.5888 35.1762H35.5748H35.5759C35.4384 35.1762 35.3074 35.2286 35.2107 35.3211C35.1141 35.4135 35.0593 35.5388 35.0593 35.6693V35.9045C35.0593 36.1778 35.2913 36.3987 35.5759 36.3987H35.5899C35.7069 36.7089 36.0141 36.9154 36.3578 36.9164H41.0974C41.4131 36.9154 41.6999 36.7408 41.8352 36.4685H42.0458V37.2277L39.438 38.668C39.133 38.8344 38.945 39.1446 38.9472 39.4805V41.0759H33.5686V34.5465C33.661 34.5763 33.7598 34.5917 33.8575 34.5917C34.3709 34.5907 34.7866 34.1931 34.7876 33.7021V31.4914C34.7876 31.2911 34.9573 31.1298 35.1657 31.1298C35.3751 31.1298 35.5437 31.2911 35.5437 31.4914V32.1797C35.5437 32.6707 35.9605 33.0693 36.4749 33.0693C36.9883 33.0693 37.405 32.6707 37.405 32.1797V30.6562C37.405 30.4569 37.5747 30.2946 37.7831 30.2946C37.9914 30.2946 38.1611 30.4569 38.1611 30.6562V33.3579C38.1611 33.8489 38.5778 34.2475 39.0912 34.2475C39.6057 34.2475 40.0224 33.8489 40.0224 33.3579L40.0213 29.3249Z" fill="#006555"/>
</svg>
