<svg width="69" height="68" viewBox="0 0 69 68" fill="none" xmlns="http://www.w3.org/2000/svg">
<rect x="4.5" y="4" width="60" height="60" rx="30" fill="#EFF1F5"/>
<rect x="4.5" y="4" width="60" height="60" rx="30" stroke="#F9F9FB" stroke-width="8"/>
<path d="M46.5151 20.4229H38.8702V19.6472C38.8702 19.4445 39.0343 19.2803 39.2368 19.2803H46.1486C46.351 19.2803 46.5151 19.4445 46.5151 19.6472V20.4229ZM38.8702 48.3029C38.8702 48.5056 39.0343 48.6698 39.2368 48.6698H46.1486C46.351 48.6698 46.5151 48.5056 46.5151 48.3029V47.3949H38.8702V48.3029ZM39.8718 28.9318L41.8656 29.9333L42.7843 28.1009C43.0344 27.6022 43.5355 27.2924 44.0922 27.2924C44.6664 27.2924 45.1926 27.6308 45.4327 28.1545C46.1478 29.7139 46.1178 31.4858 45.3506 33.0159C45.3463 33.0245 45.3413 33.0324 45.337 33.041C45.3504 33.0356 45.3606 33.0248 45.3747 33.0209L46.2451 32.7832C46.4045 32.7396 46.5151 32.5947 46.5151 32.4292V25.5062H40.6082C40.6515 25.5586 40.692 25.6139 40.7285 25.673C40.9969 26.1085 41.0199 26.642 40.7902 27.1002L39.8718 28.9318ZM38.8702 41.4606V42.3117H46.5151V37.9023C46.5151 37.6347 46.2382 37.4571 45.9953 37.569L45.807 37.6557C45.6605 37.7232 45.4871 37.6869 45.3799 37.5663L45.0054 37.145C44.9245 37.054 44.894 36.9287 44.9241 36.8106L45.1684 35.8493C45.1929 35.7531 45.1774 35.6512 45.1255 35.5667L44.6304 34.7604C44.5673 34.6575 44.5587 34.53 44.6076 34.4196L44.8986 33.7626C43.9254 35.1302 42.396 35.9902 40.6971 36.0978L40.0793 37.3301C40.1179 37.4066 40.1571 37.4827 40.1877 37.5646C40.4077 38.1523 40.3762 38.8107 40.1015 39.3708C39.7703 40.0462 39.3572 40.7836 38.8702 41.4606ZM46.7933 21.5237H38.592C38.3895 21.5237 38.2254 21.6879 38.2254 21.8906V24.0385C38.2254 24.2411 38.3895 24.4054 38.592 24.4054H46.7933C46.9957 24.4054 47.1598 24.2411 47.1598 24.0385V21.8906C47.1598 21.6879 46.9957 21.5237 46.7933 21.5237ZM46.7933 43.4124H38.592C38.3895 43.4124 38.2254 43.5767 38.2254 43.7794V45.9273C38.2254 46.1299 38.3895 46.2942 38.592 46.2942H46.7933C46.9957 46.2942 47.1598 46.1299 47.1598 45.9273V43.7794C47.1598 43.5767 46.9957 43.4124 46.7933 43.4124ZM33.2393 43.7537V44.7761L34.4105 45.3644C34.4633 45.3909 34.5194 45.4035 34.5746 45.4035C34.7089 45.4035 34.8383 45.3293 34.9026 45.201L35.6038 43.8024C35.27 43.857 34.9322 43.8941 34.5911 43.8941C34.0928 43.8941 33.637 43.8365 33.2393 43.7537ZM34.477 38.5782C34.9783 38.5782 35.4356 38.3062 35.7003 37.8508L36.0692 37.2161C36.4834 36.5035 37.2213 36.078 38.0432 36.078C38.5013 36.078 38.9294 36.213 39.2912 36.4478L40.0183 34.9976C40.1234 35.0049 40.2284 35.0086 40.3331 35.0086C41.9853 35.0086 43.5763 34.1008 44.3677 32.5222C45.0067 31.2477 44.9845 29.816 44.4332 28.6136C44.3663 28.4678 44.2289 28.3932 44.0922 28.3932C43.9633 28.3932 43.835 28.4594 43.7672 28.5947L42.5198 31.0828C42.4553 31.2111 42.326 31.2853 42.1916 31.2853C42.1364 31.2853 42.0803 31.2727 42.0275 31.2462L38.7233 29.5865C38.5423 29.4956 38.4693 29.2751 38.56 29.094L39.8073 26.6064C39.9338 26.3541 39.7418 26.0735 39.4778 26.0734C39.4516 26.0734 39.4247 26.0762 39.3974 26.082C37.9459 26.3911 36.661 27.4084 36.0929 28.9567C35.5258 30.5018 35.8808 32.2293 36.9184 33.4424L34.3485 38.5681C34.3913 38.5722 34.4342 38.5782 34.477 38.5782ZM39.1545 37.9419C38.9629 37.4406 38.5042 37.1788 38.0432 37.1788C37.6481 37.1788 37.2515 37.371 37.0197 37.7696L36.651 38.4042C36.1808 39.2132 35.3527 39.679 34.477 39.679C34.2256 39.679 33.9702 39.6406 33.7183 39.5609L31.2826 38.7804C30.5162 39.977 29.1787 40.7738 27.6561 40.7738C25.6649 40.7738 23.9897 39.4128 23.4984 37.5728C22.3559 39.2399 22.9351 40.8701 23.4796 41.805C23.8647 42.4662 24.0531 43.2228 24.0531 43.9882V48.3534C24.0531 48.556 24.2172 48.7203 24.4197 48.7203H31.773C31.9754 48.7203 32.1396 48.556 32.1396 48.3534V42.2153C32.1396 42.2153 33.1625 42.7933 34.5911 42.7933C34.9474 42.7933 35.3288 42.7573 35.7261 42.6675C37.253 42.3223 38.5597 40.0046 39.0853 38.9445C39.24 38.6323 39.2789 38.2674 39.1545 37.9419ZM27.6561 39.6731C29.4251 39.6731 30.8644 38.2326 30.8644 36.4621C30.8644 34.6913 29.4251 33.2509 27.6561 33.2509C25.8871 33.2509 24.448 34.6913 24.448 36.4621C24.448 38.2326 25.8871 39.6731 27.6561 39.6731Z" fill="#006555"/>
</svg>
