<svg width="247" height="15" viewBox="0 0 247 15" fill="none" xmlns="http://www.w3.org/2000/svg">
<path d="M246.207 8.20711C246.598 7.81658 246.598 7.18342 246.207 6.79289L239.843 0.428932C239.453 0.0384078 238.819 0.0384078 238.429 0.428932C238.038 0.819457 238.038 1.45262 238.429 1.84315L244.086 7.5L238.429 13.1569C238.038 13.5474 238.038 14.1805 238.429 14.5711C238.819 14.9616 239.453 14.9616 239.843 14.5711L246.207 8.20711ZM0.5 8.5H2.95V6.5H0.5V8.5ZM7.85 8.5H12.75V6.5H7.85V8.5ZM17.65 8.5H22.55V6.5H17.65V8.5ZM27.45 8.5H32.35V6.5H27.45V8.5ZM37.25 8.5H42.15V6.5H37.25V8.5ZM47.05 8.5H51.95V6.5H47.05V8.5ZM56.85 8.5H61.75V6.5H56.85V8.5ZM66.65 8.5H71.55V6.5H66.65V8.5ZM76.45 8.5H81.35V6.5H76.45V8.5ZM86.25 8.5H91.15V6.5H86.25V8.5ZM96.05 8.5H100.95V6.5H96.05V8.5ZM105.85 8.5H110.75V6.5H105.85V8.5ZM115.65 8.5H120.55V6.5H115.65V8.5ZM125.45 8.5H130.35V6.5H125.45V8.5ZM135.25 8.5H140.15V6.5H135.25V8.5ZM145.05 8.5H149.95V6.5H145.05V8.5ZM154.85 8.5H159.75V6.5H154.85V8.5ZM164.65 8.5H169.55V6.5H164.65V8.5ZM174.45 8.5H179.35V6.5H174.45V8.5ZM184.25 8.5H189.15V6.5H184.25V8.5ZM194.05 8.5H198.95V6.5H194.05V8.5ZM203.85 8.5H208.75V6.5H203.85V8.5ZM213.65 8.5H218.55V6.5H213.65V8.5ZM223.45 8.5H228.35V6.5H223.45V8.5ZM233.25 8.5H238.15V6.5H233.25V8.5ZM243.05 8.5H245.5V6.5H243.05V8.5Z" fill="#667085"/>
</svg>
