<svg width="24" height="24" viewBox="0 0 24 24" fill="none" xmlns="http://www.w3.org/2000/svg">
<path d="M20.1239 9.0784L18.1335 7.82626C17.7084 7.5559 17.3634 7.1767 17.1344 6.72803L16.1901 4.90199C15.97 4.46949 15.642 4.1011 15.2379 3.83246L13.3049 2.56466C12.8404 2.25677 12.4774 1.8184 12.2615 1.3047L12.191 1.14036C12.176 1.0992 12.1486 1.06367 12.1127 1.03857C12.0768 1.01346 12.034 1 11.9902 1C11.9463 1 11.9036 1.01346 11.8676 1.03857C11.8317 1.06367 11.8044 1.0992 11.7893 1.14036L11.7397 1.3047C11.5234 1.81744 11.1604 2.25486 10.6963 2.56205L8.77373 3.82724C8.36961 4.09589 8.04165 4.46427 7.82159 4.89677L6.87726 6.72281C6.64609 7.17471 6.29734 7.55591 5.86773 7.82626L3.87735 9.0784C3.8401 9.1131 3.81115 9.15574 3.79264 9.20316C3.77412 9.25057 3.76652 9.30155 3.77039 9.3523H20.2308C20.2347 9.30155 20.2271 9.25057 20.2086 9.20316C20.1901 9.15574 20.1611 9.1131 20.1239 9.0784Z" fill="#4A5578"/>
<path d="M11.9998 9.56641H4.39832L4.94091 10.4116H11.9998H19.0588L19.6014 9.56641H11.9998Z" fill="#4A5578"/>
<path d="M12.0002 10.623H4.94128V13.7847H5.65344V13.3334C5.65344 12.3969 6.35777 11.4265 7.21861 11.4265C8.08468 11.4265 8.78379 12.3969 8.78379 13.3334V13.6856H9.47246C9.45901 13.1752 9.61764 12.6751 9.92283 12.2658C10.228 11.8566 10.662 11.5618 11.155 11.4291C11.315 11.3898 11.4669 11.3227 11.6037 11.2309L11.9089 11.0326C11.9336 11.0159 11.9626 11.007 11.9924 11.007C12.0222 11.007 12.0512 11.0159 12.0759 11.0326L12.3811 11.2309C12.5179 11.3227 12.6697 11.3898 12.8298 11.4291C13.3228 11.5618 13.7568 11.8566 14.062 12.2658C14.3672 12.6751 14.5258 13.1752 14.5123 13.6856H15.2088V13.1247C15.1926 12.6923 15.348 12.2711 15.6413 11.9529C15.9345 11.6347 16.3417 11.4455 16.774 11.4265C17.2063 11.4455 17.6135 11.6347 17.9067 11.9529C18.2 12.2711 18.3554 12.6923 18.3392 13.1247V13.7847H19.0513V10.623H12.0002Z" fill="#4A5578"/>
<path d="M9.50567 13.998H8.78308V20.4466H9.50567V13.998Z" fill="#4A5578"/>
<path d="M5.66387 13.998H4.94128V20.4466H5.66387V13.998Z" fill="#4A5578"/>
<path d="M14.4941 20.4473H15.2167V13.9987H14.4941V20.4473Z" fill="#4A5578"/>
<path d="M18.336 20.4473H19.0586V13.9987H18.336V20.4473Z" fill="#4A5578"/>
<path d="M9.75587 22.0851H8.53503V20.9113C8.60422 20.9113 8.67057 20.8838 8.71949 20.8348C8.76841 20.7859 8.7959 20.7196 8.7959 20.6504H9.51849C9.51849 20.7196 9.54597 20.7859 9.59489 20.8348C9.64381 20.8838 9.71016 20.9113 9.77935 20.9113L9.75587 22.0851Z" fill="#4A5578"/>
<path d="M5.91317 22.0851H4.69495V20.9113C4.76413 20.9113 4.83048 20.8838 4.8794 20.8348C4.92833 20.7859 4.95581 20.7196 4.95581 20.6504H5.6784C5.6784 20.7196 5.70588 20.7859 5.7548 20.8348C5.80372 20.8838 5.87007 20.9113 5.93926 20.9113L5.91317 22.0851Z" fill="#4A5578"/>
<path d="M14.2427 22.0851H15.4636V20.9113C15.3944 20.9113 15.328 20.8838 15.2791 20.8348C15.2302 20.7859 15.2027 20.7196 15.2027 20.6504H14.4932C14.4932 20.7196 14.4657 20.7859 14.4168 20.8348C14.3678 20.8838 14.3015 20.9113 14.2323 20.9113L14.2427 22.0851Z" fill="#4A5578"/>
<path d="M18.0865 22.0851H19.3047V20.9113C19.2355 20.9113 19.1692 20.8838 19.1203 20.8348C19.0713 20.7859 19.0438 20.7196 19.0438 20.6504H18.3369C18.3369 20.7196 18.3094 20.7859 18.2605 20.8348C18.2116 20.8838 18.1452 20.9113 18.076 20.9113L18.0865 22.0851Z" fill="#4A5578"/>
<path d="M11.9998 22.2988H4.453V22.9979H11.9998H19.5465V22.2988H11.9998Z" fill="#4A5578"/>
</svg>
