<svg width="24" height="24" viewBox="0 0 24 24" fill="none" xmlns="http://www.w3.org/2000/svg">
<rect width="24" height="24" rx="12" fill="#D1FADF"/>
<path d="M16.375 7.625L7.625 16.375M10.125 8.875C10.125 9.56536 9.56536 10.125 8.875 10.125C8.18464 10.125 7.625 9.56536 7.625 8.875C7.625 8.18464 8.18464 7.625 8.875 7.625C9.56536 7.625 10.125 8.18464 10.125 8.875ZM16.375 15.125C16.375 15.8154 15.8154 16.375 15.125 16.375C14.4346 16.375 13.875 15.8154 13.875 15.125C13.875 14.4346 14.4346 13.875 15.125 13.875C15.8154 13.875 16.375 14.4346 16.375 15.125Z" stroke="#12B76A" stroke-width="1.4" stroke-linecap="round" stroke-linejoin="round"/>
</svg>
