<svg width="32" height="33" viewBox="0 0 32 33" fill="none" xmlns="http://www.w3.org/2000/svg">
<path d="M25.9995 5.50136V24.2141H5.98828V9.54942L11.2584 4.2793H24.8156C25.4648 4.2793 25.9995 4.85214 25.9995 5.50136Z" fill="#EFF2F3"/>
<path d="M10.1518 9.54942H6.02734L11.2593 4.2793L11.2211 8.40374C11.2593 9.05296 10.7628 9.54942 10.1518 9.54942Z" fill="#DADEDE"/>
<path d="M17.9407 14.9726C16.8332 13.9033 16.0312 12.6813 16.0312 12.6813C16.3367 12.223 17.0623 9.58792 15.9548 8.82413C14.8473 8.06034 14.2745 9.47335 14.2745 9.47335C13.778 11.2301 14.9619 12.834 14.9619 12.834L13.6253 15.7746C13.4725 15.7746 9.2335 17.4167 10.6847 19.4408C12.1741 21.4648 14.2363 16.5766 14.2363 16.5766C15.0383 16.3092 17.4824 15.9655 17.4824 15.9655C18.4371 17.264 19.5828 17.6841 19.5828 17.6841C21.3395 18.1423 21.5305 16.6911 21.5305 16.6911C21.5687 14.7817 17.9407 14.9726 17.9407 14.9726ZM11.4103 18.7534C11.3721 18.7534 11.3721 18.7152 11.3721 18.7152C11.143 18.1805 12.8997 17.1494 12.8997 17.1494C12.8997 17.1494 11.9449 18.9825 11.4103 18.7534ZM15.382 9.51154C15.8784 9.96981 15.4584 11.5356 15.4584 11.5356C15.4584 11.5356 14.8855 9.96981 15.382 9.51154ZM14.9237 15.4309L15.6111 13.7506L16.6804 15.049L14.9237 15.4309ZM20.5757 16.6529C20.2702 17.1494 19.01 16.0801 18.8954 15.9655C19.0863 15.9655 20.7285 16.0801 20.5757 16.6529ZM25.9986 22.9924V27.4987C25.9986 28.1479 25.464 28.7208 24.7766 28.7208H7.17128C6.52206 28.7208 5.94922 28.1861 5.94922 27.4987V22.9924H25.9986Z" fill="#F2786B"/>
<path d="M14.4273 24.978C14.4273 25.2835 14.3127 25.5126 14.1217 25.7036C13.9308 25.8563 13.6253 25.9327 13.2434 25.9327H12.9379V27.0402H12.4414V24.0996H13.3198C13.7017 24.0996 13.969 24.176 14.1599 24.3287C14.3509 24.4815 14.4273 24.6724 14.4273 24.978ZM12.9761 25.5508H13.2434C13.4725 25.5508 13.6635 25.5126 13.778 25.4362C13.8926 25.3599 13.969 25.2071 13.969 25.0162C13.969 24.8634 13.9308 24.7106 13.8162 24.6343C13.7017 24.5579 13.5489 24.5197 13.3198 24.5197H12.9761V25.5508ZM17.4442 25.5508C17.4442 26.0473 17.2915 26.4292 17.0241 26.6583C16.7568 26.9256 16.3749 27.0402 15.8403 27.0402H15.0001V24.0996H15.9166C16.3749 24.0996 16.7568 24.2142 17.0241 24.4815C17.2915 24.7106 17.4442 25.0925 17.4442 25.5508ZM16.9096 25.5508C16.9096 24.8252 16.5659 24.4815 15.9166 24.4815H15.4966V26.6201H15.8403C16.5659 26.6583 16.9096 26.2764 16.9096 25.5508ZM18.5517 27.0402H18.0552V24.0996H19.7356V24.5197H18.5517V25.4362H19.6592V25.8563H18.5517V27.0402Z" fill="#EFF2F3"/>
</svg>
