<svg width="20" height="20" viewBox="0 0 20 20" fill="none" xmlns="http://www.w3.org/2000/svg">
<path d="M16.2845 17.1474L11.0505 11.9133C10.6339 12.2573 10.1547 12.5265 9.61302 12.721C9.07135 12.9154 8.51101 13.0126 7.93198 13.0126C6.50767 13.0126 5.30226 12.5195 4.31573 11.5333C3.3292 10.547 2.83594 9.34188 2.83594 7.91785C2.83594 6.49396 3.32906 5.2884 4.31531 4.30118C5.30156 3.3141 6.5067 2.82056 7.93073 2.82056C9.35462 2.82056 10.5602 3.31382 11.5474 4.30035C12.5345 5.28688 13.028 6.49229 13.028 7.9166C13.028 8.51174 12.9282 9.08014 12.7284 9.62181C12.5286 10.1635 12.262 10.6346 11.9286 11.0351L17.1626 16.2691L16.2845 17.1474ZM7.93198 11.7628C9.00573 11.7628 9.91517 11.3902 10.6603 10.6449C11.4056 9.89979 11.7782 8.99035 11.7782 7.9166C11.7782 6.84285 11.4056 5.9334 10.6603 5.18826C9.91517 4.44299 9.00573 4.07035 7.93198 4.07035C6.85823 4.07035 5.94878 4.44299 5.20365 5.18826C4.45837 5.9334 4.08573 6.84285 4.08573 7.9166C4.08573 8.99035 4.45837 9.89979 5.20365 10.6449C5.94878 11.3902 6.85823 11.7628 7.93198 11.7628Z" fill="white"/>
</svg>
