<svg width="157" height="37" viewBox="0 0 157 37" fill="none" xmlns="http://www.w3.org/2000/svg">
<g clip-path="url(#clip0_4200_16605)">
<path d="M57.019 7.2196C59.7497 7.2196 62.1874 8.53565 62.7739 11.3727L60.6951 11.6778C60.2005 9.73331 58.4631 9.14587 56.9314 9.14587C55.7586 9.14587 53.7016 9.63768 53.7016 11.4228C53.7016 12.7889 54.7651 13.4173 56.183 13.7452L57.9336 14.1459C60.253 14.6833 63.0276 15.5121 63.0276 18.6997C63.0276 21.7964 60.2793 23.3674 57.2552 23.3674C53.6667 23.3674 51.4129 21.3272 51.0059 18.3582L53.0802 18.0531C53.4872 20.2161 54.8877 21.4366 57.299 21.4366C59.531 21.4366 60.8395 20.4484 60.8395 18.9002C60.8395 17.2334 59.4653 16.6232 57.5703 16.1679L55.6754 15.7443C53.6011 15.289 51.5003 14.1277 51.5003 11.4729C51.5134 8.48556 54.5594 7.2196 57.019 7.2196Z" fill="#2B2B2B"/>
<path d="M64.9741 27.1468V25.4118H65.7662C67.0047 25.4118 67.5693 25.2706 68.1338 23.3216L68.2039 23.0848L64.1426 11.5864H66.2607L69.1273 20.4117L71.9237 11.5864H73.9105L69.8931 23.5812C69.1053 25.9264 68.4708 27.1468 65.9544 27.1468H64.9741Z" fill="#2B2B2B"/>
<path d="M81.924 14.8961C81.6308 13.5572 80.5717 13.0746 79.1713 13.0746C77.9765 13.0746 76.8037 13.53 76.8037 14.4817C76.8037 15.3924 77.4601 15.7476 78.633 16.0072L79.9459 16.2895C82.0203 16.745 83.959 17.51 83.959 19.7868C83.959 22.0638 81.9502 23.3752 79.3595 23.3752C76.401 23.3752 74.7775 21.4536 74.5762 19.6456L76.5849 19.459C76.8781 20.8252 77.7359 21.7086 79.4032 21.7086C80.9394 21.7086 82.029 21.0072 82.029 19.9964C82.029 18.9854 80.9 18.4253 79.6134 18.1429L78.1822 17.8515C76.5805 17.5236 74.8869 16.795 74.8869 14.6137C74.8869 12.5919 77.005 11.426 79.377 11.426C81.8584 11.426 83.4819 12.7604 83.9109 14.7322L81.924 14.8961ZM86.9568 8.41602H88.8736V11.6036H90.9918V13.2476H88.8736V19.8689C88.8736 21.0892 88.9392 21.3944 90.0465 21.3944H90.9918V23.0838H89.6176C87.4513 23.0838 86.9568 22.592 86.9568 20.1512V13.2294H85.1713V11.5855H86.9568V8.41602Z" fill="#2B2B2B"/>
<path d="M92.1738 17.3963C92.1738 13.8032 94.4058 11.4126 97.5436 11.4126C101.018 11.4126 103.001 14.2724 102.73 17.9837H94.2044C94.2044 20.2378 95.6049 21.6267 97.4735 21.6267C99.2241 21.6267 100.099 20.8525 100.59 19.6048L102.55 19.8644C102.034 21.7679 100.296 23.3845 97.5217 23.3845C93.9112 23.3663 92.1738 20.7387 92.1738 17.3963ZM94.2264 16.317H100.699C100.699 15.8889 100.617 15.4652 100.458 15.0707C100.298 14.6761 100.065 14.3186 99.7709 14.0192C99.477 13.7197 99.1286 13.4844 98.7462 13.3268C98.3637 13.1693 97.9549 13.093 97.5436 13.102C95.6093 13.0884 94.3182 14.2814 94.2264 16.3033V16.317Z" fill="#2B2B2B"/>
<path d="M104.732 11.5855H106.649V13.1793C107.236 12.1456 108.251 11.3989 110.076 11.3989C111.901 11.3989 112.702 12.1957 113.236 13.3934C114.072 12.0773 115.289 11.3989 117.118 11.3989C117.603 11.3827 118.086 11.4702 118.538 11.6558C118.99 11.8414 119.399 12.1213 119.744 12.478C120.417 13.2295 120.711 14.3998 120.711 16.0209V23.0838H118.802V16.5856C118.802 15.1739 118.623 14.2814 118.172 13.7895C117.941 13.5598 117.665 13.3827 117.363 13.2698C117.062 13.1569 116.741 13.1106 116.421 13.1338C114.75 13.1338 113.691 14.4727 113.691 16.8907V23.0838H111.774V16.5856C111.774 15.1739 111.594 14.2814 111.143 13.7895C110.912 13.5598 110.637 13.3827 110.335 13.2698C110.033 13.1569 109.712 13.1106 109.393 13.1338C107.721 13.1338 106.662 14.4727 106.662 16.8907V23.0838H104.746L104.732 11.5855Z" fill="#2B2B2B"/>
<path d="M125.306 13.1805C125.937 12.1742 127.057 11.4 128.938 11.4C130.426 11.4 131.463 11.9829 132.05 12.971C132.488 13.6997 132.659 14.6605 132.659 16.0221V23.085H130.742V16.564C130.742 15.3436 130.606 14.615 130.335 14.1186C129.928 13.4173 129.254 13.135 128.282 13.135C126.431 13.135 125.306 14.451 125.306 16.9602V23.085H123.385V7.50195H125.306V13.1805Z" fill="#2B2B2B"/>
<path d="M142.322 21.4455C141.714 22.5246 140.743 23.3444 138.852 23.3444C137.496 23.3444 136.55 22.8298 135.964 22.0055C135.42 21.2542 135.193 20.1522 135.193 18.7223V11.5864H137.115V18.0892C137.058 18.9205 137.18 19.7545 137.473 20.5301C137.837 21.3043 138.559 21.6094 139.547 21.6094C141.298 21.6094 142.322 20.2705 142.322 17.8524V11.5864H144.239V23.0848H142.322V21.4455Z" fill="#2B2B2B"/>
<path d="M153.549 14.8962C153.257 13.5574 152.197 13.0747 150.802 13.0747C149.602 13.0747 148.429 13.5301 148.429 14.4818C148.429 15.3926 149.086 15.7478 150.258 16.0073L151.571 16.2896C153.646 16.7451 155.589 17.5101 155.589 19.7869C155.589 22.0639 153.581 23.3754 150.984 23.3754C148.031 23.3754 146.408 21.4537 146.201 19.6458L148.21 19.4591C148.504 20.8253 149.361 21.7087 151.029 21.7087C152.565 21.7087 153.655 21.0074 153.655 19.9965C153.655 18.9855 152.525 18.4254 151.243 18.143L149.799 17.8379C148.197 17.5101 146.503 16.7815 146.503 14.6002C146.503 12.5783 148.626 11.4126 150.994 11.4126C153.475 11.4126 155.099 12.7468 155.528 14.7186L153.549 14.8962Z" fill="#2B2B2B"/>
<path d="M16.2012 1.05648C17.1946 1.46177 18.5119 2.02189 19.4878 2.47271C20.4637 2.01733 21.7766 1.45722 22.7745 1.05648C21.7941 0.719501 20.4813 0.28689 19.4878 0C18.4944 0.295998 17.1771 0.710393 16.2012 1.05648Z" fill="#2B2B2B"/>
<path d="M21.5449 5.21361C22.5427 5.85114 23.86 6.71182 24.8316 7.38578C25.8118 6.72092 27.1204 5.84659 28.1182 5.21361C27.1422 4.64895 25.8293 3.91122 24.8316 3.39209C23.8381 3.92489 22.5208 4.6535 21.5449 5.21361Z" fill="#2B2B2B"/>
<path d="M26.9004 10.0914C27.8938 10.9201 29.2111 12.0358 30.187 12.8965C31.163 12.045 32.4714 10.9156 33.4693 10.0914C32.4934 9.33087 31.1848 8.32904 30.187 7.60498C29.1892 8.33814 27.8719 9.32632 26.9004 10.0914Z" fill="#2B2B2B"/>
<path d="M32.2285 15.8559C33.2176 16.8168 34.5348 18.1055 35.5151 19.08C36.4998 18.1101 37.8127 16.8031 38.8017 15.8559C37.8258 14.9451 36.5129 13.6883 35.5151 12.7776C34.5216 13.6883 33.2044 14.9224 32.2285 15.8559Z" fill="#2B2B2B"/>
<path d="M10.8613 5.21361C11.8592 5.85114 13.1764 6.71182 14.1479 7.38578C15.1283 6.72092 16.4367 5.84659 17.4389 5.21361C16.4587 4.64895 15.1501 3.91122 14.1479 3.39209C13.1545 3.92489 11.8372 4.6535 10.8613 5.21361Z" fill="#2B2B2B"/>
<path d="M16.2012 10.0914C17.1946 10.9201 18.5163 12.0358 19.4878 12.8965C20.4637 12.045 21.7766 10.9156 22.7745 10.0914C21.7986 9.33087 20.4857 8.32904 19.4878 7.60498C18.4901 8.33814 17.1728 9.32632 16.2012 10.0914Z" fill="#2B2B2B"/>
<path d="M21.5449 15.8556C22.534 16.8165 23.8512 18.1052 24.8316 19.0798C25.8162 18.1098 27.1291 16.8028 28.1182 15.8556C27.1422 14.9449 25.8293 13.6881 24.8316 12.7773C23.8381 13.6881 22.5208 14.9221 21.5449 15.8556Z" fill="#2B2B2B"/>
<path d="M26.9004 21.9405L30.187 25.2875L33.4693 21.9405C32.489 20.9478 31.1761 19.6318 30.187 18.6436C29.198 19.6318 27.8807 20.9478 26.9004 21.9405Z" fill="#2B2B2B"/>
<path d="M5.52539 10.0914C6.51881 10.9202 7.84046 12.0358 8.81201 12.8966C9.78793 12.045 11.1009 10.9157 12.0986 10.0914C11.1227 9.33093 9.83608 8.34277 8.81201 7.60504C7.81859 8.3382 6.49694 9.32638 5.52539 10.0914Z" fill="#2B2B2B"/>
<path d="M10.8613 15.8556C11.8503 16.8165 13.1676 18.1052 14.1479 19.0798C15.1326 18.1098 16.4456 16.8028 17.4389 15.8556C16.4587 14.9449 15.1457 13.6881 14.1479 12.7773C13.1545 13.6881 11.8372 14.9221 10.8613 15.8556Z" fill="#2B2B2B"/>
<path d="M16.2012 21.9405L19.4878 25.2875C20.4726 24.2812 21.7854 22.9424 22.7745 21.9405C21.7897 20.9478 20.4769 19.6318 19.4878 18.6436C18.4988 19.6318 17.1859 20.9478 16.2012 21.9405Z" fill="#2B2B2B"/>
<path d="M21.5449 27.8692L24.8316 31.2344L28.1182 27.8692C27.1335 26.8582 25.8206 25.5103 24.8316 24.5039L21.5449 27.8692Z" fill="#2B2B2B"/>
<path d="M0.205078 15.8559C1.19413 16.8168 2.5114 18.1055 3.49171 19.08C4.472 18.1101 5.7849 16.8031 6.77833 15.8559C5.79803 14.9451 4.4895 13.6883 3.49171 12.7776C2.49828 13.6883 1.181 14.9224 0.205078 15.8559Z" fill="#2B2B2B"/>
<path d="M5.52539 21.9405C6.51444 22.9425 7.82734 24.2813 8.81201 25.2876L12.0986 21.9405C11.114 20.9478 9.80106 19.6319 8.81201 18.6436C7.82296 19.6319 6.51006 20.9478 5.52539 21.9405Z" fill="#2B2B2B"/>
<path d="M10.8613 27.8692L14.1479 31.2344L17.4389 27.8692C16.4499 26.8582 15.137 25.5103 14.1479 24.5039L10.8613 27.8692Z" fill="#2B2B2B"/>
<path d="M16.2012 33.5529C17.1859 34.5365 18.4988 35.8299 19.4878 36.8272C20.4769 35.848 21.7897 34.5502 22.7745 33.5529C21.7854 32.5511 20.4726 31.2168 19.4878 30.2104C18.5032 31.2168 17.1902 32.5511 16.2012 33.5529Z" fill="#2B2B2B"/>
</g>
<defs>
<clipPath id="clip0_4200_16605">
<rect width="156" height="37" fill="white" transform="translate(0.205078)"/>
</clipPath>
</defs>
</svg>
