<svg width="555" height="163" viewBox="0 0 555 163" fill="none" xmlns="http://www.w3.org/2000/svg">
<path d="M151.415 115.174C150.175 115.586 149.018 115.834 148.77 115.71C148.564 115.586 148.522 115.628 148.646 115.875C148.77 116.082 148.522 116.577 148.068 116.948C147.117 117.774 146.704 117.856 147.117 117.113C147.324 116.783 147.2 116.783 146.745 117.196C146.001 117.815 145.795 118.269 146.456 117.856C147.076 117.485 146.952 117.98 146.167 118.847C145.795 119.301 145.34 119.589 145.175 119.507C145.009 119.383 144.927 119.548 144.927 119.837C144.968 120.085 144.637 121.447 144.224 122.767C143.315 125.697 143.48 129.37 144.637 131.888C145.051 132.796 145.381 133.786 145.381 134.116C145.423 134.446 145.712 134.735 146.084 134.776C146.993 134.942 148.977 136.262 148.77 136.592C148.605 136.84 148.77 136.881 153.44 137.294C156.457 137.542 160.508 136.964 161.623 136.097C161.913 135.891 162.45 135.808 162.781 135.973C163.153 136.097 163.318 136.056 163.194 135.849C163.07 135.643 163.153 135.354 163.401 135.189C163.649 135.024 163.814 133.043 163.814 130.402V125.904H159.474H155.135V127.142C155.135 128.38 155.176 128.38 157.367 128.38C159.846 128.38 160.094 128.627 160.094 131.31C160.094 133.084 159.144 134.364 157.491 134.776C155.879 135.189 152.035 134.818 152.118 134.281C152.2 133.951 151.953 133.869 151.539 134.034C151.043 134.24 150.961 134.157 151.209 133.745C151.457 133.373 151.374 133.291 151.043 133.538C150.382 133.91 148.44 132.135 148.729 131.351C148.812 131.062 148.77 130.938 148.522 131.062C147.985 131.392 147.282 128.586 147.282 126.11C147.282 123.881 148.357 121.116 149.555 120.126C150.175 119.631 150.258 119.631 149.969 120.085C149.762 120.497 149.803 120.58 150.134 120.374C150.382 120.208 150.506 119.92 150.382 119.713C150.093 119.218 151.291 118.351 151.87 118.723C152.2 118.888 152.242 118.847 152.077 118.558C151.539 117.691 153.936 117.155 157.201 117.361C160.466 117.526 162.698 118.31 162.285 119.053C162.119 119.383 162.202 119.383 162.533 119.053C162.822 118.805 162.987 117.897 162.905 116.989C162.781 115.504 162.698 115.421 160.714 114.885C157.821 114.142 154.102 114.266 151.415 115.174Z" fill="white"/>
<path d="M393.686 114.99C392.942 115.361 392.115 115.485 391.867 115.361C391.619 115.196 391.537 115.237 391.661 115.485C391.826 115.732 391.661 116.145 391.289 116.475C390.958 116.764 390.297 117.796 389.842 118.786C389.016 120.643 389.057 122.624 389.966 123.739C390.173 124.028 390.214 124.482 390.049 124.77C389.884 125.059 389.925 125.183 390.09 124.977C390.297 124.812 390.876 124.977 391.413 125.307C391.909 125.678 394.141 126.504 396.29 127.205C400.257 128.485 401.745 129.351 401.91 130.466C402.034 131.745 401.869 132.57 401.456 132.323C401.249 132.199 401.166 132.323 401.29 132.694C401.456 133.107 401.042 133.602 400.133 134.18C398.356 135.253 395.174 135.253 392.157 134.221C390.256 133.561 389.925 133.519 389.718 134.056C389.305 135.046 389.429 136.243 389.925 136.243C390.132 136.243 390.214 136.408 390.09 136.656C389.925 136.904 390.132 136.945 390.545 136.78C390.958 136.656 391.165 136.697 391.041 136.904C390.586 137.605 398.604 137.605 400.629 136.904C401.621 136.573 402.613 136.408 402.861 136.532C403.109 136.656 403.192 136.615 402.985 136.45C402.82 136.243 403.192 135.542 403.811 134.923C404.886 133.808 404.969 133.437 404.969 130.589C404.969 127.577 404.927 127.453 403.563 126.339C402.82 125.678 401.58 125.059 400.794 124.894C400.009 124.77 399.472 124.482 399.596 124.275C399.72 124.028 399.596 123.986 399.265 124.11C398.935 124.234 397.612 124.028 396.372 123.656C393.645 122.872 392.446 121.469 393.066 119.777C393.273 119.199 393.686 118.745 393.934 118.786C394.223 118.869 394.389 118.704 394.347 118.415C394.141 117.631 396.91 116.847 399.059 117.053C400.133 117.177 401.662 117.548 402.448 117.878C403.233 118.209 404.018 118.497 404.142 118.497C404.266 118.497 404.349 117.713 404.307 116.723C404.225 115.278 404.059 114.99 403.357 114.948C395.959 114.412 395.008 114.412 393.686 114.99Z" fill="white"/>
<path d="M13.377 125.904V137.047H15.0301H16.6832L16.7246 135.272C16.7659 134.323 16.7659 132.425 16.7659 131.104C16.7246 127.06 16.6832 127.101 22.7999 127.225L28.0486 127.349L28.1726 132.177L28.2966 137.047H30.1151H31.9749V125.945V114.803L30.3217 114.844C29.4125 114.844 28.6272 114.968 28.6272 115.133C28.5859 115.257 28.5446 117.362 28.4619 119.838C28.4206 122.273 28.2553 124.377 28.1313 124.542C27.842 124.79 17.4272 124.749 17.1792 124.46C16.9312 124.212 16.7659 122.025 16.7246 118.146L16.6832 114.762H15.0301H13.377V125.904Z" fill="white"/>
<path d="M47.5073 115.133C45.9781 115.381 45.8954 115.463 44.7382 118.476C41.8452 125.863 40.5227 128.752 40.1094 128.504C39.8615 128.38 39.8201 128.463 39.9854 128.752C40.3161 129.288 38.2496 135.066 37.8364 134.818C37.671 134.736 37.547 135.19 37.5057 135.85C37.4644 136.882 37.5884 137.047 38.6216 137.047C40.1094 137.047 40.8533 136.263 41.6799 133.787C42.1345 132.383 42.5891 131.682 43.2504 131.517C44.9862 131.063 52.0534 131.269 52.7147 131.764C53.0453 132.053 53.7479 133.374 54.2852 134.653L55.1944 137.047H57.0542C58.7487 137.047 58.8726 137.006 58.5833 136.098C58.4594 135.602 58.0461 134.653 57.7154 134.034C57.3848 133.374 57.2195 132.59 57.3435 132.26C57.4675 131.93 57.4261 131.723 57.2195 131.847C57.0129 131.971 56.6409 131.599 56.4343 130.939C56.1863 130.32 55.0704 127.514 53.8719 124.707C52.7147 121.86 51.8881 119.26 52.0121 118.93C52.1361 118.6 52.1361 118.435 51.9294 118.6C51.7641 118.806 51.2268 117.981 50.6896 116.825C50.1936 115.711 49.6564 114.803 49.4497 114.803C49.2844 114.844 48.4165 115.009 47.5073 115.133ZM48.7884 120.581C48.6645 121.034 48.7058 121.282 48.8711 121.158C49.2431 120.952 51.8054 127.39 51.8054 128.463C51.8054 129.123 51.3508 129.206 47.8792 129.206C44.325 129.206 43.953 129.123 43.953 128.422C43.953 127.101 44.8209 125.079 45.3168 125.368C45.5648 125.492 45.6061 125.409 45.4408 125.161C45.2755 124.872 45.5648 123.552 46.0608 122.149C46.5567 120.746 47.094 119.879 47.2593 120.127C47.4659 120.457 47.6312 120.374 47.8379 119.92C48.1685 119.012 49.0364 119.59 48.7884 120.581Z" fill="white"/>
<path d="M65.0391 125.987V137.047H72.2716H79.5041V135.809V134.571H74.1727C69.0066 134.571 68.8413 134.529 68.5933 133.622C68.4693 133.126 68.3454 128.711 68.3454 123.799V114.844L66.6922 114.885L65.0391 114.927V125.987Z" fill="white"/>
<path d="M85.7041 125.904V137.047H92.6473H99.6319L99.4252 135.809L99.2599 134.612L94.2178 134.488L89.217 134.364L89.0931 124.542L89.0104 114.762H87.3572H85.7041V125.904Z" fill="white"/>
<path d="M105.127 125.945V137.047H106.987H108.847V125.987V114.968L106.987 114.885L105.127 114.844V125.945Z" fill="white"/>
<path d="M116.492 115.142C116.368 115.225 116.285 120.219 116.285 126.203V137.056H117.732H119.178L119.219 130.123C119.261 121.292 119.219 121.704 120.294 121.539C121.203 121.374 121.865 122.323 121.41 123.149C121.286 123.438 121.493 123.273 121.823 122.86C122.567 121.952 122.691 122.282 122.071 123.438C121.782 123.974 121.782 124.304 122.154 124.511C122.443 124.717 122.484 124.634 122.278 124.222C121.947 123.726 122.03 123.726 122.65 124.222C123.022 124.552 123.27 125.047 123.146 125.377C123.022 125.707 123.063 125.872 123.27 125.707C123.766 125.419 125.501 127.853 125.171 128.39C125.006 128.637 125.129 128.761 125.377 128.72C125.997 128.555 128.766 132.476 128.436 132.971C128.312 133.177 128.436 133.301 128.684 133.26C128.973 133.177 129.8 133.961 130.502 134.993C131.742 136.726 131.99 136.85 133.932 136.974L136.04 137.098L136.082 126.203C136.164 114.317 136.206 114.441 133.809 115.019L132.817 115.266V123.479C132.817 128.266 132.651 131.691 132.445 131.691C131.453 131.691 128.064 126.987 128.518 126.244C128.684 125.955 128.642 125.914 128.353 126.079C127.775 126.409 126.452 124.469 126.824 123.85C126.989 123.603 126.865 123.479 126.535 123.52C126.245 123.603 126.039 123.314 126.039 122.942C126.08 122.53 125.956 122.282 125.791 122.406C125.295 122.736 124.427 121.457 124.799 120.92C124.964 120.631 124.923 120.549 124.675 120.673C124.096 121.044 123.146 119.888 123.518 119.311C123.683 119.063 123.559 118.939 123.228 118.981C122.939 119.063 122.691 118.733 122.691 118.279C122.691 117.825 122.484 117.454 122.236 117.454C121.989 117.454 121.203 116.835 120.501 116.092C119.55 115.06 118.93 114.771 117.938 114.854C117.236 114.895 116.574 115.019 116.492 115.142Z" fill="white"/>
<path d="M170.756 125.863L170.632 137.047H175.591C178.567 137.047 181.501 136.799 182.824 136.469C184.064 136.139 185.221 135.974 185.386 136.056C185.551 136.18 185.593 135.974 185.469 135.644C185.304 135.231 185.428 134.983 185.841 134.983C186.791 134.983 189.354 131.93 189.808 130.155C190.056 129.288 190.263 127.266 190.263 125.615C190.263 122.19 189.354 119.673 187.453 117.857C186.75 117.196 186.295 116.495 186.419 116.289C186.543 116.041 186.461 116 186.254 116.123C186.006 116.289 185.097 116.123 184.229 115.752C183.113 115.298 180.799 115.009 176.748 114.844L170.88 114.638L170.756 125.863ZM180.22 117.485C180.757 117.65 181.088 117.898 180.964 118.063C180.881 118.228 181.212 118.269 181.708 118.187C183.816 117.774 186.419 121.406 186.833 125.326C187.122 127.844 186.006 131.476 185.18 130.98C184.89 130.857 184.808 130.857 184.973 131.063C185.428 131.558 184.477 133.003 183.816 132.755C183.485 132.631 183.278 132.755 183.361 133.044C183.402 133.333 183.03 133.539 182.534 133.498C182.039 133.498 181.667 133.663 181.708 133.91C181.749 134.199 180.509 134.364 178.071 134.364H174.351L174.227 126.358C174.145 120.828 174.269 118.187 174.599 117.815C175.095 117.238 178.484 117.031 180.22 117.485Z" fill="white"/>
<path d="M203.53 115.339C203.365 115.587 202.993 116.33 202.786 117.031C201.381 121.2 197.951 128.752 197.579 128.504C197.331 128.38 197.29 128.463 197.455 128.752C197.786 129.288 195.678 135.066 195.223 134.777C195.099 134.695 195.058 135.148 195.141 135.85C195.306 136.882 195.471 137.047 196.67 137.047C197.868 137.047 198.075 136.882 198.736 135.066C200.183 131.187 200.017 131.269 205.308 131.269C209.812 131.269 209.978 131.31 210.474 132.26C210.804 132.796 210.887 133.498 210.722 133.787C210.474 134.117 210.556 134.199 210.928 133.952C211.342 133.704 211.424 133.787 211.218 134.323C211.011 134.777 211.094 134.942 211.424 134.736C211.713 134.529 211.796 134.736 211.672 135.314C211.507 135.809 211.548 136.139 211.755 136.015C211.92 135.891 212.168 136.098 212.333 136.428C212.499 136.841 213.16 137.047 214.441 137.047H216.301L215.433 134.777C214.978 133.539 214.73 132.301 214.896 132.053C215.061 131.764 215.02 131.682 214.772 131.806C214.524 131.971 214.028 131.352 213.615 130.32C213.243 129.371 212.664 128.009 212.375 127.349C211.92 126.234 209.647 120.663 207.87 116.33C207.291 114.844 207.167 114.762 205.555 114.844C204.646 114.885 203.737 115.092 203.53 115.339ZM206.01 119.755C206.961 121.447 208.572 126.276 208.696 127.638L208.82 129.206H205.349C203.365 129.206 201.753 129.041 201.629 128.752C201.257 128.215 202.249 125.863 202.704 126.152C202.91 126.276 202.952 126.069 202.828 125.698C202.662 125.368 202.745 124.542 202.993 123.923C203.2 123.304 203.737 121.901 204.109 120.828C204.812 118.888 205.39 118.558 206.01 119.755Z" fill="white"/>
<path d="M223.239 115.092L222.082 115.216V126.152V137.047H229.315H236.547V135.809V134.612L231.298 134.488L226.008 134.364L225.884 124.584C225.76 113.812 226.05 114.762 223.239 115.092Z" fill="white"/>
<path d="M250.189 114.968C250.189 115.092 250.851 116.866 251.677 118.888C252.463 120.952 253 122.809 252.834 123.098C252.669 123.346 252.711 123.428 253 123.263C253.537 122.933 254.074 124.46 253.661 125.12C253.496 125.409 253.537 125.492 253.785 125.368C254.364 124.996 256.141 129.412 255.727 130.072C255.562 130.361 255.604 130.444 255.851 130.32C256.265 130.072 256.802 131.269 258.538 135.891C258.951 136.964 259.158 137.047 261.1 137.047H263.208L264.2 134.364C264.778 132.92 265.357 131.806 265.564 131.93C265.729 132.053 265.77 131.888 265.646 131.558C265.398 130.898 268.333 123.346 268.746 123.593C268.87 123.676 269.035 123.263 269.077 122.685C269.118 122.066 269.821 120.044 270.647 118.146L272.094 114.72L270.11 114.844L268.167 114.968L266.349 120.003C265.274 123.098 264.407 124.955 264.117 124.79C263.869 124.666 263.828 124.749 263.993 124.996C264.365 125.615 262.423 131.187 261.555 132.053C260.935 132.672 260.811 132.631 260.274 131.888C259.943 131.434 259.736 130.733 259.86 130.32C259.943 129.949 259.902 129.701 259.695 129.825C259.282 130.072 257.918 125.945 258.207 125.203C258.331 124.872 258.29 124.707 258.083 124.831C257.877 124.955 257.298 123.923 256.802 122.479C256.265 121.076 255.48 119.095 255.066 118.104C254.612 117.114 254.322 116 254.446 115.628C254.57 115.092 254.198 114.927 252.38 114.844C251.181 114.762 250.189 114.844 250.189 114.968Z" fill="white"/>
<path d="M281.348 115.463C280.521 118.063 277.67 123.758 277.339 123.552C277.091 123.428 277.05 123.511 277.215 123.799C277.628 124.419 276.678 127.225 276.182 126.936C275.975 126.771 275.934 126.936 276.058 127.266C276.182 127.596 275.686 129.247 274.983 130.898C274.239 132.59 273.413 134.653 273.082 135.479L272.545 137.047H274.157H275.727L276.636 134.364C277.132 132.879 277.711 131.682 277.918 131.682C278.166 131.682 278.207 131.93 278.083 132.177C277.918 132.466 278.083 132.383 278.414 131.971C278.91 131.393 279.695 131.269 283.332 131.269C286.349 131.269 287.837 131.434 288.085 131.764C288.291 132.053 288.911 133.374 289.448 134.653L290.358 137.047H292.176H293.995L293.127 134.777C292.672 133.539 292.424 132.301 292.589 132.053C292.755 131.764 292.713 131.682 292.465 131.806C291.928 132.136 288.043 122.396 288.456 121.736C288.622 121.447 288.58 121.365 288.291 121.53C287.754 121.86 286.803 119.095 287.217 118.435C287.382 118.146 287.341 118.063 287.093 118.187C286.845 118.352 286.349 117.65 285.935 116.619C285.274 114.803 285.191 114.762 283.414 114.762C282.009 114.762 281.513 114.927 281.348 115.463ZM284.902 122.19C285.398 123.552 285.729 124.955 285.563 125.285C285.439 125.657 285.481 125.863 285.687 125.739C286.183 125.409 287.134 127.803 286.803 128.587C286.638 129.082 285.811 129.206 283.084 129.206C281.141 129.206 279.488 129.041 279.364 128.834C279.034 128.339 280.356 124.625 280.769 124.872C280.935 124.996 281.017 124.666 280.852 124.171C280.687 123.511 280.769 123.387 281.183 123.634C281.555 123.841 281.637 123.799 281.431 123.469C281.017 122.809 281.513 120.869 282.009 121.158C282.257 121.282 282.298 121.117 282.175 120.746C282.009 120.415 282.133 119.838 282.422 119.508C283.166 118.6 283.828 119.301 284.902 122.19Z" fill="white"/>
<path d="M300.193 125.945V137.047H306.806H313.419V135.809V134.612L308.583 134.488L303.706 134.364L303.582 124.625L303.5 114.844H301.847L300.193 114.803V125.945Z" fill="white"/>
<path d="M319.453 118.014C319.329 119.747 319.246 124.74 319.246 129.156V137.121L325.776 136.997C329.578 136.873 332.265 136.667 332.099 136.461C331.975 136.254 332.306 136.172 332.761 136.296C333.257 136.461 333.587 136.378 333.463 136.213C333.133 135.718 334.827 134.851 335.406 135.223C335.654 135.388 335.736 135.347 335.612 135.099C335.282 134.562 336.728 133.201 337.183 133.613C337.348 133.82 337.389 133.737 337.224 133.448C337.1 133.201 337.389 132.169 337.885 131.178C339.249 128.62 339.208 123.255 337.844 120.325C337.348 119.169 336.852 118.055 336.811 117.766C336.769 117.477 336.563 117.106 336.356 116.941C336.191 116.775 336.15 116.858 336.315 117.106C336.48 117.394 336.439 117.642 336.232 117.642C335.736 117.642 334.827 116.61 335.116 116.363C335.199 116.239 334.951 116.156 334.579 116.115C334.207 116.074 332.843 115.744 331.603 115.372C330.033 114.918 327.884 114.753 324.536 114.795L319.701 114.877L319.453 118.014ZM330.364 118.014C331.397 118.426 332.182 118.963 332.141 119.21C332.058 119.499 332.265 119.664 332.554 119.582C332.802 119.54 333.009 119.747 332.926 120.036C332.885 120.366 333.009 120.49 333.215 120.325C334 119.871 335.034 122.182 335.199 124.988C335.406 127.836 334.579 131.137 333.752 130.972C333.546 130.931 333.38 131.178 333.422 131.55C333.463 132.499 330.818 134.232 329.661 134.026C329.165 133.943 328.834 134.026 328.958 134.232C329.082 134.439 327.884 134.562 326.148 134.48L323.131 134.356L323.007 126.309C322.966 121.893 323.007 118.055 323.09 117.766C323.42 116.982 328.132 117.147 330.364 118.014Z" fill="white"/>
<path d="M345.779 115.009C345.366 115.174 345.242 117.815 345.242 126.152V137.047H347.102H348.962V132.714V128.339L350.987 128.422C352.681 128.504 353.095 128.669 353.467 129.495C353.715 130.072 353.797 130.691 353.673 130.939C353.508 131.187 353.591 131.269 353.797 131.145C354.334 130.815 354.872 131.971 354.458 132.59C354.334 132.837 354.417 132.92 354.624 132.796C354.872 132.631 355.698 133.539 356.442 134.777C357.806 137.047 357.847 137.047 359.831 137.047H361.856L360.947 135.602C360.451 134.818 360.203 133.952 360.368 133.704C360.534 133.374 360.492 133.333 360.203 133.498C359.666 133.828 358.715 132.26 359.087 131.682C359.253 131.434 359.129 131.31 358.798 131.352C358.509 131.434 358.302 131.145 358.302 130.774C358.343 130.361 358.219 130.155 358.013 130.279C357.806 130.403 357.269 129.866 356.814 129.123C356.236 128.133 356.153 127.72 356.525 127.472C356.814 127.307 356.856 127.142 356.608 127.142C356.401 127.101 356.69 126.812 357.351 126.482C357.971 126.152 358.715 125.987 359.005 126.152C359.253 126.317 359.377 126.317 359.211 126.152C359.087 125.987 359.418 125.161 359.955 124.336C360.864 123.057 360.988 122.438 360.864 120.085C360.782 118.558 360.616 117.403 360.492 117.485C360.327 117.568 359.955 117.32 359.666 116.949C358.55 115.628 356.318 115.092 351.235 114.927C348.507 114.844 346.027 114.885 345.779 115.009ZM355.202 117.692C355.657 117.898 355.905 118.269 355.781 118.476C355.657 118.682 355.781 118.971 356.029 119.136C356.36 119.301 356.401 119.26 356.236 118.971C356.07 118.682 356.112 118.476 356.318 118.476C356.525 118.476 356.814 118.806 356.938 119.177C357.021 119.59 357.269 120.292 357.475 120.704C357.682 121.2 357.641 121.406 357.351 121.241C357.104 121.076 356.98 121.323 357.104 121.901C357.186 122.396 356.897 123.387 356.442 124.13C355.533 125.615 354.087 126.028 351.028 125.822L349.168 125.698L349.044 122.025C348.962 120.003 349.003 118.104 349.127 117.774C349.416 117.114 354.004 117.031 355.202 117.692Z" fill="white"/>
<path d="M370.577 115.092L367.974 115.216V126.111V137.047H375.619H383.265V135.809V134.612L377.397 134.488L371.487 134.364V130.857V127.349L376.363 127.225L381.199 127.101V125.904V124.707L376.363 124.584L371.487 124.46L371.363 121.241C371.28 119.095 371.404 118.063 371.652 118.269C371.941 118.393 371.983 118.269 371.859 117.898C371.652 117.32 372.396 117.238 377.851 117.238C381.984 117.238 384.092 117.073 384.092 116.784C384.092 116.577 383.927 116.495 383.679 116.619C383.431 116.784 383.265 116.412 383.265 115.793V114.762L378.223 114.844C375.413 114.927 371.983 115.009 370.577 115.092Z" fill="white"/>
<path d="M473.977 26.6378C468.191 27.5457 465.009 28.5775 459.099 31.5076C453.892 34.1075 449.924 36.9964 445.46 41.4534C431.326 55.6087 425.54 74.7576 429.59 93.9065C434.012 114.582 448.932 130.388 469.431 136.125C474.886 137.652 478.275 137.982 486.459 137.734C493.402 137.569 494.724 137.404 498.981 136.29C511.132 133.071 520.761 126.798 528.738 116.935C533.243 111.363 537.499 102.202 539.111 94.6906C540.351 88.7478 540.64 78.3067 539.731 72.6116C535.722 48.3041 516.174 29.4028 491.955 26.4315C487.326 25.895 478.11 25.9775 473.977 26.6378ZM495.179 80.0813C495.22 95.6398 495.179 108.763 495.055 109.3C494.724 110.662 491.625 112.478 487.905 113.468C484.64 114.335 476.457 114.747 475.382 114.128C475.01 113.881 474.928 108.722 475.052 90.8525L475.217 67.9069L469.968 67.7831L464.678 67.6593V64.6467C464.678 62.0467 464.802 61.5515 465.629 60.8499C468.439 58.3738 474.391 55.7325 480.838 54.0818C485.136 52.9675 492.699 51.6469 494.022 51.7294L495.055 51.812L495.179 80.0813Z" fill="white"/>
<path d="M373.51 33.4344C371.444 33.5995 369.129 33.8884 368.427 34.0534L367.146 34.3423V63.3958V92.4492H372.642H378.098V84.2779C378.098 79.8209 378.18 75.8178 378.304 75.3638C378.511 74.786 379.172 75.4463 381.321 78.459C382.85 80.605 385.826 84.5668 387.934 87.2906L391.777 92.2429L398.721 92.3667L405.705 92.4492L404.961 91.3762C404.589 90.7985 402.316 87.8271 399.96 84.7732C394.546 77.7987 389.876 71.3607 389.876 70.7829C389.876 70.5353 393.431 65.9545 397.729 60.5482C402.068 55.142 405.581 50.6849 405.581 50.6436C405.581 50.6023 402.812 50.6023 399.423 50.6849L393.307 50.8087L385.909 60.0117C381.859 65.0878 378.387 69.1734 378.222 69.0496C378.015 68.9671 377.891 60.7958 377.891 50.9325C377.891 41.0692 377.767 33.063 377.602 33.063C377.395 33.1043 375.577 33.2693 373.51 33.4344Z" fill="white"/>
<path d="M25.4883 35.4173C21.1488 36.9443 18.9171 38.3062 16.8093 40.576C12.0978 45.6933 10.8993 53.1218 13.8336 58.982C16.4373 64.1819 19.661 65.7501 34.0433 68.9278C36.1924 69.4231 39.1681 70.3722 40.6146 71.0738C42.9703 72.1881 43.301 72.5182 44.2515 74.5817C45.4087 77.0991 45.3674 79.3276 44.0862 82.0101C42.5157 85.3942 36.6057 87.3751 29.3319 86.9624C24.9097 86.7561 18.5451 85.4355 15.4868 84.1149C14.4949 83.7022 13.627 83.4133 13.5857 83.4545C13.5443 83.5371 13.379 85.1878 13.2137 87.1688L12.9657 90.8004L14.5362 91.5846C20.1156 94.4321 36.5231 95.7527 43.3423 93.9369C53.3852 91.2131 58.6339 83.8672 57.1874 74.5404C56.3608 69.0929 53.2612 64.8835 48.3844 62.5724C47.1859 62.0359 42.3504 60.6327 37.5976 59.4772C28.3813 57.2074 27.3481 56.836 25.447 54.9376C23.1326 52.5853 23.3805 48.7472 26.0256 45.8171C28.216 43.4235 30.4478 42.7219 35.9031 42.7632C41.2759 42.8045 44.4995 43.5473 49.0043 45.7759L52.1866 47.3441L53.0545 43.3823C53.5505 41.195 54.0051 39.1315 54.1291 38.8014C54.2531 38.3474 53.5918 37.8935 51.8973 37.2332C46.6073 35.1284 43.6729 34.5919 36.1098 34.4269C28.9599 34.2205 28.8359 34.2205 25.4883 35.4173Z" fill="white"/>
<path d="M222.376 63.4076C222.458 79.4613 222.541 92.6261 222.624 92.7086C222.996 93.1213 254.901 92.915 257.422 92.5023C264.035 91.4293 269.242 87.4675 270.854 82.2676C273.541 73.5185 268.829 64.4806 260.729 62.9536L259.075 62.6647L260.563 62.1282C264.2 60.8489 267.383 58.0013 268.829 54.6998C270.028 52.0586 270.11 46.8999 269.036 44.3825C267.176 40.0493 264.242 37.4493 259.034 35.6335L255.769 34.5192L239.031 34.3541L222.293 34.2303L222.376 63.4076ZM253 43.846C255.356 45.0428 256.265 46.3222 256.802 49.0459C257.34 52.0173 256.678 54.9474 255.067 56.8045C252.876 59.3219 251.719 59.5696 242.875 59.7759L234.898 59.941V51.1507V42.4016L243.04 42.6492C250.438 42.8556 251.306 42.9794 253 43.846ZM250.314 68.1123C251.843 68.3599 253.827 68.8964 254.695 69.3503C259.199 71.6201 260.481 76.9438 257.629 81.4422C255.769 84.4136 253.827 84.9501 243.908 85.1151C239.486 85.1977 235.642 85.1977 235.394 85.1151C235.022 84.9913 234.898 82.5564 234.898 76.3248V67.6996H241.222C244.652 67.6996 248.785 67.9059 250.314 68.1123Z" fill="white"/>
<path d="M190.142 50.5707C182.62 52.0976 177.909 56.5134 175.925 64.1069C175.429 65.9228 175.223 68.4814 175.223 73.0623C175.223 80.6558 176.008 83.9574 178.653 87.5065C181.257 90.9731 184.604 92.7477 190.432 93.7381C194.44 94.3984 202.086 93.9858 205.93 92.8715C210.724 91.5096 210.517 91.7572 210.517 87.4652V83.751L209.236 84.4113C204.897 86.6811 195.102 87.4652 191.506 85.8145C190.473 85.3605 189.233 84.5764 188.696 84.0812C187.704 83.132 186.671 80.0781 186.464 77.3956L186.34 75.7448L199.607 75.8686L212.873 75.9924L213.162 71.7004C213.948 59.1959 209.691 52.6754 199.276 50.6119C195.515 49.8278 193.945 49.8278 190.142 50.5707ZM198.036 57.9166C199.772 58.5769 201.797 60.5165 202.5 62.2085C202.83 62.9101 203.202 64.8498 203.326 66.418L203.615 69.3481H194.936H186.299L186.629 66.1704C186.96 63.0339 188.117 60.3102 189.605 59.0721C191.423 57.5451 195.474 57.0086 198.036 57.9166Z" fill="white"/>
<path d="M76.8109 50.7388C73.0087 51.3578 67.3467 52.9261 65.1562 53.9578L62.9658 54.9482V80.3287V105.668H68.5452H74.1246V99.7665V93.9063H81.2331C89.1682 93.9063 91.3999 93.4936 94.8716 91.2651C99.3764 88.3762 100.947 84.2906 101.278 74.3035C101.773 59.364 99.459 53.7102 91.8959 51.3991C89.2922 50.615 80.1172 50.2023 76.8109 50.7388ZM86.3165 59.6117C88.1763 60.3958 89.7468 62.4592 90.0361 64.5639C90.2014 65.5544 90.2427 69.6813 90.1601 73.767C89.9534 82.1859 89.6228 83.3414 86.8538 85.1572C84.9527 86.3953 82.3903 86.808 77.6375 86.6016L74.3312 86.4778L74.2072 73.1479C74.1246 62.7068 74.2072 59.7767 74.6205 59.6529C77.3069 58.6212 83.9195 58.6212 86.3165 59.6117Z" fill="white"/>
<path d="M123.715 50.6651C119.996 50.8714 114.127 51.6556 111.11 52.3159L108.011 52.9762V57.0205C108.011 59.2491 108.176 61.1474 108.383 61.2713C108.589 61.4363 109.292 61.3125 109.953 61.0649C112.887 59.9506 119.211 58.9602 123.798 58.8776C128.51 58.8364 128.675 58.8776 129.708 59.9094C130.493 60.6935 130.824 61.5189 130.989 63.2522L131.237 65.522L129.419 66.0172C128.427 66.2648 125.823 66.76 123.633 67.0902C119.252 67.7918 114.871 69.0298 112.474 70.2266C103.919 74.5599 102.431 86.5692 109.829 91.5215C112.639 93.4199 114.541 93.8326 120.616 93.8738C125.162 93.9151 138.966 92.8421 141.693 92.2643C142.52 92.0993 142.52 91.8104 142.396 76.7059C142.355 68.1219 142.107 60.3633 141.859 59.1253C141.115 55.411 138.057 52.3159 134.006 51.2016C132.518 50.7889 126.98 50.5 123.715 50.6651ZM131.113 78.1916C131.196 83.2677 130.659 85.0423 128.799 85.8264C126.815 86.6518 123.715 86.9406 121.029 86.6105C119.045 86.3629 118.343 86.0327 117.434 85.0423C114.83 82.1947 115.946 77.944 119.789 76.0043C121.649 75.0551 126.361 74.0647 129.749 73.9409L131.072 73.8996L131.113 78.1916Z" fill="white"/>
<path d="M162.776 50.7262C158.56 51.015 154.882 51.923 152.154 53.2848L150.584 54.069V73.2591V92.4492H156.37H162.156V75.4876V58.5673L167.735 58.6911L173.315 58.8149V54.7705V50.7674H171.579C170.587 50.7674 169.141 50.6849 168.355 50.6023C167.57 50.5198 165.049 50.6023 162.776 50.7262Z" fill="white"/>
<path d="M292.136 50.7761C290.318 50.9825 286.722 51.5602 284.118 52.0555L279.407 52.9634L279.696 56.9252C279.862 59.0712 280.027 60.9283 280.151 61.0109C280.233 61.0934 281.969 60.8045 283.953 60.3093C288.871 59.1538 295.608 58.4522 298.418 58.8236C301.642 59.2363 302.675 60.3093 302.675 63.2807C302.675 64.9727 302.51 65.5917 302.014 65.7981C301.683 65.9219 298.955 66.4171 296.021 66.8711C287.301 68.1917 283.54 69.5948 280.151 72.69C277.382 75.2487 276.225 77.9312 276.225 81.6867C276.225 86.2676 276.762 87.7945 279.242 90.1881C282.259 93.1182 284.862 93.9023 291.31 93.9023C295.897 93.9023 311.437 92.7055 313.131 92.2103C313.792 92.004 313.834 90.931 313.834 77.4772C313.834 62.6204 313.544 58.6998 312.222 56.1411C311.23 54.2015 308.502 52.1793 305.857 51.3952C303.171 50.6111 296.517 50.2809 292.136 50.7761ZM302.675 79.0042C302.675 83.9565 302.634 84.1628 301.642 84.9469C300.071 86.185 297.261 86.8041 293.624 86.639C290.648 86.4739 290.194 86.3501 289.078 85.2771C287.755 83.9978 287.135 81.728 287.59 79.747C288.293 76.4042 293.417 74.217 301.146 73.9281L302.675 73.8868V79.0042Z" fill="white"/>
<path d="M336.149 50.7674C332.14 51.2627 328.048 52.3357 324.907 53.7388L322.097 55.0181V73.094C322.097 82.9986 321.973 91.4175 321.849 91.7889C321.642 92.3667 322.262 92.4492 327.428 92.4492H333.256V76.1479V59.8879L335.033 59.3927C335.983 59.1451 338.339 58.8974 340.282 58.8974C344.166 58.8562 345.737 59.3927 347.266 61.3323C348.093 62.4053 348.134 62.8593 348.134 77.4273V92.4492H353.92H359.706V78.0876C359.706 70.2052 359.499 62.5704 359.293 61.126C358.218 54.6467 354.581 51.5928 346.853 50.7674C342.472 50.3135 340.075 50.3135 336.149 50.7674Z" fill="white"/>
</svg>
