<svg width="24" height="24" viewBox="0 0 24 24" fill="none" xmlns="http://www.w3.org/2000/svg">
<path d="M11.2578 16.4615C11.5706 16.4615 11.8744 16.4176 12.1693 16.3298C12.4641 16.2419 12.7397 16.1166 12.9962 15.9538L15.5807 18.5385L16.6345 17.4845L14.05 14.9C14.2257 14.65 14.3542 14.3759 14.4355 14.0778C14.517 13.7797 14.5577 13.4743 14.5577 13.1615C14.5577 12.2653 14.2417 11.508 13.6095 10.8895C12.9775 10.2708 12.2102 9.9615 11.3078 9.9615C10.4051 9.9615 9.63775 10.2775 9.00575 10.9095C8.37375 11.5417 8.05775 12.309 8.05775 13.2115C8.05775 14.114 8.367 14.8813 8.9855 15.5135C9.60417 16.1455 10.3616 16.4615 11.2578 16.4615ZM11.3078 14.9615C10.8269 14.9615 10.415 14.79 10.072 14.447C9.72917 14.1042 9.55775 13.6923 9.55775 13.2115C9.55775 12.7307 9.72917 12.3188 10.072 11.976C10.415 11.633 10.8269 11.4615 11.3078 11.4615C11.7884 11.4615 12.2003 11.633 12.5433 11.976C12.8863 12.3188 13.0577 12.7307 13.0577 13.2115C13.0577 13.6923 12.8863 14.1042 12.5433 14.447C12.2003 14.79 11.7884 14.9615 11.3078 14.9615ZM6.30775 21.5C5.80258 21.5 5.375 21.325 5.025 20.975C4.675 20.625 4.5 20.1974 4.5 19.6923V4.30775C4.5 3.80258 4.675 3.375 5.025 3.025C5.375 2.675 5.80258 2.5 6.30775 2.5H14.25L19.5 7.75V19.6923C19.5 20.1974 19.325 20.625 18.975 20.975C18.625 21.325 18.1974 21.5 17.6923 21.5H6.30775ZM13.5 8.5V4H6.30775C6.23075 4 6.16025 4.03208 6.09625 4.09625C6.03208 4.16025 6 4.23075 6 4.30775V19.6923C6 19.7693 6.03208 19.8398 6.09625 19.9038C6.16025 19.9679 6.23075 20 6.30775 20H17.6923C17.7692 20 17.8398 19.9679 17.9038 19.9038C17.9679 19.8398 18 19.7693 18 19.6923V8.5H13.5Z" fill="#006555"/>
</svg>
