<svg width="18" height="18" viewBox="0 0 18 18" fill="none" xmlns="http://www.w3.org/2000/svg">
<path d="M8.53834 0.629496C8.70914 0.218849 9.29086 0.218849 9.46166 0.629495L11.5278 5.59697C11.5998 5.77009 11.7626 5.88838 11.9495 5.90336L17.3123 6.33329C17.7556 6.36884 17.9354 6.92209 17.5976 7.21142L13.5117 10.7114C13.3693 10.8334 13.3071 11.0248 13.3506 11.2072L14.5989 16.4404C14.7021 16.873 14.2315 17.2149 13.8519 16.9831L9.26063 14.1787C9.10062 14.081 8.89938 14.081 8.73937 14.1787L4.14806 16.9831C3.76851 17.2149 3.29788 16.873 3.40108 16.4404L4.64939 11.2072C4.69289 11.0248 4.6307 10.8334 4.48831 10.7114L0.402413 7.21142C0.0646446 6.92209 0.244408 6.36884 0.687735 6.33329L6.05054 5.90336C6.23744 5.88838 6.40024 5.77009 6.47225 5.59697L8.53834 0.629496Z" fill="#FEC84B"/>
</svg>
