<svg width="24" height="24" viewBox="0 0 24 24" fill="none" xmlns="http://www.w3.org/2000/svg">
<rect width="24" height="24" rx="12" fill="#D1FADF"/>
<path d="M6.35 15.5H5.13V10.56H6.25L6.35 11.14C6.6 10.73 7.1 10.41 7.81 10.41C8.56 10.41 9.08 10.78 9.34 11.35C9.59 10.78 10.17 10.41 10.92 10.41C12.12 10.41 12.78 11.13 12.78 12.27V15.5H11.57V12.59C11.57 11.88 11.19 11.51 10.61 11.51C10.02 11.51 9.57 11.89 9.57 12.7V15.5H8.35V12.58C8.35 11.89 7.98 11.52 7.4 11.52C6.82 11.52 6.35 11.9 6.35 12.7V15.5ZM18.8777 15.49L13.8077 15.5V14.54L16.1977 12.52C17.1877 11.68 17.5177 11.2 17.5177 10.5C17.5177 9.67 17.0677 9.2 16.2977 9.2C15.4977 9.2 14.9977 9.76 14.9877 10.7H13.7177C13.7277 9.1 14.7477 8.06 16.2977 8.06C17.8577 8.06 18.8277 8.95 18.8277 10.43C18.8277 11.45 18.2677 12.22 17.1577 13.17L15.8377 14.3H18.8777V15.49Z" fill="#12B76A"/>
</svg>
