<svg width="88" height="88" viewBox="0 0 88 88" fill="none" xmlns="http://www.w3.org/2000/svg">
<rect x="4" y="4" width="80" height="80" rx="40" fill="#EFF1F5"/>
<rect x="4" y="4" width="80" height="80" rx="40" stroke="#F9F9FB" stroke-width="8"/>
<path d="M59.2595 29.1072C59.1736 29.0404 59.059 29.0165 58.9491 29.0451L41.244 33.7592C41.0864 33.8021 40.9766 33.9406 40.9766 34.103V58.9675C42.0825 58.9675 45.2927 58.9675 45.1941 58.9675V46.9126H49.8317V58.8425H50.5481V46.9126H55.1857V58.9675C55.267 58.9675 59.2765 58.9675 59.0446 58.9675C59.2404 58.9675 59.4028 58.8051 59.4028 58.6093V29.3938C59.4028 29.2839 59.3503 29.1789 59.2595 29.1072ZM44.2864 35.2732L48.2267 34.2224V36.2809H44.2864V35.2732ZM44.2912 42.8624V38.9269H48.2267V42.8624H44.2912ZM56.0882 42.8624H52.1527V38.9269H56.0882V42.8624ZM56.093 36.2809H52.1527V33.1765L55.2619 32.3454H56.093V36.2809Z" fill="#404968"/>
<path d="M28.5967 40.5369V58.6098C28.5967 58.8056 28.7591 58.968 28.9549 58.968C29.1413 58.968 31.5264 58.968 31.4766 58.968V54.4639C31.4766 52.958 32.6112 51.714 34.0703 51.5364V58.8901H34.7867V51.5361C36.2314 51.7086 37.38 52.9317 37.38 54.4639V58.968C37.4431 58.968 40.4338 58.968 40.26 58.968V40.1787H28.9549C28.7591 40.1787 28.5967 40.3411 28.5967 40.5369ZM35.6415 42.3662H38.0773V44.7972H35.6415V42.3662ZM35.6415 46.4354H38.0773V48.8712H35.6415V46.4354ZM30.7794 42.3662H33.2152V44.7972H30.7794V42.3662ZM30.7794 46.4354H33.2152V48.8712H30.7794V46.4354Z" fill="#404968"/>
</svg>
