<svg width="89" height="88" viewBox="0 0 89 88" fill="none" xmlns="http://www.w3.org/2000/svg">
<rect x="4.5" y="4" width="80" height="80" rx="40" fill="#EFF1F5"/>
<rect x="4.5" y="4" width="80" height="80" rx="40" stroke="#F9F9FB" stroke-width="8"/>
<path d="M43.3017 41.336L47.1426 45.1758L58.874 33.441L55.0332 29.6013L43.3017 41.336Z" fill="#006555"/>
<path d="M40.6738 47.8046L42.5925 42.0459L46.4329 45.8853L40.6738 47.8046Z" fill="#006555"/>
<path d="M37.1282 58.3996L31.123 49.6501L37.4123 43.6015C37.6162 43.406 37.9378 43.4127 38.1314 43.6152C38.3259 43.8178 38.3189 44.1397 38.1173 44.334L32.4498 49.7852L37.476 57.1103L44.6766 53.6952L40.7301 48.2828C40.5643 48.0552 40.6152 47.7378 40.8418 47.5727L41.2229 47.2546L41.5515 47.684L46.2222 54.0885L37.1282 58.3996Z" fill="#006555"/>
</svg>
