<svg width="113" height="15" viewBox="0 0 113 15" fill="none" xmlns="http://www.w3.org/2000/svg">
<path d="M112.707 8.20711C113.098 7.81658 113.098 7.18342 112.707 6.79289L106.343 0.428932C105.953 0.0384078 105.319 0.0384078 104.929 0.428932C104.538 0.819457 104.538 1.45262 104.929 1.84315L110.586 7.5L104.929 13.1569C104.538 13.5474 104.538 14.1805 104.929 14.5711C105.319 14.9616 105.953 14.9616 106.343 14.5711L112.707 8.20711ZM0 8.5H2.54545V6.5H0V8.5ZM7.63636 8.5H12.7273V6.5H7.63636V8.5ZM17.8182 8.5H22.9091V6.5H17.8182V8.5ZM28 8.5H33.0909V6.5H28V8.5ZM38.1818 8.5H43.2727V6.5H38.1818V8.5ZM48.3636 8.5H53.4545V6.5H48.3636V8.5ZM58.5454 8.5H63.6363V6.5H58.5454V8.5ZM68.7273 8.5H73.8182V6.5H68.7273V8.5ZM78.9091 8.5H84V6.5H78.9091V8.5ZM89.0909 8.5H94.1818V6.5H89.0909V8.5ZM99.2727 8.5H104.364V6.5H99.2727V8.5ZM109.455 8.5H112V6.5H109.455V8.5Z" fill="#667085"/>
</svg>
