<svg width="72" height="32" viewBox="0 0 72 32" fill="none" xmlns="http://www.w3.org/2000/svg">
<path d="M27.2555 10.3883V11.055C27.2555 11.239 27.1062 11.3883 26.9222 11.3883H23.2555C23.0715 11.3883 22.9222 11.239 22.9222 11.055V10.3883C22.9222 10.0207 23.2212 9.72168 23.5889 9.72168H26.5889C26.9565 9.72168 27.2555 10.0207 27.2555 10.3883ZM23.4715 11.7217L26.9222 16.279V11.7217H23.4715ZM30.3332 22.3337H28.7962C28.6919 22.3337 28.5932 22.2847 28.5302 22.2013L21.5002 12.887L14.4702 22.2013C14.4072 22.2847 14.3085 22.3337 14.2042 22.3337H1.66654C1.54021 22.3337 1.42421 22.262 1.36787 22.1487C1.31154 22.0353 1.32421 21.9 1.40054 21.799L10.2342 10.1323C10.2972 10.049 10.3955 10.0003 10.4999 10.0003H21.4999C21.6115 9.99801 21.6962 10.0603 21.7655 10.1323L30.5989 21.799C30.7672 22.0067 30.5995 22.342 30.3332 22.3337ZM29.6629 21.667L21.4999 10.886L13.3369 21.667H14.0375L21.2335 12.1327C21.3595 11.9657 21.6399 11.9657 21.7659 12.1327L28.9619 21.667H29.6629ZM23.4332 19.3337C23.3379 22.4237 19.6625 22.424 19.5665 19.3337C19.5665 18.047 20.4339 17.0003 21.4999 17.0003C22.5659 17.0003 23.4332 18.047 23.4332 19.3337ZM21.8332 17.733V19.0003H22.7409C22.6455 18.3847 22.2895 17.898 21.8332 17.733ZM20.2589 19.0003H21.1665V17.733C20.7102 17.898 20.3542 18.3847 20.2589 19.0003ZM21.1665 20.9343V19.667H20.2589C20.3542 20.2827 20.7102 20.7693 21.1665 20.9343ZM22.7409 19.667H21.8332V20.9343C22.2895 20.7693 22.6455 20.2827 22.7409 19.667Z" fill="#006555"/>
<path d="M44.6364 12.1307V10.3636H53.9205V12.1307H50.3239V22H48.233V12.1307H44.6364ZM56.9432 22.1761C56.3902 22.1761 55.892 22.0777 55.4489 21.8807C55.0095 21.6799 54.661 21.3845 54.4034 20.9943C54.1496 20.6042 54.0227 20.1231 54.0227 19.5511C54.0227 19.0587 54.1136 18.6515 54.2955 18.3295C54.4773 18.0076 54.7254 17.75 55.0398 17.5568C55.3542 17.3636 55.7083 17.2178 56.1023 17.1193C56.5 17.017 56.911 16.9432 57.3352 16.8977C57.8466 16.8447 58.2614 16.7973 58.5795 16.7557C58.8977 16.7102 59.1288 16.642 59.2727 16.5511C59.4205 16.4564 59.4943 16.3106 59.4943 16.1136V16.0795C59.4943 15.6515 59.3674 15.3201 59.1136 15.0852C58.8598 14.8504 58.4943 14.733 58.017 14.733C57.5133 14.733 57.1136 14.8428 56.8182 15.0625C56.5265 15.2822 56.3295 15.5417 56.2273 15.8409L54.3068 15.5682C54.4583 15.0379 54.7083 14.5947 55.0568 14.2386C55.4053 13.8788 55.8314 13.6098 56.3352 13.4318C56.839 13.25 57.3958 13.1591 58.0057 13.1591C58.4261 13.1591 58.8447 13.2083 59.2614 13.3068C59.678 13.4053 60.0587 13.5682 60.4034 13.7955C60.7481 14.0189 61.0246 14.3239 61.233 14.7102C61.4451 15.0966 61.5511 15.5795 61.5511 16.1591V22H59.5739V20.8011H59.5057C59.3807 21.0436 59.2045 21.2708 58.9773 21.483C58.7538 21.6913 58.4716 21.8598 58.1307 21.9886C57.7936 22.1136 57.3977 22.1761 56.9432 22.1761ZM57.4773 20.6648C57.8902 20.6648 58.2481 20.5833 58.5511 20.4205C58.8542 20.2538 59.0871 20.0341 59.25 19.7614C59.4167 19.4886 59.5 19.1913 59.5 18.8693V17.8409C59.4356 17.8939 59.3258 17.9432 59.1705 17.9886C59.0189 18.0341 58.8485 18.0739 58.6591 18.108C58.4697 18.142 58.2822 18.1723 58.0966 18.1989C57.911 18.2254 57.75 18.2481 57.6136 18.267C57.3068 18.3087 57.0322 18.3769 56.7898 18.4716C56.5473 18.5663 56.3561 18.6989 56.2159 18.8693C56.0758 19.036 56.0057 19.2519 56.0057 19.517C56.0057 19.8958 56.1439 20.1818 56.4205 20.375C56.697 20.5682 57.0492 20.6648 57.4773 20.6648ZM65.4943 19.2614L65.4886 16.7784H65.8182L68.9545 13.2727H71.358L67.5 17.5682H67.0739L65.4943 19.2614ZM63.6193 22V10.3636H65.6761V22H63.6193ZM69.0966 22L66.2557 18.0284L67.642 16.5795L71.5568 22H69.0966Z" fill="#101828"/>
</svg>
