<svg width="32" height="32" viewBox="0 0 32 32" fill="none" xmlns="http://www.w3.org/2000/svg">
<path d="M16 10.6665C16 10.6665 16 10.6665 17.0133 9.33317C18.1867 7.7865 19.92 6.6665 22 6.6665C25.32 6.6665 28 9.3465 28 12.6665C28 13.9065 27.6267 15.0532 26.9867 15.9998C25.9067 17.6132 16 27.9998 16 27.9998C16 27.9998 6.09333 17.6132 5.01333 15.9998C4.37333 15.0532 4 13.9065 4 12.6665C4 9.3465 6.68 6.6665 10 6.6665C12.08 6.6665 13.8267 7.7865 14.9867 9.33317C16 10.6665 16 10.6665 16 10.6665Z" fill="white"/>
<path d="M16 10.6665C16 10.6665 16 10.6665 14.9867 9.33317C13.8133 7.7865 12.08 6.6665 10 6.6665C6.68 6.6665 4 9.3465 4 12.6665C4 13.9065 4.37333 15.0532 5.01333 15.9998C6.09333 17.6132 16 27.9998 16 27.9998M16 10.6665C16 10.6665 16 10.6665 17.0133 9.33317C18.1867 7.7865 19.92 6.6665 22 6.6665C25.32 6.6665 28 9.3465 28 12.6665C28 13.9065 27.6267 15.0532 26.9867 15.9998C25.9067 17.6132 16 27.9998 16 27.9998" stroke="#006555" stroke-width="2" stroke-linecap="round" stroke-linejoin="round"/>
</svg>
