<svg width="32" height="32" viewBox="0 0 32 32" fill="none" xmlns="http://www.w3.org/2000/svg">
<path d="M21.414 11.9013C21.2983 11.6017 21.1211 11.3296 20.8939 11.1026C20.6666 10.8756 20.3943 10.6987 20.0946 10.5833C19.6818 10.4304 19.2458 10.3496 18.8057 10.3444C18.0737 10.3111 17.8543 10.3027 16.0001 10.3027C14.1459 10.3027 13.9265 10.3111 13.1946 10.3444C12.7539 10.3494 12.3175 10.4303 11.9043 10.5833C11.6046 10.699 11.3325 10.8762 11.1055 11.1034C10.8785 11.3307 10.7016 11.603 10.5862 11.9027C10.4333 12.3155 10.3525 12.7515 10.3473 13.1916C10.314 13.9236 10.3057 14.143 10.3057 15.9972C10.3057 17.8513 10.314 18.0708 10.3473 18.8027C10.3524 19.2433 10.4332 19.6798 10.5862 20.093C10.7019 20.3927 10.8791 20.6648 11.1064 20.8918C11.3336 21.1188 11.6059 21.2957 11.9057 21.4111C12.3184 21.5639 12.7544 21.6448 13.1946 21.65C13.9265 21.6833 14.1459 21.6916 16.0001 21.6916C17.8543 21.6916 18.0737 21.6833 18.8057 21.65C19.2463 21.6449 19.6827 21.5641 20.0959 21.4111C20.3956 21.2954 20.6677 21.1182 20.8947 20.8909C21.1217 20.6637 21.2986 20.3914 21.414 20.0916C21.5669 19.6789 21.6477 19.2429 21.6529 18.8027C21.6862 18.0708 21.6946 17.8513 21.6946 15.9972C21.6946 14.143 21.6862 13.9236 21.6529 13.1916C21.6478 12.751 21.567 12.3146 21.414 11.9013ZM16.0001 19.5638C15.2947 19.5638 14.6051 19.3547 14.0186 18.9628C13.432 18.5708 12.9749 18.0138 12.7049 17.3621C12.435 16.7104 12.3644 15.9932 12.502 15.3014C12.6396 14.6095 12.9793 13.974 13.4781 13.4752C13.9769 12.9764 14.6124 12.6367 15.3043 12.499C15.9962 12.3614 16.7133 12.4321 17.365 12.702C18.0167 12.972 18.5738 13.4291 18.9657 14.0156C19.3576 14.6022 19.5668 15.2918 19.5668 15.9972C19.5668 16.9431 19.191 17.8503 18.5221 18.5192C17.8532 19.1881 16.946 19.5638 16.0001 19.5638ZM19.7071 13.1236C19.5422 13.1236 19.3811 13.0747 19.2441 12.9831C19.107 12.8916 19.0002 12.7614 18.9372 12.6091C18.8741 12.4569 18.8576 12.2893 18.8897 12.1277C18.9219 11.966 19.0013 11.8175 19.1178 11.701C19.2343 11.5844 19.3828 11.5051 19.5445 11.4729C19.7061 11.4408 19.8737 11.4573 20.026 11.5203C20.1782 11.5834 20.3084 11.6902 20.3999 11.8273C20.4915 11.9643 20.5404 12.1254 20.5404 12.2902C20.5404 12.5112 20.4526 12.7232 20.2963 12.8795C20.14 13.0358 19.9281 13.1236 19.7071 13.1236Z" fill="#A3FAEC"/>
<path d="M16.0008 18.3141C17.2795 18.3141 18.3161 17.2776 18.3161 15.9989C18.3161 14.7202 17.2795 13.6836 16.0008 13.6836C14.7221 13.6836 13.6855 14.7202 13.6855 15.9989C13.6855 17.2776 14.7221 18.3141 16.0008 18.3141Z" fill="#A3FAEC"/>
<path d="M16.0003 2.66406C13.3632 2.66406 10.7854 3.44605 8.59273 4.91113C6.40007 6.37622 4.69111 8.4586 3.68194 10.895C2.67277 13.3313 2.40872 16.0122 2.92319 18.5986C3.43766 21.185 4.70754 23.5608 6.57224 25.4255C8.43694 27.2902 10.8127 28.5601 13.3991 29.0745C15.9855 29.589 18.6664 29.325 21.1028 28.3158C23.5391 27.3066 25.6215 25.5977 27.0866 23.405C28.5517 21.2123 29.3337 18.6345 29.3337 15.9974C29.3337 12.4612 27.9289 9.06979 25.4284 6.56931C22.9279 4.06882 19.5366 2.66406 16.0003 2.66406ZM22.9031 18.8613C22.8912 19.4371 22.7818 20.0068 22.5795 20.546C22.4011 21.0072 22.1284 21.4261 21.7787 21.7758C21.429 22.1254 21.0102 22.3982 20.5489 22.5766C20.0097 22.7788 19.44 22.8883 18.8642 22.9002C18.1226 22.9335 17.8864 22.9418 16.0003 22.9418C14.1142 22.9418 13.8781 22.9335 13.1364 22.9002C12.5606 22.8883 11.991 22.7788 11.4517 22.5766C10.9905 22.3982 10.5716 22.1254 10.222 21.7758C9.87229 21.4261 9.59953 21.0072 9.42116 20.546C9.21889 20.0068 9.10947 19.4371 9.09755 18.8613C9.06422 18.1196 9.05589 17.8835 9.05589 15.9974C9.05589 14.1113 9.06422 13.8752 9.09755 13.1335C9.10947 12.5577 9.21889 11.988 9.42116 11.4488C9.59953 10.9876 9.87229 10.5687 10.222 10.219C10.5716 9.86936 10.9905 9.5966 11.4517 9.41823C11.991 9.21595 12.5606 9.10653 13.1364 9.09462C13.8781 9.06129 14.1142 9.05295 16.0003 9.05295C17.8864 9.05295 18.1226 9.06129 18.8642 9.09462C19.44 9.10653 20.0097 9.21595 20.5489 9.41823C21.0102 9.5966 21.429 9.86936 21.7787 10.219C22.1284 10.5687 22.4011 10.9876 22.5795 11.4488C22.7818 11.988 22.8912 12.5577 22.9031 13.1335C22.9364 13.8752 22.9448 14.1113 22.9448 15.9974C22.9448 17.8835 22.9364 18.1196 22.9031 18.8613Z" fill="#A3FAEC"/>
</svg>
