<svg width="32" height="32" viewBox="0 0 32 32" fill="none" xmlns="http://www.w3.org/2000/svg">
<path d="M17.3287 14.4588H17.3491V14.4267L17.3287 14.4588ZM17.3287 14.4588H17.3491V14.4267L17.3287 14.4588ZM17.3287 14.4588H17.3491V14.4267L17.3287 14.4588ZM17.3287 14.4588H17.3491V14.4267L17.3287 14.4588ZM17.3287 14.4588H17.3491V14.4267L17.3287 14.4588ZM17.3287 14.4588H17.3491V14.4267L17.3287 14.4588ZM17.3287 14.4588H17.3491V14.4267L17.3287 14.4588ZM17.3287 14.4588H17.3491V14.4267L17.3287 14.4588ZM17.3287 14.4588H17.3491V14.4267L17.3287 14.4588ZM17.3287 14.4588H17.3491V14.4267L17.3287 14.4588ZM17.3287 14.4588H17.3491V14.4267L17.3287 14.4588ZM17.3287 14.4588H17.3491V14.4267L17.3287 14.4588ZM17.3287 14.4588H17.3491V14.4267L17.3287 14.4588ZM17.3287 14.4588H17.3491V14.4267L17.3287 14.4588ZM17.3287 14.4588H17.3491V14.4267L17.3287 14.4588ZM17.3287 14.4588H17.3491V14.4267L17.3287 14.4588ZM16.0003 2.66406C13.3632 2.66406 10.7854 3.44605 8.59273 4.91113C6.40007 6.37622 4.69111 8.4586 3.68194 10.8949C2.67277 13.3313 2.40872 16.0122 2.92319 18.5986C3.43766 21.185 4.70754 23.5608 6.57224 25.4255C8.43694 27.2902 10.8127 28.5601 13.3991 29.0745C15.9855 29.589 18.6664 29.325 21.1028 28.3158C23.5391 27.3066 25.6215 25.5976 27.0866 23.405C28.5517 21.2123 29.3337 18.6345 29.3337 15.9974C29.3298 12.4624 27.9238 9.07322 25.4241 6.57357C22.9245 4.07392 19.5354 2.66793 16.0003 2.66406ZM12.6663 21.9999C12.6655 22.059 12.6415 22.1154 12.5994 22.1569C12.5573 22.1985 12.5006 22.2218 12.4415 22.2218H9.87231C9.81346 22.2218 9.75703 22.1984 9.71542 22.1568C9.6738 22.1152 9.65043 22.0587 9.65043 21.9999V13.3669C9.65004 13.3375 9.6555 13.3084 9.66647 13.2811C9.67745 13.2539 9.69373 13.2291 9.71437 13.2081C9.73502 13.1872 9.75961 13.1706 9.78672 13.1593C9.81383 13.148 9.84292 13.1421 9.87231 13.1421H12.4415C12.471 13.1421 12.5002 13.1479 12.5275 13.1592C12.5548 13.1705 12.5795 13.1871 12.6004 13.208C12.6213 13.2288 12.6379 13.2536 12.6492 13.2809C12.6605 13.3082 12.6663 13.3374 12.6663 13.3669V21.9999ZM11.0664 11.9889C10.7471 11.9889 10.4349 11.8942 10.1694 11.7168C9.90393 11.5394 9.69699 11.2873 9.5748 10.9923C9.4526 10.6973 9.42063 10.3727 9.48292 10.0595C9.54522 9.7463 9.69898 9.45863 9.92477 9.23284C10.1506 9.00705 10.4382 8.85328 10.7514 8.79099C11.0646 8.72869 11.3892 8.76066 11.6842 8.88286C11.9792 9.00506 12.2314 9.21199 12.4088 9.47749C12.5862 9.74299 12.6809 10.0551 12.6809 10.3744C12.6812 10.5866 12.6398 10.7967 12.5588 10.9927C12.4778 11.1888 12.3588 11.3669 12.2089 11.5169C12.0589 11.6669 11.8807 11.7858 11.6847 11.8668C11.4886 11.9478 11.2785 11.9893 11.0664 11.9889ZM23.5385 21.9999C23.5377 22.059 23.5137 22.1154 23.4716 22.1569C23.4295 22.1985 23.3728 22.2218 23.3137 22.2218H20.7445C20.7154 22.2218 20.6865 22.216 20.6596 22.2049C20.6327 22.1937 20.6082 22.1774 20.5876 22.1568C20.567 22.1362 20.5507 22.1117 20.5395 22.0848C20.5284 22.0579 20.5226 22.029 20.5226 21.9999V17.3608C20.5226 16.1404 20.0876 15.3172 18.9957 15.3172C18.6555 15.3191 18.3242 15.4261 18.0472 15.6237C17.7701 15.8213 17.561 16.0996 17.4484 16.4207C17.3714 16.658 17.3378 16.9072 17.3491 17.1564V21.9999C17.3491 22.0595 17.3255 22.1167 17.2833 22.1588C17.2411 22.201 17.184 22.2247 17.1243 22.2247H14.5552C14.5258 22.2247 14.4967 22.2188 14.4696 22.2075C14.4425 22.1962 14.4179 22.1796 14.3972 22.1587C14.3766 22.1377 14.3603 22.1129 14.3493 22.0857C14.3384 22.0584 14.3329 22.0293 14.3333 21.9999C14.3333 20.7678 14.3654 14.7858 14.3333 13.3786C14.3329 13.3492 14.3384 13.3201 14.3493 13.2928C14.3603 13.2655 14.3766 13.2407 14.3972 13.2198C14.4179 13.1989 14.4425 13.1823 14.4696 13.171C14.4967 13.1596 14.5258 13.1538 14.5552 13.1538H17.1185C17.1481 13.1534 17.1775 13.159 17.205 13.1701C17.2324 13.1813 17.2574 13.1978 17.2783 13.2188C17.2993 13.2397 17.3158 13.2647 17.327 13.2921C17.3381 13.3196 17.3437 13.349 17.3433 13.3786V14.4384C17.6164 13.9643 18.0141 13.5741 18.4932 13.3101C18.9724 13.0461 19.5147 12.9183 20.0613 12.9407C22.0437 12.9407 23.5326 14.2369 23.5326 17.028L23.5385 21.9999ZM17.3491 14.4676V14.4355L17.3287 14.4676H17.3491ZM17.3287 14.4676H17.3491V14.4355L17.3287 14.4676ZM17.3287 14.4676H17.3491V14.4355L17.3287 14.4676ZM17.3287 14.4676H17.3491V14.4355L17.3287 14.4676ZM17.3287 14.4676H17.3491V14.4355L17.3287 14.4676ZM17.3287 14.4676H17.3491V14.4355L17.3287 14.4676ZM17.3287 14.4676H17.3491V14.4355L17.3287 14.4676ZM17.3287 14.4676H17.3491V14.4355L17.3287 14.4676ZM17.3287 14.4676H17.3491V14.4355L17.3287 14.4676ZM17.3287 14.4676H17.3491V14.4355L17.3287 14.4676ZM17.3287 14.4676H17.3491V14.4355L17.3287 14.4676ZM17.3287 14.4676H17.3491V14.4355L17.3287 14.4676ZM17.3287 14.4676H17.3491V14.4355L17.3287 14.4676ZM17.3287 14.4676H17.3491V14.4355L17.3287 14.4676ZM17.3287 14.4676H17.3491V14.4355L17.3287 14.4676Z" fill="#A3FAEC"/>
</svg>
