<svg width="405" height="141" viewBox="0 0 405 141" fill="none" xmlns="http://www.w3.org/2000/svg">
<path d="M393.096 139.823C389.489 139.823 386.708 138.948 384.754 137.198C382.831 135.419 381.869 132.87 381.869 129.551V100.817H374.925V90.9527H381.869V81.3596L395.306 78.1016V90.9527H404.324V100.817H395.306V127.424C395.306 128.42 395.441 129.099 395.711 129.461C396.012 129.793 396.628 129.958 397.56 129.958H405V139.823H393.096Z" fill="#A3FAEC"/>
<path d="M295.656 139.822V90.9519H308.642V98.8255C310.085 95.9898 312.054 93.7725 314.549 92.1737C317.074 90.5748 320.02 89.7754 323.387 89.7754C326.753 89.7754 329.609 90.6201 331.954 92.3094C334.299 93.9686 336.042 96.4121 337.184 99.64C338.988 96.2613 341.257 93.7725 343.993 92.1737C346.758 90.5748 349.704 89.7754 352.831 89.7754C357.761 89.7754 361.533 91.5251 364.148 95.0244C366.794 98.4936 368.116 103.486 368.116 110.002V139.822H354.679V109.867C354.679 108.026 354.484 106.367 354.093 104.889C353.732 103.381 353.086 102.189 352.154 101.314C351.222 100.409 349.885 99.9567 348.141 99.9567C346.067 99.9567 344.324 100.635 342.911 101.993C341.498 103.35 340.416 105.221 339.664 107.604C338.943 109.957 338.582 112.672 338.582 115.749V139.822H325.145V109.867C325.145 108.026 324.965 106.352 324.604 104.844C324.243 103.335 323.582 102.144 322.62 101.269C321.688 100.394 320.366 99.9567 318.652 99.9567C316.608 99.9567 314.865 100.635 313.422 101.993C312.009 103.32 310.927 105.176 310.175 107.559C309.454 109.912 309.093 112.657 309.093 115.794V139.822H295.656Z" fill="#A3FAEC"/>
<path d="M261.478 140.999C256.578 140.999 252.249 139.913 248.492 137.741C244.764 135.569 241.848 132.567 239.744 128.736C237.64 124.875 236.588 120.425 236.588 115.387C236.588 110.319 237.64 105.869 239.744 102.038C241.848 98.1769 244.764 95.1753 248.492 93.0334C252.249 90.8614 256.578 89.7754 261.478 89.7754C266.408 89.7754 270.736 90.8614 274.464 93.0334C278.221 95.1753 281.152 98.1769 283.256 102.038C285.36 105.869 286.413 110.319 286.413 115.387C286.413 120.455 285.36 124.92 283.256 128.781C281.152 132.612 278.221 135.614 274.464 137.786C270.706 139.928 266.377 140.999 261.478 140.999ZM261.523 131.089C264.859 131.089 267.49 129.686 269.414 126.881C271.367 124.045 272.344 120.214 272.344 115.387C272.344 110.53 271.367 106.699 269.414 103.893C267.49 101.088 264.844 99.6852 261.478 99.6852C258.141 99.6852 255.496 101.088 253.542 103.893C251.618 106.699 250.656 110.53 250.656 115.387C250.656 120.244 251.618 124.075 253.542 126.881C255.496 129.686 258.156 131.089 261.523 131.089Z" fill="#A3FAEC"/>
<path d="M204.078 139.823V86.4724H181.127V74.6621H241.052V86.4724H218.011V139.823H204.078Z" fill="#A3FAEC"/>
<path d="M132.972 139.822V90.9512H140.096V101.992L139.78 100.001C141.073 97.1958 143.117 94.8126 145.913 92.8518C148.708 90.8607 152.105 89.8652 156.103 89.8652C159.56 89.8652 162.536 90.6345 165.031 92.173C167.526 93.7115 169.45 95.9137 170.802 98.7795C172.155 101.615 172.831 105.039 172.831 109.051V139.822H165.256V109.64C165.256 105.627 164.43 102.384 162.776 99.9108C161.153 97.4371 158.463 96.2003 154.705 96.2003C150.647 96.2003 147.265 97.7539 144.56 100.861C141.885 103.938 140.547 108.403 140.547 114.255V139.822H132.972Z" fill="#A3FAEC"/>
<path d="M110.652 139.823V90.9522H118.227V139.823H110.652ZM114.44 82.7619C112.696 82.7619 111.208 82.1435 109.976 80.9066C108.743 79.6698 108.127 78.1765 108.127 76.4268C108.127 74.647 108.743 73.1537 109.976 71.9471C111.208 70.7102 112.696 70.0918 114.44 70.0918C116.213 70.0918 117.701 70.7102 118.904 71.9471C120.136 73.1537 120.752 74.647 120.752 76.4268C120.752 78.1765 120.136 79.6698 118.904 80.9066C117.701 82.1435 116.213 82.7619 114.44 82.7619Z" fill="#A3FAEC"/>
<path d="M28.6768 139.823L32.284 74.6621H45.6307L64.0275 133.94H62.2239L80.7109 74.6621H94.0576L97.6648 139.823H89.8191L86.6628 80.8162H86.798L67.7249 139.823H58.7068L39.5435 80.8162H39.6788L36.5225 139.823H28.6768Z" fill="#A3FAEC"/>
<path d="M180.434 0V11.0857H0.129883V0H180.434Z" fill="#A3FAEC"/>
<path d="M180.426 54.6211L180.426 65.7068L110.465 65.7068L110.465 54.6211L180.426 54.6211Z" fill="#A3FAEC"/>
<path d="M25.7932 77.2676V88.3533H0V77.2676H25.7932Z" fill="#A3FAEC"/>
<path d="M11.0702 85.1615L0.0236863 85.1437L0.143939 10.279L11.1904 10.2969L11.0702 85.1615Z" fill="#A3FAEC"/>
<path d="M180.426 62.0107H169.379V6.58203L180.426 6.58203V62.0107Z" fill="#A3FAEC"/>
</svg>
