<svg width="138" height="44" viewBox="0 0 138 44" fill="none" xmlns="http://www.w3.org/2000/svg">
<path d="M33.5483 10.9908C33.5483 14.2994 30.8661 16.9815 27.5575 16.9815C24.2489 16.9815 21.5668 14.2994 21.5668 10.9908C21.5668 7.68216 24.2489 5 27.5575 5C30.8661 5 33.5483 7.68216 33.5483 10.9908Z" fill="#006555"/>
<path d="M8.38707 31.9582C8.38707 34.2742 6.50956 36.1517 4.19353 36.1517C1.87751 36.1517 0 34.2742 0 31.9582C0 29.6422 1.87751 27.7646 4.19353 27.7646C6.50956 27.7646 8.38707 29.6422 8.38707 31.9582Z" fill="#1F1F1F"/>
<path d="M48.2134 34.807C48.2134 37.123 46.3359 39.0005 44.0198 39.0005C41.7038 39.0005 39.8263 37.123 39.8263 34.807C39.8263 32.491 41.7038 30.6135 44.0198 30.6135C46.3359 30.6135 48.2134 32.491 48.2134 34.807Z" fill="#1F1F1F"/>
<path d="M30.3602 32.1335C30.3602 34.4495 28.4827 36.327 26.1667 36.327C23.8507 36.327 21.9731 34.4495 21.9731 32.1335C21.9731 29.8175 23.8507 27.9399 26.1667 27.9399C28.4827 27.9399 30.3602 29.8175 30.3602 32.1335Z" fill="#1F1F1F"/>
<path d="M20.3686 22.3736C20.3686 25.3514 17.9546 27.7653 14.9769 27.7653C11.9991 27.7653 9.58521 25.3514 9.58521 22.3736C9.58521 19.3959 11.9991 16.9819 14.9769 16.9819C17.9546 16.9819 20.3686 19.3959 20.3686 22.3736Z" fill="#1F1F1F"/>
<path d="M40.9964 23.7188C40.9964 26.6966 38.5825 29.1105 35.6048 29.1105C32.627 29.1105 30.2131 26.6966 30.2131 23.7188C30.2131 20.7411 32.627 18.3271 35.6048 18.3271C38.5825 18.3271 40.9964 20.7411 40.9964 23.7188Z" fill="#1F1F1F"/>
<path d="M77.408 6.776C78.416 6.776 79.312 6.984 80.096 7.4C80.896 7.8 81.52 8.424 81.968 9.272C82.432 10.12 82.664 11.216 82.664 12.56V20H78.104V13.304C78.104 12.376 77.928 11.704 77.576 11.288C77.224 10.856 76.744 10.64 76.136 10.64C75.704 10.64 75.312 10.744 74.96 10.952C74.608 11.16 74.336 11.48 74.144 11.912C73.952 12.328 73.856 12.872 73.856 13.544V20H69.296V13.304C69.296 12.376 69.12 11.704 68.768 11.288C68.432 10.856 67.952 10.64 67.328 10.64C66.88 10.64 66.48 10.744 66.128 10.952C65.792 11.16 65.52 11.48 65.312 11.912C65.12 12.328 65.024 12.872 65.024 13.544V20H60.464V6.992H64.808V10.616L63.944 9.584C64.424 8.656 65.08 7.96 65.912 7.496C66.744 7.016 67.672 6.776 68.696 6.776C69.864 6.776 70.888 7.08 71.768 7.688C72.664 8.28 73.264 9.208 73.568 10.472L72.08 10.16C72.544 9.104 73.24 8.28 74.168 7.688C75.112 7.08 76.192 6.776 77.408 6.776ZM84.8221 20V6.992H89.3821V20H84.8221ZM87.1021 5.552C86.2701 5.552 85.5981 5.32 85.0861 4.856C84.5741 4.392 84.3181 3.816 84.3181 3.128C84.3181 2.44 84.5741 1.864 85.0861 1.4C85.5981 0.935999 86.2701 0.704 87.1021 0.704C87.9341 0.704 88.6061 0.927999 89.1181 1.376C89.6301 1.808 89.8861 2.368 89.8861 3.056C89.8861 3.776 89.6301 4.376 89.1181 4.856C88.6221 5.32 87.9501 5.552 87.1021 5.552ZM100.098 6.776C101.106 6.776 102.018 6.984 102.834 7.4C103.65 7.8 104.29 8.424 104.754 9.272C105.234 10.12 105.474 11.216 105.474 12.56V20H100.914V13.304C100.914 12.376 100.722 11.704 100.338 11.288C99.9696 10.856 99.4496 10.64 98.7776 10.64C98.2976 10.64 97.8576 10.752 97.4576 10.976C97.0576 11.184 96.7456 11.512 96.5216 11.96C96.2976 12.408 96.1856 12.992 96.1856 13.712V20H91.6256V6.992H95.9696V10.688L95.1296 9.608C95.6256 8.664 96.3056 7.96 97.1696 7.496C98.0336 7.016 99.0096 6.776 100.098 6.776Z" fill="#006555"/>
<path d="M66.272 42.216C64.608 42.216 63.312 41.808 62.384 40.992C61.456 40.16 60.992 38.912 60.992 37.248V26.088H65.552V37.2C65.552 37.664 65.68 38.032 65.936 38.304C66.192 38.56 66.52 38.688 66.92 38.688C67.464 38.688 67.928 38.552 68.312 38.28L69.44 41.472C69.056 41.728 68.584 41.912 68.024 42.024C67.464 42.152 66.88 42.216 66.272 42.216ZM59.096 32.88V29.472H68.528V32.88H59.096ZM76.6314 42.216C75.2074 42.216 73.9434 41.928 72.8394 41.352C71.7354 40.776 70.8634 39.984 70.2234 38.976C69.5994 37.952 69.2874 36.784 69.2874 35.472C69.2874 34.16 69.5994 33 70.2234 31.992C70.8634 30.984 71.7354 30.2 72.8394 29.64C73.9434 29.064 75.2074 28.776 76.6314 28.776C78.0554 28.776 79.3194 29.064 80.4234 29.64C81.5434 30.2 82.4154 30.984 83.0394 31.992C83.6634 33 83.9754 34.16 83.9754 35.472C83.9754 36.784 83.6634 37.952 83.0394 38.976C82.4154 39.984 81.5434 40.776 80.4234 41.352C79.3194 41.928 78.0554 42.216 76.6314 42.216ZM76.6314 38.592C77.1594 38.592 77.6234 38.472 78.0234 38.232C78.4394 37.992 78.7674 37.64 79.0074 37.176C79.2474 36.696 79.3674 36.128 79.3674 35.472C79.3674 34.816 79.2474 34.264 79.0074 33.816C78.7674 33.352 78.4394 33 78.0234 32.76C77.6234 32.52 77.1594 32.4 76.6314 32.4C76.1194 32.4 75.6554 32.52 75.2394 32.76C74.8394 33 74.5114 33.352 74.2554 33.816C74.0154 34.264 73.8954 34.816 73.8954 35.472C73.8954 36.128 74.0154 36.696 74.2554 37.176C74.5114 37.64 74.8394 37.992 75.2394 38.232C75.6554 38.472 76.1194 38.592 76.6314 38.592ZM102.312 28.776C103.32 28.776 104.216 28.984 105 29.4C105.8 29.8 106.424 30.424 106.872 31.272C107.336 32.12 107.568 33.216 107.568 34.56V42H103.008V35.304C103.008 34.376 102.832 33.704 102.48 33.288C102.128 32.856 101.648 32.64 101.04 32.64C100.608 32.64 100.216 32.744 99.8637 32.952C99.5117 33.16 99.2397 33.48 99.0478 33.912C98.8558 34.328 98.7597 34.872 98.7597 35.544V42H94.1997V35.304C94.1997 34.376 94.0237 33.704 93.6717 33.288C93.3357 32.856 92.8557 32.64 92.2317 32.64C91.7837 32.64 91.3837 32.744 91.0317 32.952C90.6957 33.16 90.4237 33.48 90.2157 33.912C90.0237 34.328 89.9277 34.872 89.9277 35.544V42H85.3677V28.992H89.7117V32.616L88.8477 31.584C89.3277 30.656 89.9837 29.96 90.8157 29.496C91.6477 29.016 92.5757 28.776 93.5997 28.776C94.7678 28.776 95.7917 29.08 96.6717 29.688C97.5677 30.28 98.1677 31.208 98.4718 32.472L96.9837 32.16C97.4477 31.104 98.1437 30.28 99.0718 29.688C100.016 29.08 101.096 28.776 102.312 28.776ZM115.534 42.216C113.87 42.216 112.574 41.808 111.646 40.992C110.718 40.16 110.254 38.912 110.254 37.248V26.088H114.814V37.2C114.814 37.664 114.942 38.032 115.198 38.304C115.454 38.56 115.782 38.688 116.182 38.688C116.726 38.688 117.19 38.552 117.574 38.28L118.702 41.472C118.318 41.728 117.846 41.912 117.286 42.024C116.726 42.152 116.142 42.216 115.534 42.216ZM108.358 32.88V29.472H117.79V32.88H108.358Z" fill="black"/>
</svg>
